<svg xmlns="http://www.w3.org/2000/svg" xmlns:xlink="http://www.w3.org/1999/xlink" x="0px" y="0px" viewBox="0 0 500 500" style="enable-background:new 0 0 500 500;" xml:space="preserve"><g id="Background_Simple">	<g>		<path style="fill:#92E3A9;" d="M443.096,125.6c-1.615-2.689-3.295-5.329-5.049-7.909C414.678,83.357,375.777,59.85,337.97,49.204   c-16.563-4.671-33.568-7.114-50.543-7.739c-111.345-4.046-152.249,87.76-188.123,111.43   C63.429,176.566,8.378,216.997,15.287,301.93c5.242,64.577,41.978,126.323,109.071,154.422c7.39,3.104,15.155,5.799,23.285,8.035   c15.123,4.16,31.515,6.773,49.175,7.558c50.726,2.26,91.914-9.968,132.202-40.759c9.365-7.157,18.68-15.23,30.833-16.115   c8.834-0.643,17.209,2.531,7.975,11.068c-10.853,10.034,1.669,29.77,29.219,16.059c46.012-22.901,64.939-72.309,73.856-122.549   C481.848,257.98,476.543,181.289,443.096,125.6z"></path>		<path style="opacity:0.7;fill:#FFFFFF;" d="M443.096,125.6c-1.615-2.689-3.295-5.329-5.049-7.909   C414.678,83.357,375.777,59.85,337.97,49.204c-16.563-4.671-33.568-7.114-50.543-7.739   c-111.345-4.046-152.249,87.76-188.123,111.43C63.429,176.566,8.378,216.997,15.287,301.93   c5.242,64.577,41.978,126.323,109.071,154.422c7.39,3.104,15.155,5.799,23.285,8.035c15.123,4.16,31.515,6.773,49.175,7.558   c50.726,2.26,91.914-9.968,132.202-40.759c9.365-7.157,18.68-15.23,30.833-16.115c8.834-0.643,17.209,2.531,7.975,11.068   c-10.853,10.034,1.669,29.77,29.219,16.059c46.012-22.901,64.939-72.309,73.856-122.549   C481.848,257.98,476.543,181.289,443.096,125.6z"></path>	</g></g><g id="Plants">	<g>		<g>			<path style="fill:#263238;" d="M443.499,362.29c1.233,0.538,4.248,0.47,4.251,0.47c0.031-0.001-0.648-1.974-0.705-2.094    c-0.661-1.384-2.754-3.669-4.456-3.439c-1.226,0.166-1.909,1.393-1.632,2.548C441.239,360.955,442.448,361.831,443.499,362.29z"></path>			<path style="fill:#263238;" d="M444.539,371.024c1.279,0.187,3.97-0.594,4.184-0.657c0.425,1.507,0.983,3.018,1.632,4.516    c0.37,0.857,0.77,1.709,1.181,2.558c-0.246-0.359-0.468-0.679-0.503-0.721c-1.004-1.16-3.625-2.812-5.206-2.14    c-1.14,0.484-1.473,1.847-0.901,2.888c0.584,1.063,1.983,1.588,3.116,1.753c1.151,0.168,3.458-0.452,4.067-0.624    c0.161,0.324,0.318,0.649,0.481,0.973c0.779,1.552,1.564,3.097,2.286,4.636c0.255,0.542,0.486,1.086,0.72,1.629    c-0.218-0.319-0.405-0.586-0.438-0.624c-1.004-1.16-3.625-2.812-5.206-2.14c-1.139,0.484-1.473,1.848-0.901,2.888    c0.585,1.063,1.983,1.588,3.117,1.754c1.098,0.16,3.233-0.392,3.957-0.593c0.222,0.563,0.446,1.127,0.636,1.682    c0.121,0.383,0.264,0.742,0.364,1.133c0.108,0.385,0.214,0.766,0.319,1.143c0.176,0.734,0.362,1.49,0.516,2.211    c0.111,0.5,0.207,0.979,0.306,1.461c-0.248-0.543-0.755-1.595-0.807-1.678c-0.816-1.299-3.157-3.328-4.822-2.904    c-1.199,0.306-1.736,1.603-1.328,2.718c0.416,1.139,1.719,1.87,2.814,2.205c1.207,0.369,3.877,0.032,4.211-0.012    c0.16,0.798,0.308,1.576,0.436,2.312c0.069,0.39,0.128,0.756,0.189,1.124h1.062c-0.078-0.424-0.16-0.858-0.25-1.311    c-0.159-0.811-0.346-1.674-0.545-2.559c0.201-0.08,1.34-0.541,2.349-1.105c0.879,0.952,3.132,2.067,3.424,2.208    c-0.307,0.754-0.612,1.484-0.912,2.169c-0.09,0.207-0.177,0.4-0.265,0.597h1.119c0.028-0.067,0.055-0.132,0.084-0.201    c0.315-0.764,0.636-1.588,0.957-2.436c0.323,0.068,2.967,0.604,4.199,0.327c1.117-0.253,2.471-0.885,2.972-1.99    c0.49-1.081,0.051-2.415-1.122-2.809c-1.628-0.547-4.114,1.302-5.025,2.537c-0.054,0.073-0.549,0.928-0.852,1.473    c0.129-0.347,0.259-0.683,0.388-1.042c0.26-0.708,0.499-1.423,0.758-2.191c0.112-0.375,0.226-0.754,0.34-1.137    c0.121-0.377,0.202-0.791,0.306-1.19c0.222-0.93,0.401-1.883,0.56-2.847c0.621,0.226,2.837,0.997,3.986,0.916    c1.143-0.08,2.577-0.5,3.238-1.517c0.648-0.995,0.417-2.38-0.683-2.948c-1.527-0.787-4.264,0.664-5.352,1.747    c-0.068,0.067-0.761,0.932-1.132,1.414c0.091-0.58,0.185-1.159,0.258-1.749c0.211-1.703,0.372-3.434,0.541-5.16    c0.051-0.529,0.109-1.055,0.164-1.582c0.22,0.083,2.835,1.056,4.121,0.966c1.143-0.08,2.577-0.5,3.238-1.516    c0.648-0.995,0.417-2.38-0.683-2.947c-1.527-0.788-4.264,0.664-5.351,1.746c-0.082,0.082-1.077,1.327-1.315,1.656    c0.123-1.161,0.255-2.316,0.433-3.449c0.242-1.564,0.567-3.086,0.99-4.537c0.102,0.039,2.827,1.067,4.144,0.975    c1.143-0.08,2.577-0.5,3.238-1.517c0.648-0.995,0.417-2.38-0.683-2.947c-1.527-0.788-4.264,0.664-5.351,1.746    c-0.085,0.085-1.155,1.425-1.332,1.682c0.026-0.086,0.042-0.178,0.069-0.264c0.472-1.543,1.122-2.979,1.797-4.293    c0.391-0.765,0.807-1.474,1.228-2.154c0.488,0.244,2.729,1.332,3.924,1.38c1.145,0.046,2.616-0.214,3.385-1.152    c0.754-0.918,0.676-2.32-0.355-3.005c-1.431-0.95-4.311,0.192-5.511,1.148c-0.065,0.052-0.67,0.654-1.104,1.099    c0.194-0.304,0.389-0.622,0.581-0.91c0.719-1.082,1.443-2.029,2.092-2.862c0.373-0.471,0.719-0.889,1.047-1.277    c0.603-0.01,3.034-0.084,4.097-0.583c1.037-0.487,2.223-1.395,2.474-2.582c0.245-1.162-0.47-2.371-1.7-2.503    c-1.708-0.184-3.738,2.157-4.362,3.558c-0.054,0.121-0.68,2.112-0.648,2.112c0,0,0.029,0,0.036-0.001    c-0.323,0.367-0.665,0.764-1.031,1.206c-0.668,0.821-1.416,1.754-2.16,2.825c-0.747,1.068-1.529,2.25-2.24,3.569    c-0.715,1.321-1.399,2.747-1.914,4.308c-0.006,0.018-0.01,0.037-0.016,0.054c0.009-0.503-0.013-1.911-0.027-2.019    c-0.197-1.521-1.472-4.345-3.162-4.658c-1.217-0.225-2.248,0.729-2.345,1.912c-0.099,1.209,0.777,2.418,1.632,3.182    c0.964,0.861,3.639,1.694,3.852,1.76c-0.477,1.491-0.845,3.059-1.13,4.667c-0.164,0.919-0.301,1.85-0.426,2.785    c-0.007-0.435-0.015-0.825-0.023-0.879c-0.197-1.522-1.472-4.345-3.162-4.657c-1.217-0.225-2.248,0.729-2.345,1.912    c-0.099,1.209,0.777,2.419,1.632,3.182c0.867,0.775,3.134,1.531,3.736,1.723c-0.044,0.359-0.092,0.717-0.135,1.077    c-0.206,1.724-0.404,3.445-0.65,5.128c-0.086,0.593-0.193,1.174-0.298,1.755c-0.006-0.386-0.014-0.712-0.021-0.761    c-0.197-1.522-1.472-4.345-3.161-4.658c-1.217-0.225-2.248,0.728-2.345,1.912c-0.099,1.208,0.778,2.418,1.632,3.182    c0.827,0.739,2.913,1.456,3.628,1.688c-0.125,0.592-0.25,1.186-0.398,1.754c-0.11,0.386-0.189,0.764-0.321,1.146    c-0.123,0.38-0.244,0.757-0.364,1.129c-0.258,0.709-0.52,1.443-0.789,2.128c-0.184,0.479-0.367,0.931-0.551,1.387    c0.093-0.589,0.25-1.747,0.253-1.845c0.023-1.019-0.339-2.676-1.059-3.84c0.004-0.151-0.004-0.301-0.028-0.45    c-0.188-1.172-1.29-2.043-2.486-1.725c-1.66,0.442-2.713,3.356-2.791,4.888c-0.005,0.09,0.055,1.077,0.102,1.698    c-0.084-0.361-0.16-0.713-0.251-1.083c-0.174-0.734-0.37-1.462-0.577-2.246c-0.113-0.375-0.228-0.753-0.344-1.136    c-0.106-0.381-0.268-0.771-0.401-1.161c-0.328-0.898-0.705-1.792-1.104-2.684c0.643-0.154,2.917-0.734,3.83-1.434    c0.909-0.697,1.873-1.839,1.865-3.051c-0.009-1.188-0.965-2.215-2.196-2.082c-1.708,0.185-3.19,2.906-3.5,4.409    c-0.019,0.094-0.12,1.197-0.164,1.804c-0.244-0.534-0.485-1.069-0.75-1.601c-0.763-1.537-1.583-3.07-2.396-4.602    c-0.249-0.469-0.491-0.94-0.736-1.41c0.229-0.053,2.947-0.683,3.97-1.468c0.909-0.697,1.873-1.839,1.865-3.051    c-0.008-1.187-0.965-2.215-2.196-2.081c-1.708,0.185-3.19,2.906-3.5,4.408c-0.023,0.113-0.167,1.701-0.183,2.106    c-0.538-1.035-1.064-2.072-1.542-3.116c-0.661-1.439-1.23-2.887-1.677-4.33c0.107-0.024,2.946-0.67,3.994-1.473    c0.909-0.698,1.873-1.839,1.864-3.051c-0.008-1.188-0.965-2.215-2.196-2.082c-1.708,0.186-3.19,2.906-3.5,4.409    c-0.024,0.118-0.178,1.826-0.183,2.137c-0.027-0.086-0.064-0.172-0.089-0.258c-0.458-1.548-0.707-3.104-0.869-4.573    c-0.096-0.853-0.14-1.674-0.164-2.473c0.541-0.066,3.011-0.395,4.034-1.014c0.98-0.594,2.064-1.622,2.189-2.828    c0.122-1.181-0.716-2.308-1.954-2.31c-1.718-0.003-3.49,2.538-3.963,3.997c-0.026,0.08-0.198,0.915-0.315,1.526    c-0.005-0.361-0.018-0.734-0.017-1.079c0.003-1.299,0.085-2.489,0.166-3.542c0.051-0.599,0.109-1.138,0.169-1.643    c0.497-0.342,2.484-1.744,3.095-2.747c0.596-0.978,1.084-2.39,0.639-3.518c-0.436-1.105-1.699-1.718-2.798-1.15    c-1.526,0.789-1.928,3.861-1.676,5.374c0.022,0.131,0.599,2.136,0.625,2.119c0,0,0.024-0.017,0.03-0.021    c-0.067,0.484-0.134,1.005-0.194,1.575c-0.105,1.053-0.213,2.244-0.243,3.548c-0.034,1.303-0.034,2.72,0.1,4.212    c0.133,1.496,0.349,3.063,0.781,4.649c0.005,0.018,0.012,0.036,0.017,0.054c-0.27-0.425-1.066-1.587-1.137-1.669    c-1.004-1.16-3.625-2.812-5.206-2.14c-1.139,0.484-1.473,1.848-0.901,2.889C442.007,370.333,443.406,370.859,444.539,371.024z"></path>			<path style="fill:#263238;" d="M473.999,362.953c0.027,0.017,0.548-2.004,0.567-2.135c0.211-1.519-0.273-4.58-1.82-5.327    c-1.114-0.538-2.36,0.109-2.766,1.225c-0.415,1.139,0.111,2.538,0.734,3.5C471.444,361.345,473.997,362.952,473.999,362.953z"></path>		</g>	</g>	<g>		<g>			<path style="fill:#263238;" d="M16.268,362.29c1.233,0.538,4.248,0.47,4.251,0.47c0.031-0.001-0.648-1.974-0.705-2.094    c-0.661-1.384-2.754-3.669-4.456-3.439c-1.226,0.166-1.909,1.393-1.632,2.548C14.008,360.955,15.218,361.831,16.268,362.29z"></path>			<path style="fill:#263238;" d="M17.309,371.024c1.279,0.187,3.97-0.594,4.184-0.657c0.425,1.507,0.983,3.018,1.632,4.516    c0.37,0.857,0.77,1.709,1.181,2.558c-0.245-0.359-0.468-0.679-0.503-0.721c-1.004-1.16-3.625-2.812-5.206-2.14    c-1.14,0.484-1.473,1.847-0.901,2.888c0.584,1.063,1.983,1.588,3.116,1.753c1.151,0.168,3.458-0.452,4.067-0.624    c0.161,0.324,0.318,0.649,0.481,0.973c0.779,1.552,1.563,3.097,2.286,4.636c0.255,0.542,0.486,1.086,0.72,1.629    c-0.218-0.319-0.405-0.586-0.438-0.624c-1.004-1.16-3.625-2.812-5.206-2.14c-1.139,0.484-1.473,1.848-0.901,2.888    c0.584,1.063,1.983,1.588,3.117,1.754c1.098,0.16,3.233-0.392,3.957-0.593c0.222,0.563,0.446,1.127,0.636,1.682    c0.121,0.383,0.264,0.742,0.364,1.133c0.108,0.385,0.214,0.766,0.319,1.143c0.176,0.734,0.362,1.49,0.516,2.211    c0.111,0.5,0.207,0.979,0.306,1.461c-0.248-0.543-0.755-1.595-0.807-1.678c-0.816-1.299-3.157-3.328-4.822-2.904    c-1.199,0.306-1.736,1.603-1.328,2.718c0.416,1.139,1.719,1.87,2.815,2.205c1.207,0.369,3.877,0.032,4.211-0.012    c0.16,0.798,0.308,1.576,0.436,2.312c0.069,0.39,0.128,0.756,0.189,1.124h1.062c-0.078-0.424-0.16-0.858-0.25-1.311    c-0.159-0.811-0.346-1.674-0.545-2.559c0.201-0.08,1.34-0.541,2.349-1.105c0.879,0.952,3.132,2.067,3.424,2.208    c-0.307,0.754-0.612,1.484-0.912,2.169c-0.09,0.207-0.177,0.4-0.265,0.597h1.119c0.028-0.067,0.055-0.132,0.084-0.201    c0.315-0.764,0.636-1.588,0.957-2.436c0.323,0.068,2.967,0.604,4.199,0.327c1.117-0.253,2.471-0.885,2.972-1.99    c0.49-1.081,0.051-2.415-1.122-2.809c-1.628-0.547-4.114,1.302-5.025,2.537c-0.054,0.073-0.549,0.928-0.851,1.473    c0.129-0.347,0.259-0.683,0.388-1.042c0.26-0.708,0.498-1.423,0.758-2.191c0.112-0.375,0.226-0.754,0.34-1.137    c0.121-0.377,0.202-0.791,0.306-1.19c0.222-0.93,0.401-1.883,0.56-2.847c0.621,0.226,2.837,0.997,3.986,0.916    c1.143-0.08,2.577-0.5,3.238-1.517c0.648-0.995,0.417-2.38-0.683-2.948c-1.527-0.787-4.264,0.664-5.352,1.747    c-0.068,0.067-0.761,0.932-1.132,1.414c0.091-0.58,0.185-1.159,0.258-1.749c0.211-1.703,0.372-3.434,0.541-5.16    c0.051-0.529,0.109-1.055,0.164-1.582c0.22,0.083,2.835,1.056,4.121,0.966c1.143-0.08,2.577-0.5,3.238-1.516    c0.648-0.995,0.417-2.38-0.683-2.947c-1.527-0.788-4.264,0.664-5.351,1.746c-0.082,0.082-1.077,1.327-1.315,1.656    c0.123-1.161,0.256-2.316,0.433-3.449c0.242-1.564,0.567-3.086,0.99-4.537c0.102,0.039,2.827,1.067,4.144,0.975    c1.143-0.08,2.577-0.5,3.238-1.517c0.648-0.995,0.417-2.38-0.683-2.947c-1.527-0.788-4.264,0.664-5.351,1.746    c-0.085,0.085-1.155,1.425-1.332,1.682c0.026-0.086,0.042-0.178,0.069-0.264c0.472-1.543,1.122-2.979,1.797-4.293    c0.391-0.765,0.807-1.474,1.227-2.154c0.488,0.244,2.729,1.332,3.924,1.38c1.145,0.046,2.616-0.214,3.385-1.152    c0.754-0.918,0.676-2.32-0.355-3.005c-1.431-0.95-4.311,0.192-5.511,1.148c-0.065,0.052-0.67,0.654-1.104,1.099    c0.194-0.304,0.389-0.622,0.581-0.91c0.719-1.082,1.443-2.029,2.092-2.862c0.373-0.471,0.719-0.889,1.047-1.277    c0.603-0.01,3.034-0.084,4.097-0.583c1.037-0.487,2.223-1.395,2.474-2.582c0.245-1.162-0.47-2.371-1.7-2.503    c-1.708-0.184-3.738,2.157-4.362,3.558c-0.054,0.121-0.68,2.112-0.648,2.112c0,0,0.029,0,0.036-0.001    c-0.324,0.367-0.666,0.764-1.031,1.206c-0.668,0.821-1.416,1.754-2.16,2.825c-0.747,1.068-1.529,2.25-2.24,3.569    c-0.715,1.321-1.399,2.747-1.914,4.308c-0.006,0.018-0.01,0.037-0.016,0.054c0.009-0.503-0.013-1.911-0.027-2.019    c-0.197-1.521-1.472-4.345-3.162-4.658c-1.217-0.225-2.248,0.729-2.345,1.912c-0.099,1.209,0.777,2.418,1.632,3.182    c0.964,0.861,3.639,1.694,3.852,1.76c-0.477,1.491-0.845,3.059-1.13,4.667c-0.164,0.919-0.3,1.85-0.426,2.785    c-0.007-0.435-0.015-0.825-0.023-0.879c-0.197-1.522-1.472-4.345-3.162-4.657c-1.217-0.225-2.248,0.729-2.344,1.912    c-0.099,1.209,0.777,2.419,1.632,3.182c0.867,0.775,3.134,1.531,3.736,1.723c-0.044,0.359-0.092,0.717-0.135,1.077    c-0.206,1.724-0.404,3.445-0.65,5.128c-0.086,0.593-0.193,1.174-0.298,1.755c-0.006-0.386-0.014-0.712-0.021-0.761    c-0.197-1.522-1.472-4.345-3.161-4.658c-1.217-0.225-2.248,0.728-2.345,1.912c-0.099,1.208,0.778,2.418,1.632,3.182    c0.827,0.739,2.913,1.456,3.628,1.688c-0.125,0.592-0.25,1.186-0.398,1.754c-0.11,0.386-0.189,0.764-0.321,1.146    c-0.123,0.38-0.244,0.757-0.364,1.129c-0.258,0.709-0.52,1.443-0.789,2.128c-0.184,0.479-0.368,0.931-0.551,1.387    c0.093-0.589,0.25-1.747,0.253-1.845c0.023-1.019-0.338-2.676-1.059-3.84c0.004-0.151-0.004-0.301-0.028-0.45    c-0.188-1.172-1.29-2.043-2.486-1.725c-1.66,0.442-2.713,3.356-2.791,4.888c-0.005,0.09,0.055,1.077,0.102,1.698    c-0.084-0.361-0.16-0.713-0.251-1.083c-0.174-0.734-0.37-1.462-0.577-2.246c-0.113-0.375-0.228-0.753-0.344-1.136    c-0.107-0.381-0.268-0.771-0.401-1.161c-0.328-0.898-0.705-1.792-1.104-2.684c0.643-0.154,2.917-0.734,3.83-1.434    c0.909-0.697,1.873-1.839,1.864-3.051c-0.008-1.188-0.965-2.215-2.196-2.082c-1.708,0.185-3.19,2.906-3.5,4.409    c-0.019,0.094-0.12,1.197-0.164,1.804c-0.244-0.534-0.485-1.069-0.75-1.601c-0.763-1.537-1.583-3.07-2.396-4.602    c-0.249-0.469-0.491-0.94-0.736-1.41c0.229-0.053,2.947-0.683,3.97-1.468c0.909-0.697,1.873-1.839,1.865-3.051    c-0.008-1.187-0.965-2.215-2.196-2.081c-1.708,0.185-3.19,2.906-3.5,4.408c-0.023,0.113-0.167,1.701-0.183,2.106    c-0.538-1.035-1.064-2.072-1.542-3.116c-0.661-1.439-1.23-2.887-1.677-4.33c0.107-0.024,2.946-0.67,3.994-1.473    c0.909-0.698,1.873-1.839,1.865-3.051c-0.008-1.188-0.965-2.215-2.196-2.082c-1.708,0.186-3.19,2.906-3.5,4.409    c-0.024,0.118-0.177,1.826-0.183,2.137c-0.027-0.086-0.064-0.172-0.089-0.258c-0.458-1.548-0.707-3.104-0.869-4.573    c-0.096-0.853-0.14-1.674-0.164-2.473c0.541-0.066,3.011-0.395,4.034-1.014c0.98-0.594,2.064-1.622,2.189-2.828    c0.122-1.181-0.716-2.308-1.954-2.31c-1.718-0.003-3.49,2.538-3.963,3.997c-0.026,0.08-0.198,0.915-0.315,1.526    c-0.005-0.361-0.018-0.734-0.017-1.079c0.003-1.299,0.084-2.489,0.166-3.542c0.051-0.599,0.109-1.138,0.169-1.643    c0.497-0.342,2.484-1.744,3.095-2.747c0.597-0.978,1.084-2.39,0.639-3.518c-0.436-1.105-1.699-1.718-2.798-1.15    c-1.526,0.789-1.928,3.861-1.676,5.374c0.022,0.131,0.599,2.136,0.625,2.119c0,0,0.024-0.017,0.03-0.021    c-0.067,0.484-0.134,1.005-0.194,1.575c-0.105,1.053-0.213,2.244-0.243,3.548c-0.034,1.303-0.034,2.72,0.1,4.212    c0.133,1.496,0.349,3.063,0.78,4.649c0.005,0.018,0.012,0.036,0.017,0.054c-0.27-0.425-1.066-1.587-1.137-1.669    c-1.004-1.16-3.625-2.812-5.206-2.14c-1.139,0.484-1.473,1.848-0.901,2.889C14.777,370.333,16.175,370.859,17.309,371.024z"></path>			<path style="fill:#263238;" d="M46.769,362.953c0.027,0.017,0.548-2.004,0.567-2.135c0.211-1.519-0.273-4.58-1.82-5.327    c-1.114-0.538-2.36,0.109-2.766,1.225c-0.415,1.139,0.111,2.538,0.734,3.5C44.214,361.345,46.767,362.952,46.769,362.953z"></path>		</g>	</g></g><g id="Clouds">	<path style="fill:none;stroke:#263238;stroke-linecap:round;stroke-linejoin:round;stroke-miterlimit:10;" d="M326.445,58.886  c0,0-9.512-17.687-24.619-16.467c-15.107,1.22-11.191,10.368-19.024,12.808c-7.833,2.44-10.631-5.489-20.143,0  c-9.512,5.489-7.833,8.538-12.31,9.758c-4.476,1.22-7.274-2.439-14.548-0.61c-7.274,1.83-9.512,9.148-9.512,9.148h121.978  c0,0,0-11.588-6.714-13.418C334.838,58.277,330.921,59.496,326.445,58.886z"></path>	<path style="fill:none;stroke:#263238;stroke-linecap:round;stroke-linejoin:round;stroke-miterlimit:10;" d="M237.353,43.444  c0,0-5.279-9.816-13.664-9.139c-8.385,0.677-6.211,5.754-10.558,7.108c-4.348,1.354-5.9-3.046-11.18,0  c-5.279,3.046-4.348,4.739-6.832,5.416c-2.484,0.677-4.037-1.354-8.074-0.339c-4.037,1.016-5.279,5.077-5.279,5.077h67.698  c0,0,0-6.431-3.727-7.447C242.011,43.105,239.838,43.783,237.353,43.444z"></path>	<path style="fill:none;stroke:#263238;stroke-linecap:round;stroke-linejoin:round;stroke-miterlimit:10;" d="M104.277,119.381  c0,0-5.279-9.816-13.664-9.139c-8.385,0.677-6.211,5.754-10.558,7.108c-4.348,1.354-5.9-3.046-11.18,0  c-5.279,3.046-4.347,4.739-6.832,5.416c-2.484,0.677-4.037-1.354-8.074-0.339c-4.037,1.015-5.279,5.077-5.279,5.077h67.698  c0,0,0-6.431-3.727-7.447C108.935,119.042,106.761,119.719,104.277,119.381z"></path>	<path style="fill:none;stroke:#263238;stroke-linecap:round;stroke-linejoin:round;stroke-miterlimit:10;" d="M441.979,105.523  c0,0-11.444-21.278-29.618-19.811c-18.175,1.467-13.463,12.473-22.887,15.408c-9.424,2.935-12.79-6.604-24.233,0  c-11.443,6.604-9.424,10.272-14.809,11.74c-5.385,1.467-8.751-2.935-17.502-0.734c-8.751,2.201-11.444,11.006-11.444,11.006  h146.745c0,0,0-13.941-8.078-16.142C452.076,104.79,447.364,106.257,441.979,105.523z"></path></g><g id="Car_1_">	<g>		<path style="fill:#92E3A9;stroke:#263238;stroke-miterlimit:10;" d="M358.777,218.687l-10.205-38.268   c-8.456-28.934-34.944-32.003-34.944-32.003c-71.304-5.443-121.169-0.881-132.499,0.341c-20.102,0.888-30.05,13.111-35.384,28.925   l-13.833,41.005H358.777z"></path>		<path style="fill:#263238;stroke:#263238;stroke-miterlimit:10;" d="M333.492,204.951c7.022,1.01,12.823-4.927,10.856-11.109   l-5.063-15.913c-5.858-21.854-31.801-24.412-31.801-24.412c-64.89-4.152-110.268-0.672-120.578,0.26   c-18.293,0.677-27.346,10.001-32.201,22.064l-6.932,17.225c-2.536,6.3,3.348,12.746,10.664,11.683l49.805-7.234   c24.258-3.523,48.896-3.541,73.158-0.053L333.492,204.951z"></path>		<g>			<path style="fill:#FFFFFF;stroke:#263238;stroke-miterlimit:10;" d="M266.941,151.763l-46.862,44.324    c4.117-0.403,8.241-0.707,12.369-0.91l46.16-43.083C274.612,151.955,270.728,151.848,266.941,151.763z"></path>			<path style="fill:#FFFFFF;stroke:#263238;stroke-miterlimit:10;" d="M307.485,153.517c-4.341-0.278-8.586-0.519-12.748-0.731    l-47.679,42.091c11.478,0.092,22.951,0.947,34.341,2.585l47.134-35.488C319.094,154.672,307.485,153.517,307.485,153.517z"></path>		</g>		<g>			<path style="fill:#FFFFFF;stroke:#263238;stroke-miterlimit:10;" d="M335.075,206.566c-0.593,0-1.193-0.043-1.797-0.129    l-52.092-7.49c-24.132-3.47-48.603-3.452-72.729,0.053l-49.805,7.234c-4.205,0.61-8.364-0.98-10.856-4.15    c-2.183-2.776-2.711-6.356-1.415-9.577l6.932-17.225c5.982-14.865,16.953-22.389,33.537-23.003    c12.062-1.092,56.657-4.357,120.73-0.258c0.321,0.031,27.097,2.926,33.154,25.521l5.043,15.847    c1.021,3.209,0.328,6.559-1.901,9.192C341.707,205.14,338.508,206.566,335.075,206.566z M333.706,203.467    c3.013,0.434,6.037-0.649,7.881-2.826c1.548-1.828,2.033-4.14,1.331-6.343l-5.063-15.914c-2.321-8.654-8.108-15.178-17.22-19.458    c-6.91-3.246-13.236-3.909-13.299-3.915c-63.808-4.082-108.209-0.832-120.295,0.262c-15.567,0.578-25.375,7.291-30.945,21.13    l-6.932,17.225c-0.904,2.246-0.543,4.652,0.991,6.603c1.831,2.329,4.921,3.493,8.066,3.035l49.805-7.234    c24.412-3.546,49.17-3.564,73.587-0.054L333.706,203.467z"></path>		</g>		<polygon style="fill:#263238;stroke:#263238;stroke-miterlimit:10;" points="113.973,355.187 153.181,360.357 330.262,360.357    373.347,355.617 373.347,347 114.404,347   "></polygon>		<path style="fill:#263238;stroke:#263238;stroke-miterlimit:10;" d="M397.666,399.564h-21.967   c-5.565,0-10.076-4.511-10.076-10.076v-45.073h42.12v45.073C407.742,395.053,403.231,399.564,397.666,399.564z"></path>		<path style="fill:#263238;stroke:#263238;stroke-miterlimit:10;" d="M115.478,399.564H93.511c-5.565,0-10.076-4.511-10.076-10.076   v-45.073h42.119v45.073C125.554,395.053,121.043,399.564,115.478,399.564z"></path>		<path style="fill:#92E3A9;stroke:#263238;stroke-miterlimit:10;" d="M119.575,219.037c0,0,42.126-20.985,125.33-22.557   c83.203-1.571,128.443,25.573,128.443,25.573v111.222H119.575V219.037z"></path>		<path style="fill:#263238;stroke:#263238;stroke-miterlimit:10;" d="M135.068,235.835c0,0,48.101,24.22,105.95,22.663   c57.849-1.557,130.879-16.997,130.879-16.997v91.774H132.802L135.068,235.835z"></path>		<g>			<path style="fill:#263238;stroke:#263238;stroke-miterlimit:10;" d="M110.765,216.572H97.363v-5.787c0-3.701,3-6.701,6.701-6.701    h0c3.701,0,6.701,3,6.701,6.701V216.572z"></path>			<rect x="97.363" y="212.003" style="fill:#92E3A9;stroke:#263238;stroke-miterlimit:10;" width="13.402" height="4.569"></rect>		</g>		<path style="fill:#92E3A9;stroke:#263238;stroke-miterlimit:10;" d="M143.679,341.672H65.407v-88.604   c0-21.614,17.522-39.136,39.136-39.136h0c21.614,0,39.136,17.522,39.136,39.136V341.672z"></path>		<path style="fill:#263238;stroke:#263238;stroke-miterlimit:10;" d="M65.407,334.291l0.608,7.381h77.664v-66.81   c-8.875-4.904-25.497-12.58-43.171-12.964c-17.315-0.376-29.121,7.247-35.101,12.408V334.291z"></path>		<path style="fill:#FFFFFF;" d="M99.374,221.671c0,0,14.731-2.266,24.363,3.966c9.632,6.232,15.864,20.963,15.864,20.963   l-10.765-5.666l6.799,10.198l-15.864,5.666L99.374,221.671z"></path>					<ellipse transform="matrix(0.9239 -0.3827 0.3827 0.9239 -87.1744 55.3858)" style="fill:#FFFFFF;stroke:#263238;stroke-miterlimit:10;" cx="95.634" cy="246.821" rx="27.578" ry="27.578"></ellipse>					<ellipse transform="matrix(0.7071 -0.7071 0.7071 0.7071 -149.0692 139.8848)" style="fill:#FFFFFF;stroke:#263238;stroke-miterlimit:10;" cx="94.321" cy="249.885" rx="21.032" ry="21.032"></ellipse>		<g>							<ellipse transform="matrix(0.3827 -0.9239 0.9239 0.3827 -210.3808 268.9586)" style="fill:#FFFFFF;stroke:#263238;stroke-miterlimit:10;" cx="96.072" cy="291.908" rx="10.53" ry="10.53"></ellipse>							<ellipse transform="matrix(0.7071 -0.7071 0.7071 0.7071 -178.2712 153.4312)" style="fill:#FFFFFF;stroke:#263238;stroke-miterlimit:10;" cx="96.072" cy="291.908" rx="8.317" ry="8.317"></ellipse>		</g>		<g>							<ellipse transform="matrix(0.7071 -0.7071 0.7071 0.7071 -171.0469 195.3856)" style="fill:#FFFFFF;stroke:#263238;stroke-miterlimit:10;" cx="150.328" cy="304.165" rx="18.823" ry="18.823"></ellipse>			<circle style="fill:#FFFFFF;stroke:#263238;stroke-miterlimit:10;" cx="150.328" cy="304.165" r="14.867"></circle>		</g>		<g>			<path style="fill:#263238;stroke:#263238;stroke-miterlimit:10;" d="M397.078,216.572h-13.402v-5.787    c0-3.701,3-6.701,6.701-6.701h0c3.701,0,6.701,3,6.701,6.701V216.572z"></path>			<rect x="383.676" y="212.003" style="fill:#92E3A9;stroke:#263238;stroke-miterlimit:10;" width="13.402" height="4.569"></rect>		</g>		<path style="fill:#92E3A9;stroke:#263238;stroke-miterlimit:10;" d="M350.021,341.672h78.272v-88.604   c0-21.614-17.522-39.136-39.136-39.136h0c-21.614,0-39.136,17.522-39.136,39.136V341.672z"></path>		<path style="fill:#263238;stroke:#263238;stroke-miterlimit:10;" d="M428.293,270.39c-5.017-6.831-13.395-15.83-24.1-18.124   c-15.864-3.4-23.796,7.932-34.561,13.031c-10.765,5.099-19.264,1.133-19.264,1.133l-0.347,0.48v74.761h78.272V270.39z"></path>					<ellipse transform="matrix(0.7071 -0.7071 0.7071 0.7071 -57.938 353.7665)" style="fill:#FFFFFF;stroke:#263238;stroke-miterlimit:10;" cx="398.065" cy="246.821" rx="27.578" ry="27.578"></ellipse>					<ellipse transform="matrix(0.9737 -0.2277 0.2277 0.9737 -46.4078 97.503)" style="fill:#FFFFFF;stroke:#263238;stroke-miterlimit:10;" cx="399.378" cy="249.885" rx="21.032" ry="21.032"></ellipse>		<g>							<ellipse transform="matrix(0.9249 -0.3802 0.3802 0.9249 -81.1282 173.1186)" style="fill:#FFFFFF;stroke:#263238;stroke-miterlimit:10;" cx="397.627" cy="291.908" rx="10.53" ry="10.53"></ellipse>							<ellipse transform="matrix(0.1606 -0.987 0.987 0.1606 45.65 637.4938)" style="fill:#FFFFFF;stroke:#263238;stroke-miterlimit:10;" cx="397.627" cy="291.908" rx="8.317" ry="8.317"></ellipse>		</g>		<g>							<ellipse transform="matrix(0.2522 -0.9677 0.9677 0.2522 -37.5534 559.7354)" style="fill:#FFFFFF;stroke:#263238;stroke-miterlimit:10;" cx="343.372" cy="304.165" rx="18.823" ry="18.823"></ellipse>			<circle style="fill:#FFFFFF;stroke:#263238;stroke-miterlimit:10;" cx="343.372" cy="304.165" r="14.867"></circle>		</g>		<path style="fill:#FFFFFF;stroke:#263238;stroke-miterlimit:10;" d="M301.373,213.99c-7.642-5.811-55.135-17.51-55.135-17.51   s-48.071,12.172-56.051,17.51c-5.994,4.009-6.128,7.441-5.253,21.012c0.876,13.57,6.566,97.616,6.566,97.616h54.28h54.28   c0,0,5.691-84.046,6.566-97.616C307.501,221.432,307.939,218.983,301.373,213.99z"></path>		<path style="fill:#263238;stroke:#263238;stroke-miterlimit:10;" d="M184.934,235.002c0.876,13.57,6.566,97.616,6.566,97.616   h54.28h0.458V196.48c0,0-48.071,12.172-56.051,17.51C184.192,217.999,184.058,221.432,184.934,235.002z"></path>		<g>			<polygon style="fill:#D1D1D1;stroke:#263238;stroke-miterlimit:10;" points="244.798,292.501 244.798,275.785 194.809,275.785     195.462,292.501    "></polygon>			<polygon style="fill:#D1D1D1;stroke:#263238;stroke-miterlimit:10;" points="244.798,238.098 193.334,238.098 193.988,254.814     244.798,254.814    "></polygon>			<polygon style="fill:#D1D1D1;stroke:#263238;stroke-miterlimit:10;" points="244.798,273.658 244.798,256.941 194.071,256.941     194.725,273.658    "></polygon>			<polygon style="fill:#FFFFFF;stroke:#263238;stroke-miterlimit:10;" points="297.393,294.629 248.141,294.629 248.141,311.345     296.739,311.345    "></polygon>			<path style="fill:#FFFFFF;stroke:#263238;stroke-miterlimit:10;" d="M248.141,235.97h51.547l0.273-6.99c0,0,0-8.51-3.251-10.334    c-2.884-1.618-40.182-3.474-48.57-3.873V235.97z"></path>			<polygon style="fill:#D1D1D1;stroke:#263238;stroke-miterlimit:10;" points="244.798,311.345 244.798,294.629 195.546,294.629     196.2,311.345    "></polygon>			<path style="fill:#D1D1D1;stroke:#263238;stroke-miterlimit:10;" d="M244.798,235.97v-21.197    c-8.388,0.399-45.686,2.255-48.569,3.873c-3.251,1.824-3.251,10.334-3.251,10.334l0.273,6.99H244.798z"></path>			<polygon style="fill:#FFFFFF;stroke:#263238;stroke-miterlimit:10;" points="248.141,275.785 248.141,292.501 297.477,292.501     298.13,275.785    "></polygon>			<polygon style="fill:#FFFFFF;stroke:#263238;stroke-miterlimit:10;" points="248.141,313.473 248.141,335.335 295.824,334.748     296.656,313.473    "></polygon>			<polygon style="fill:#D1D1D1;stroke:#263238;stroke-miterlimit:10;" points="244.798,313.473 196.283,313.473 197.115,334.748     244.798,335.335    "></polygon>			<polygon style="fill:#FFFFFF;stroke:#263238;stroke-miterlimit:10;" points="248.141,256.941 248.141,273.658 298.214,273.658     298.868,256.941    "></polygon>			<polygon style="fill:#FFFFFF;stroke:#263238;stroke-miterlimit:10;" points="248.141,238.098 248.141,254.814 298.951,254.814     299.605,238.098    "></polygon>		</g>		<path style="fill:#FFFFFF;" d="M143.567,236.402c0,0,28.41-4.533,31.09-7.366c2.68-2.833-23.586-5.666-17.689-11.898   c5.896-6.232,76.118-18.13,76.118-18.13s-61.109,15.297-60.037,19.83c1.072,4.533,9.113-3.4,8.577,23.796   c-0.536,27.196-1.072,44.76-1.072,44.76L143.567,236.402z"></path>		<path style="fill:#FFFFFF;" d="M378.13,220.537c0,0-11.898,3.966-18.13,12.465c-6.232,8.499-5.099,16.431-5.099,16.431   L378.13,220.537z"></path>		<path style="fill:#FFFFFF;" d="M353.201,228.469c0,0-25.496,0-34.561-1.133c-9.065-1.133-6.799,5.666-6.799,13.031   s0.567,19.264,0.567,19.264l7.366-10.198l27.762-4.533C347.535,244.9,352.067,230.736,353.201,228.469z"></path>		<g>			<path style="fill:#FFFFFF;stroke:#263238;stroke-miterlimit:10;" d="M428.974,353.192H66.962c-6.648,0-12.038-5.39-12.038-12.038    l0,0c0-6.648,5.39-12.038,12.038-12.038h362.012c6.648,0,12.038,5.389,12.038,12.038l0,0    C441.012,347.802,435.622,353.192,428.974,353.192z"></path>			<path style="fill:#263238;stroke:#263238;stroke-miterlimit:10;" d="M426.761,341.101c-6.412-1.607-38.488-8.206-77.607,0    c-39.12,8.206-40.448,1.091-78.527-3.557c-38.079-4.648-66.496,1.549-98.323,6.714c-31.827,5.165-51.151-2.066-84.115-4.648    c-28.786-2.255-31.412,0.21-31.616,0.871c-0.001,0.052-0.009,0.102-0.009,0.154l0,0c0,5.99,5.344,10.846,11.936,10.846h358.938    c6.407,0,11.621-4.592,11.908-10.349C435.289,341.626,430.166,341.954,426.761,341.101z"></path>		</g>		<rect x="178.367" y="335.244" style="fill:#FFFFFF;stroke:#263238;stroke-miterlimit:10;" width="130.009" height="26.264"></rect>		<path style="fill:#FFFFFF;stroke:#263238;stroke-miterlimit:10;" d="M114.676,370.701L114.676,370.701   c-3.506,0-6.347-2.842-6.347-6.347v-62.159c0-3.505,2.842-6.347,6.347-6.347l0,0c3.506,0,6.347,2.842,6.347,6.347v62.159   C121.023,367.859,118.182,370.701,114.676,370.701z"></path>		<path style="fill:#FFFFFF;stroke:#263238;stroke-miterlimit:10;" d="M379.947,370.701L379.947,370.701   c-3.506,0-6.347-2.842-6.347-6.347v-62.159c0-3.505,2.842-6.347,6.347-6.347h0c3.505,0,6.347,2.842,6.347,6.347v62.159   C386.294,367.859,383.453,370.701,379.947,370.701z"></path>	</g></g><g id="Floor">	<line style="fill:none;stroke:#263238;stroke-miterlimit:10;" x1="11.03" y1="399.564" x2="487.318" y2="399.564"></line></g></svg>