<svg xmlns="http://www.w3.org/2000/svg" xmlns:xlink="http://www.w3.org/1999/xlink" x="0px" y="0px" viewBox="0 0 500 500" style="enable-background:new 0 0 500 500;" xml:space="preserve"><g id="Floor">	<ellipse id="Floor_11_" style="fill:#F5F5F5;" cx="250.048" cy="310.284" rx="234.326" ry="133.588"></ellipse></g><g id="Shadows">	<ellipse id="Shadow_2_" style="fill:#E0E0E0;" cx="375.523" cy="366.026" rx="54.157" ry="31.268"></ellipse>	<path id="Shadow_1_" style="fill:#E0E0E0;" d="M320.523,171.816l116.66,67.496c16.46,9.525,16.45,24.948-0.024,34.449  L217.552,400.194c-82.37,47.701-242.495-64.999-176.497-101.843l219.834-126.574C277.362,162.274,304.061,162.292,320.523,171.816z  "></path></g><g id="Car">	<g id="Car_1_">		<g id="Interiors_2_">			<path id="XMLID_305_" style="fill:#27DEBF;" d="M322.572,98.568c-5.687-1.472-29.912-9.588-58.401,6.412    c-6.747,3.789-20.364,11.703-37.219,21.575c0,0-19.614,20.415-44.501,33.427c-47.09,24.62-78.931,39.324-78.931,39.324    s0.653,0.688,2.951,1.615c14.014,5.652,47.187,36.212,70.03,28.058C203.089,219.487,322.572,98.568,322.572,98.568z"></path>			<path id="XMLID_304_" style="opacity:0.5;fill:#FFFFFF;" d="M123.197,190.596c0,0,55.892-24.492,63.752-29.396    c7.861-4.904,14.648-10.179,17.273-12.7c2.625-2.521,1.965,5.909-11.768,13.589C173.947,172.439,123.197,190.596,123.197,190.596    z"></path>			<path id="XMLID_303_" style="fill:#37474F;" d="M207.443,131.93c0,2.424,0.214,5.764,0.439,10.142    c0.302,5.872-0.544,8.919-3.287,13.438c-1.257,2.07-3.973,5.156-8.995,8.247c-27.66,17.021-92.08,35.549-92.08,35.549    l2.941,1.615l76.906-8.584l33.484-21.994l0.78-36.238l-5.196-2.765L207.443,131.93z"></path>			<g id="XMLID_297_">				<g id="XMLID_298_">					<path id="XMLID_301_" style="fill:#27DEBF;" d="M217.638,134.105l-0.043,1.84c-0.681,1.84-1.854,4.36-3.462,5.331      c-0.898,0.55-1.912,0.796-2.854,0.796c-1.84,0-3.448-0.941-3.535-2.448c-0.029-0.405-0.044-0.811-0.073-1.202      c-0.173-2.868-0.233-4.77-0.233-6.493l5-0.59L217.638,134.105z"></path>					<path id="XMLID_299_" style="opacity:0.3;" d="M217.638,134.105l-0.043,1.84c-0.681,1.84-1.854,4.36-3.462,5.331      c-0.898,0.55-1.912,0.796-2.854,0.796c-1.84,0-3.448-0.941-3.535-2.448c-0.029-0.405-0.044-0.811-0.073-1.202      c-0.173-2.868-0.233-4.77-0.233-6.493l5-0.59L217.638,134.105z"></path>				</g>			</g>			<path id="XMLID_295_" style="fill:#27DEBF;" d="M334.552,109.899c-5.562-13.139-15.744-13.118-32.533-10.732    c-1.947,0.277-44.834,9.245-68.829,18.432c-18.134,6.943-23.472,12.2-24.912,13.031c-3.354,1.936,2.206,5.138,5.884,3.397    c0,2.845,0.075,5.287,0,7.447c-0.453,13.006-2.591,14.977-8.826,21.979c-2.566,2.882-10.251,6.763-14.45,9.124    c-7.835,4.404-7.442,0.948-28.258,8.986c-8.916,3.443-51.772,19.519-56.359,19.473l114.049,71.438l36.005,26.95l165.605-132.249    L334.552,109.899z"></path>			<g id="XMLID_290_">				<polygon id="XMLID_293_" style="fill:#27DEBF;" points="214.354,133.912 227.701,124.929 337.732,184.983 320.193,195.104      320.21,262.953 214.354,201.811     "></polygon>				<polygon id="XMLID_291_" style="opacity:0.25;" points="214.354,133.912 227.701,124.929 340.832,181.01 368.858,184.697      361.614,207.06 320.21,262.953 214.354,201.811     "></polygon>			</g>			<path id="XMLID_289_" style="opacity:0.5;fill:#FFFFFF;" d="M245.143,114.677c-8.816,2.713-14.75,4.393-12.546,5.587    c2.204,1.194,58.786-14.234,69.828-16.268c11.042-2.035,19.6-2.893,5.885-5.948c-12.246-2.728-20.104-1.851-27.395,0.692    c-7.29,2.543-21.062,10.074-21.062,10.074s35.359-8.715,36.687-8.886c1.329-0.171,4.667-0.043-3.641,2.348    C284.593,104.667,253.959,111.965,245.143,114.677z"></path>			<path id="XMLID_287_" style="opacity:0.3;" d="M185.48,237.626c0,0,1.774-36.429,3.118-63.844    c-8.828,4.535-6.896,0.374-25.778,7.665c-7.769,3-41.306,15.591-52.842,18.751c0,0-2.474,0.506-3.517,0.722l66.913,41.893    L185.48,237.626z"></path>		</g>		<g id="Codriver_Seat_4_">			<path id="XMLID_286_" style="fill:#37474F;" d="M246.459,232.626l-13.139-0.257l-19.988-11.45    c-3.262-1.868-8.683-2.13-12.109-0.584l-24.231,10.931l-16.608-0.325v9.694l0.007,0.004c-0.004,1.089,0.769,2.21,2.346,3.12    l43.503,25.117c3.255,1.879,8.26,1.482,11.178-0.886l27.021-21.934c1.352-1.097,1.987-2.422,1.989-3.715    c0.006-0.004,0.03-0.021,0.03-0.021L246.459,232.626z"></path>			<path id="XMLID_285_" style="fill:#455A64;" d="M162.737,234.059l43.503,25.117c3.255,1.879,8.26,1.483,11.178-0.886    l27.022-21.934c2.918-2.369,2.64-5.804-0.622-7.672l-30.486-17.464c-3.262-1.868-8.683-2.13-12.109-0.584l-38.176,17.223    C159.621,229.403,159.482,232.18,162.737,234.059z"></path>			<path id="XMLID_284_" style="fill:#263238;" d="M246.465,232.637v9.678c0,0-0.027,0.027-0.041,0.027    c0,1.293-0.626,2.613-1.987,3.716l-27.019,21.928c-1.416,1.157-3.321,1.824-5.281,2.014v-9.691    c1.96-0.177,3.866-0.871,5.281-2.014l27.019-21.942C245.798,235.25,246.465,233.93,246.465,232.637z"></path>			<path id="XMLID_283_" style="fill:#263238;" d="M250.657,229.765c0.055,1.13-0.313,1.919-0.925,2.3l-11.08,6.398v-0.014    c0.64-0.34,1.008-1.143,0.953-2.3l-2.409-54.133c-0.095-2.26-1.77-4.995-3.716-6.125l-26.107-15.068    c-1.007-0.585-1.987-0.626-2.75-0.218v-0.014l10.998-6.343v0.014c0.776-0.436,1.77-0.422,2.818,0.177l26.093,15.068    c1.96,1.13,3.621,3.866,3.716,6.125L250.657,229.765z"></path>			<path id="XMLID_282_" style="fill:#37474F;" d="M207.376,160.819l26.102,15.07c1.953,1.128,3.617,3.868,3.717,6.121l2.404,54.143    c0.1,2.253-1.402,3.165-3.355,2.038l-37.16-21.454c-1.953-1.128-3.268-3.85-2.937-6.081l7.094-47.84    C203.572,160.586,205.423,159.691,207.376,160.819z"></path>			<path id="XMLID_281_" style="fill:#455A64;" d="M247.104,172.161l-11.052,6.384c-0.68-1.116-1.592-2.083-2.572-2.654    l-26.107-15.068c-1.007-0.585-1.987-0.626-2.75-0.218v-0.014l10.998-6.343v0.014c0.776-0.436,1.77-0.422,2.818,0.177    l26.093,15.068C245.512,170.078,246.424,171.045,247.104,172.161z"></path>			<path id="XMLID_280_" style="fill:#263238;" d="M242.543,164.287c0-3.221,0-8.062,0-13.475c0-9.697-6.188-21.13-13.823-25.538    c-3.503-2.022-6.692-2.195-9.128-0.873l-0.01-0.019l-8.422,4.898l3.737,7.154v11.891c0,2.255,1.583,4.997,3.536,6.125    l8.412,4.857l6.329,12.116l8.331-4.847l0.002-0.001l0.008-0.005l-0.001-0.001C242.15,166.197,242.543,165.409,242.543,164.287z"></path>			<path id="XMLID_279_" style="fill:#455A64;" d="M228.72,144.466l10.837-6.257c-2.532-5.525-6.44-10.397-10.837-12.935    c-3.503-2.022-6.692-2.195-9.128-0.873l-0.01-0.019l-8.422,4.898l3.737,7.154v2.337L228.72,144.466z"></path>			<path id="XMLID_278_" style="fill:#37474F;" d="M234.25,169.113c0-3.221,0-8.062,0-13.474c0-9.697-6.189-21.13-13.823-25.538    c-7.634-4.408-13.823-0.12-13.822,9.577v13.474c0,2.255,1.583,4.998,3.536,6.125l20.573,11.878    C232.667,172.282,234.25,171.368,234.25,169.113z"></path>			<path id="XMLID_277_" style="fill:#27DEBF;" d="M208.164,172.289c-3.177,11.74-4.719,23.95-4.573,36.645    c0.026,2.255,1.519,5.24,3.328,6.586c6.251,4.653,13.171,8.66,20.801,11.981c2.068,0.9,3.863-0.264,3.963-2.517    c0.654-14.672,0.881-28.351,0.124-39.738c-0.15-2.25-1.74-5.225-3.562-6.555c-4.962-3.623-10.029-6.495-15.18-8.77    C211.003,169.01,208.753,170.112,208.164,172.289z"></path>			<path id="XMLID_275_" style="opacity:0.15;" d="M231.399,226.227c0.155-0.366,0.264-0.774,0.285-1.243    c0.654-14.672,0.881-28.351,0.125-39.738c-0.074-1.118-0.505-2.414-1.143-3.599c-1.445-2.055-1.954,15.277-1.944,25.847    c0.01,10.424,0.142,21.017,1.873,19.799c0.069-0.053,0.135-0.108,0.198-0.168C230.967,226.929,231.171,226.623,231.399,226.227z"></path>			<g id="XMLID_268_" style="opacity:0.15;">				<path id="XMLID_274_" d="M206.013,208.044c0,0,0.313,0.186,0.841,0.537c0.522,0.363,1.287,0.832,2.188,1.421     c1.801,1.177,4.213,2.693,6.684,4.104c2.466,1.419,4.994,2.731,6.919,3.694c0.963,0.479,1.759,0.908,2.331,1.174     c0.567,0.279,0.887,0.456,0.887,0.456s-0.358-0.064-0.977-0.207c-0.614-0.156-1.503-0.356-2.537-0.7     c-1.042-0.321-2.23-0.778-3.482-1.318c-0.617-0.289-1.271-0.557-1.901-0.897c-0.641-0.321-1.277-0.674-1.916-1.022     c-1.253-0.741-2.484-1.519-3.584-2.326c-1.099-0.808-2.092-1.604-2.896-2.34c-0.817-0.718-1.443-1.39-1.885-1.837     C206.249,208.321,206.013,208.044,206.013,208.044z"></path>				<path id="XMLID_273_" d="M206.013,201.201c0,0,0.313,0.186,0.841,0.537c0.522,0.363,1.287,0.833,2.188,1.421     c1.801,1.177,4.213,2.693,6.684,4.104c2.466,1.419,4.994,2.731,6.919,3.694c0.963,0.479,1.759,0.908,2.331,1.174     c0.567,0.279,0.887,0.457,0.887,0.457s-0.358-0.064-0.977-0.207c-0.614-0.156-1.503-0.356-2.537-0.7     c-1.042-0.321-2.23-0.778-3.482-1.317c-0.617-0.289-1.271-0.557-1.901-0.898c-0.641-0.32-1.277-0.673-1.916-1.022     c-1.253-0.741-2.484-1.519-3.584-2.326c-1.099-0.808-2.092-1.604-2.896-2.34c-0.817-0.718-1.443-1.39-1.885-1.837     C206.249,201.478,206.013,201.201,206.013,201.201z"></path>				<path id="XMLID_272_" d="M207.427,195.541c0,0,0.292,0.168,0.782,0.487c0.481,0.334,1.197,0.756,2.026,1.296     c1.667,1.074,3.892,2.449,6.195,3.684c2.296,1.248,4.667,2.375,6.456,3.24c0.894,0.442,1.639,0.811,2.16,1.068     c0.523,0.26,0.816,0.427,0.816,0.427s-0.332-0.053-0.904-0.177c-0.568-0.135-1.391-0.302-2.352-0.589     c-0.966-0.272-2.076-0.647-3.246-1.11c-0.578-0.246-1.19-0.471-1.782-0.769c-0.599-0.279-1.198-0.586-1.796-0.894     c-0.584-0.335-1.17-0.665-1.731-1.018c-0.571-0.336-1.095-0.728-1.616-1.081c-1.019-0.742-1.936-1.479-2.673-2.164     c-0.749-0.671-1.322-1.293-1.723-1.712C207.642,195.801,207.427,195.541,207.427,195.541z"></path>				<path id="XMLID_271_" d="M207.998,189.157c0,0,0.284,0.161,0.758,0.467c0.466,0.322,1.16,0.727,1.962,1.247     c1.613,1.033,3.762,2.355,5.996,3.522c2.226,1.179,4.535,2.234,6.269,3.064c0.865,0.426,1.586,0.781,2.091,1.029     c0.505,0.252,0.788,0.415,0.788,0.415s-0.322-0.048-0.876-0.165c-0.549-0.128-1.347-0.281-2.278-0.547     c-0.935-0.255-2.014-0.597-3.149-1.031c-0.563-0.228-1.156-0.439-1.732-0.718c-0.583-0.262-1.166-0.552-1.748-0.844     c-0.568-0.318-1.139-0.633-1.684-0.971c-0.555-0.321-1.063-0.7-1.568-1.04c-0.99-0.713-1.871-1.433-2.583-2.096     c-0.721-0.652-1.272-1.256-1.658-1.663C208.204,189.409,207.998,189.157,207.998,189.157z"></path>				<path id="XMLID_270_" d="M208.972,183.07c0,0,0.262,0.157,0.72,0.432c0.447,0.282,1.085,0.685,1.85,1.168     c1.523,0.966,3.54,2.204,5.655,3.255c2.108,1.064,4.311,1.999,5.95,2.772c1.645,0.757,2.714,1.361,2.714,1.361     s-1.215-0.17-2.978-0.625c-1.762-0.449-4.094-1.19-6.299-2.293c-0.543-0.29-1.085-0.58-1.604-0.894     c-0.528-0.297-1.01-0.653-1.485-0.975c-0.94-0.666-1.759-1.359-2.429-1.984C209.721,184.036,208.972,183.07,208.972,183.07z"></path>				<path id="XMLID_269_" d="M211.237,177.207c0,0,0.937,0.534,2.26,1.369c1.331,0.834,3.092,1.889,4.921,2.834     c1.824,0.952,3.703,1.842,5.111,2.553c1.41,0.701,2.333,1.252,2.333,1.252s-1.069-0.117-2.609-0.521     c-1.542-0.392-3.559-1.094-5.465-2.078c-0.469-0.261-0.937-0.52-1.387-0.798c-0.456-0.266-0.876-0.577-1.286-0.866     c-0.817-0.587-1.522-1.207-2.096-1.763C211.865,178.076,211.237,177.207,211.237,177.207z"></path>			</g>			<path id="XMLID_267_" style="fill:#27DEBF;" d="M197.021,221.535c-6.86,1.229-13.647,4.73-20.383,9.788    c-1.804,1.354-1.791,3.683,0.015,5.033c7.53,5.632,16.277,10.636,26.2,15.034c2.062,0.914,5.416,0.849,7.414-0.197    c5.925-3.101,11.201-6.778,15.661-11.177c1.606-1.584,1.335-4.079-0.496-5.395c-6.913-4.969-13.776-9.148-20.556-12.049    C202.802,221.685,199.241,221.138,197.021,221.535z"></path>			<g id="XMLID_262_" style="opacity:0.2;">				<path id="XMLID_266_" d="M180.309,233.848c0,0,0.429,0.113,1.166,0.341c0.731,0.238,1.794,0.562,3.03,1.035     c2.483,0.923,5.714,2.378,8.795,4.122c3.079,1.745,5.992,3.772,8.039,5.459c2.05,1.686,3.284,2.956,3.284,2.956     s-1.495-0.928-3.738-2.32c-2.23-1.393-5.217-3.198-8.256-4.912c-3.032-1.727-6.117-3.366-8.444-4.596     c-1.163-0.621-2.133-1.139-2.811-1.501C180.692,234.071,180.309,233.848,180.309,233.848z"></path>				<path id="XMLID_265_" d="M186.846,230.083c0,0,0.429,0.113,1.166,0.341c0.731,0.238,1.794,0.562,3.03,1.035     c2.483,0.923,5.714,2.378,8.795,4.122c3.079,1.745,5.992,3.772,8.039,5.459c2.05,1.686,3.284,2.956,3.284,2.956     s-1.495-0.928-3.738-2.32c-2.23-1.392-5.217-3.198-8.256-4.912c-3.032-1.727-6.118-3.366-8.444-4.596     c-1.163-0.621-2.132-1.139-2.811-1.501C187.229,230.307,186.846,230.083,186.846,230.083z"></path>				<path id="XMLID_264_" d="M192.466,226.891c0,0,0.429,0.113,1.166,0.342c0.731,0.238,1.794,0.562,3.03,1.035     c2.483,0.923,5.715,2.378,8.795,4.122c3.079,1.745,5.992,3.772,8.039,5.459c2.05,1.686,3.284,2.956,3.284,2.956     s-1.495-0.928-3.738-2.32c-2.23-1.392-5.217-3.198-8.256-4.912c-3.032-1.727-6.118-3.366-8.444-4.596     c-1.163-0.621-2.132-1.139-2.811-1.501C192.849,227.115,192.466,226.891,192.466,226.891z"></path>				<path id="XMLID_263_" d="M198.591,224.273c0,0,0.395,0.099,1.074,0.303c0.672,0.214,1.652,0.502,2.789,0.931     c2.286,0.834,5.256,2.162,8.085,3.763c2.827,1.603,5.497,3.472,7.368,5.032c1.874,1.559,2.995,2.738,2.995,2.738     s-0.356-0.2-0.956-0.575c-0.602-0.369-1.462-0.895-2.493-1.527c-2.054-1.266-4.797-2.913-7.585-4.485     c-2.78-1.584-5.606-3.095-7.734-4.237c-1.064-0.578-1.95-1.059-2.57-1.397C198.94,224.482,198.591,224.273,198.591,224.273z"></path>			</g>		</g>		<g id="Codriver_Seat_1_">			<path id="XMLID_261_" style="fill:#37474F;" d="M306.441,267.797l-13.139-0.257l-19.988-11.45    c-3.262-1.868-8.683-2.13-12.109-0.584l-24.231,10.931l-16.608-0.325v9.694l0.007,0.004c-0.004,1.089,0.769,2.21,2.346,3.12    l43.503,25.117c3.255,1.879,8.26,1.482,11.178-0.886l27.022-21.934c1.352-1.097,1.987-2.422,1.989-3.715    c0.006-0.004,0.03-0.021,0.03-0.021L306.441,267.797z"></path>			<path id="XMLID_260_" style="fill:#455A64;" d="M222.72,269.23l43.503,25.116c3.255,1.879,8.26,1.483,11.178-0.886l27.021-21.934    c2.918-2.369,2.64-5.804-0.622-7.672l-30.486-17.464c-3.262-1.868-8.683-2.13-12.109-0.584l-38.176,17.223    C219.603,264.574,219.465,267.351,222.72,269.23z"></path>			<path id="XMLID_259_" style="fill:#263238;" d="M306.448,267.808v9.678c0,0-0.027,0.027-0.041,0.027    c0,1.293-0.626,2.613-1.987,3.716L277.4,303.157c-1.416,1.157-3.321,1.824-5.281,2.014v-9.691    c1.96-0.177,3.866-0.871,5.281-2.014l27.019-21.942C305.78,270.422,306.448,269.101,306.448,267.808z"></path>			<path id="XMLID_258_" style="fill:#263238;" d="M310.64,264.936c0.055,1.13-0.313,1.919-0.925,2.3l-11.08,6.398v-0.014    c0.64-0.34,1.008-1.143,0.953-2.3l-2.409-54.133c-0.095-2.26-1.769-4.996-3.716-6.125l-26.107-15.068    c-1.007-0.585-1.987-0.626-2.75-0.218v-0.014l10.998-6.343v0.014c0.776-0.436,1.77-0.422,2.818,0.177l26.093,15.068    c1.96,1.13,3.621,3.866,3.716,6.125L310.64,264.936z"></path>			<path id="XMLID_257_" style="fill:#37474F;" d="M267.359,195.99l26.102,15.07c1.953,1.128,3.617,3.868,3.717,6.121l2.404,54.143    c0.1,2.253-1.402,3.165-3.355,2.038l-37.16-21.454c-1.953-1.128-3.268-3.85-2.937-6.081l7.094-47.839    C263.554,195.757,265.406,194.863,267.359,195.99z"></path>			<path id="XMLID_256_" style="fill:#455A64;" d="M307.087,207.332l-11.052,6.384c-0.681-1.116-1.592-2.083-2.573-2.654    l-26.107-15.068c-1.007-0.585-1.987-0.626-2.75-0.218v-0.014l10.998-6.343v0.014c0.776-0.436,1.77-0.422,2.818,0.177    l26.093,15.068C305.495,205.249,306.406,206.216,307.087,207.332z"></path>			<path id="XMLID_255_" style="fill:#263238;" d="M302.526,199.458c0-3.221,0-8.062,0-13.475c0-9.697-6.189-21.13-13.823-25.538    c-3.503-2.023-6.692-2.195-9.128-0.874l-0.01-0.019l-8.422,4.898l3.737,7.154v11.891c0,2.255,1.583,4.998,3.536,6.125    l8.412,4.857l6.329,12.116l8.331-4.847l0.002-0.001l0.008-0.005l-0.001-0.001C302.133,201.369,302.526,200.58,302.526,199.458z"></path>			<path id="XMLID_254_" style="fill:#455A64;" d="M288.703,179.638l10.837-6.257c-2.532-5.525-6.44-10.397-10.837-12.935    c-3.503-2.023-6.692-2.195-9.128-0.874l-0.01-0.019l-8.422,4.898l3.737,7.154v2.337L288.703,179.638z"></path>			<path id="XMLID_253_" style="fill:#37474F;" d="M294.233,204.285c0-3.221,0-8.062,0-13.475c0-9.697-6.189-21.13-13.823-25.538    c-7.634-4.408-13.823-0.12-13.823,9.577v13.474c0,2.255,1.583,4.997,3.536,6.125l20.573,11.878    C292.649,207.453,294.233,206.54,294.233,204.285z"></path>			<path id="XMLID_252_" style="fill:#27DEBF;" d="M268.147,207.46c-3.177,11.74-4.719,23.95-4.573,36.645    c0.026,2.255,1.519,5.24,3.328,6.586c6.25,4.653,13.171,8.66,20.801,11.981c2.068,0.9,3.863-0.264,3.963-2.517    c0.654-14.672,0.881-28.35,0.124-39.738c-0.15-2.25-1.74-5.225-3.562-6.555c-4.962-3.623-10.029-6.495-15.18-8.77    C270.986,204.181,268.736,205.283,268.147,207.46z"></path>			<path id="XMLID_250_" style="opacity:0.15;" d="M291.381,261.398c0.155-0.366,0.264-0.774,0.285-1.243    c0.654-14.672,0.881-28.35,0.124-39.738c-0.074-1.118-0.505-2.414-1.142-3.599c-1.445-2.055-1.954,15.277-1.944,25.847    c0.01,10.424,0.142,21.017,1.873,19.799c0.069-0.053,0.135-0.108,0.198-0.168C290.949,262.101,291.154,261.794,291.381,261.398z"></path>			<g id="XMLID_243_" style="opacity:0.15;">				<path id="XMLID_249_" d="M265.996,243.215c0,0,0.313,0.186,0.841,0.537c0.522,0.362,1.287,0.832,2.188,1.421     c1.801,1.177,4.213,2.693,6.684,4.104c2.466,1.419,4.994,2.731,6.919,3.694c0.962,0.479,1.759,0.908,2.331,1.174     c0.567,0.279,0.887,0.457,0.887,0.457s-0.358-0.064-0.977-0.207c-0.614-0.156-1.503-0.357-2.537-0.7     c-1.042-0.321-2.23-0.778-3.482-1.317c-0.616-0.289-1.271-0.557-1.901-0.898c-0.641-0.321-1.277-0.673-1.916-1.022     c-1.253-0.741-2.484-1.519-3.584-2.326c-1.099-0.808-2.092-1.604-2.896-2.34c-0.817-0.718-1.443-1.39-1.885-1.837     C266.232,243.492,265.996,243.215,265.996,243.215z"></path>				<path id="XMLID_248_" d="M265.996,236.372c0,0,0.313,0.186,0.841,0.537c0.522,0.363,1.287,0.832,2.188,1.421     c1.801,1.176,4.213,2.693,6.684,4.104c2.466,1.419,4.994,2.731,6.919,3.694c0.962,0.479,1.759,0.908,2.331,1.174     c0.567,0.279,0.887,0.456,0.887,0.456s-0.358-0.064-0.977-0.207c-0.614-0.156-1.503-0.356-2.537-0.7     c-1.042-0.321-2.23-0.778-3.482-1.318c-0.616-0.289-1.271-0.557-1.901-0.898c-0.641-0.32-1.277-0.673-1.916-1.022     c-1.253-0.741-2.484-1.519-3.584-2.326c-1.099-0.808-2.092-1.604-2.896-2.34c-0.817-0.718-1.443-1.39-1.885-1.837     C266.232,236.65,265.996,236.372,265.996,236.372z"></path>				<path id="XMLID_247_" d="M267.409,230.713c0,0,0.292,0.168,0.782,0.487c0.481,0.334,1.197,0.756,2.026,1.296     c1.667,1.074,3.892,2.449,6.195,3.684c2.296,1.247,4.667,2.374,6.456,3.24c0.894,0.442,1.639,0.811,2.16,1.068     c0.523,0.26,0.816,0.427,0.816,0.427s-0.332-0.053-0.904-0.177c-0.568-0.135-1.391-0.302-2.352-0.589     c-0.966-0.272-2.077-0.647-3.246-1.11c-0.578-0.246-1.19-0.471-1.781-0.769c-0.6-0.279-1.198-0.586-1.796-0.894     c-0.584-0.335-1.17-0.665-1.731-1.018c-0.571-0.336-1.095-0.728-1.616-1.081c-1.019-0.742-1.936-1.479-2.673-2.164     c-0.749-0.671-1.322-1.293-1.723-1.712C267.624,230.972,267.409,230.713,267.409,230.713z"></path>				<path id="XMLID_246_" d="M267.98,224.328c0,0,0.283,0.161,0.758,0.468c0.466,0.322,1.16,0.727,1.962,1.247     c1.613,1.033,3.762,2.355,5.996,3.522c2.226,1.179,4.535,2.234,6.269,3.064c0.865,0.426,1.586,0.781,2.091,1.029     c0.505,0.252,0.788,0.415,0.788,0.415s-0.322-0.048-0.876-0.165c-0.549-0.128-1.346-0.281-2.278-0.547     c-0.935-0.255-2.014-0.597-3.149-1.03c-0.563-0.228-1.156-0.439-1.733-0.718c-0.583-0.262-1.166-0.552-1.748-0.844     c-0.569-0.318-1.139-0.633-1.684-0.971c-0.555-0.321-1.063-0.7-1.568-1.04c-0.99-0.713-1.871-1.433-2.583-2.096     c-0.721-0.652-1.272-1.256-1.658-1.663C268.187,224.581,267.98,224.328,267.98,224.328z"></path>				<path id="XMLID_245_" d="M268.955,218.241c0,0,0.262,0.157,0.72,0.432c0.447,0.282,1.085,0.684,1.85,1.168     c1.523,0.966,3.54,2.204,5.655,3.255c2.108,1.064,4.31,1.999,5.95,2.772c1.645,0.757,2.714,1.361,2.714,1.361     s-1.215-0.17-2.978-0.625c-1.762-0.449-4.093-1.19-6.299-2.293c-0.543-0.29-1.085-0.58-1.604-0.894     c-0.528-0.297-1.01-0.653-1.485-0.975c-0.94-0.666-1.759-1.359-2.429-1.984C269.703,219.207,268.955,218.241,268.955,218.241z"></path>				<path id="XMLID_244_" d="M271.22,212.378c0,0,0.937,0.534,2.26,1.369c1.331,0.834,3.092,1.889,4.921,2.834     c1.824,0.952,3.703,1.842,5.111,2.553c1.41,0.701,2.333,1.253,2.333,1.253s-1.069-0.117-2.609-0.521     c-1.542-0.392-3.559-1.094-5.465-2.078c-0.469-0.261-0.937-0.52-1.387-0.798c-0.456-0.266-0.876-0.576-1.286-0.866     c-0.817-0.587-1.522-1.207-2.096-1.763C271.848,213.247,271.22,212.378,271.22,212.378z"></path>			</g>			<path id="XMLID_242_" style="fill:#27DEBF;" d="M257.004,256.707c-6.86,1.229-13.647,4.73-20.384,9.788    c-1.803,1.354-1.791,3.683,0.015,5.033c7.53,5.632,16.277,10.636,26.2,15.034c2.062,0.914,5.416,0.849,7.414-0.197    c5.925-3.101,11.201-6.778,15.661-11.178c1.606-1.584,1.335-4.079-0.496-5.395c-6.913-4.969-13.776-9.148-20.556-12.049    C262.785,256.856,259.224,256.309,257.004,256.707z"></path>			<g id="XMLID_237_" style="opacity:0.2;">				<path id="XMLID_241_" d="M240.291,269.019c0,0,0.429,0.113,1.166,0.341c0.731,0.238,1.794,0.562,3.03,1.036     c2.483,0.923,5.714,2.378,8.795,4.122c3.079,1.745,5.992,3.772,8.039,5.459c2.05,1.686,3.284,2.956,3.284,2.956     s-1.495-0.928-3.738-2.32c-2.23-1.392-5.217-3.198-8.256-4.912c-3.032-1.727-6.118-3.366-8.444-4.596     c-1.163-0.621-2.133-1.139-2.811-1.501C240.674,269.242,240.291,269.019,240.291,269.019z"></path>				<path id="XMLID_240_" d="M246.829,265.254c0,0,0.429,0.113,1.166,0.341c0.731,0.238,1.794,0.562,3.03,1.035     c2.483,0.923,5.714,2.378,8.795,4.122c3.079,1.745,5.992,3.772,8.039,5.459c2.051,1.686,3.284,2.956,3.284,2.956     s-1.496-0.928-3.738-2.32c-2.23-1.392-5.217-3.198-8.256-4.912c-3.032-1.727-6.118-3.366-8.444-4.596     c-1.163-0.621-2.132-1.139-2.811-1.501C247.212,265.478,246.829,265.254,246.829,265.254z"></path>				<path id="XMLID_239_" d="M252.448,262.062c0,0,0.429,0.113,1.166,0.341c0.731,0.238,1.794,0.562,3.03,1.035     c2.483,0.923,5.714,2.378,8.795,4.122c3.079,1.746,5.992,3.772,8.039,5.459c2.05,1.686,3.284,2.956,3.284,2.956     s-1.496-0.928-3.738-2.32c-2.23-1.392-5.217-3.198-8.256-4.912c-3.032-1.727-6.118-3.366-8.444-4.596     c-1.163-0.621-2.132-1.139-2.811-1.501C252.831,262.286,252.448,262.062,252.448,262.062z"></path>				<path id="XMLID_238_" d="M258.574,259.444c0,0,0.395,0.099,1.074,0.303c0.672,0.214,1.652,0.502,2.789,0.931     c2.285,0.834,5.256,2.162,8.085,3.763c2.827,1.603,5.497,3.472,7.368,5.032c1.874,1.559,2.995,2.738,2.995,2.738     s-0.356-0.2-0.956-0.575c-0.602-0.369-1.462-0.895-2.493-1.527c-2.054-1.265-4.798-2.913-7.585-4.485     c-2.78-1.585-5.605-3.095-7.734-4.237c-1.064-0.578-1.95-1.059-2.57-1.397C258.923,259.654,258.574,259.444,258.574,259.444z"></path>			</g>		</g>		<g id="Back_Car_2_">			<g id="XMLID_232_">				<polygon id="XMLID_235_" style="fill:#27DEBF;" points="439.327,230.188 394.435,204.266 419.375,189.867 443.651,205.198          "></polygon>				<polygon id="XMLID_233_" style="opacity:0.35;" points="439.327,230.188 394.435,204.266 419.375,189.867 443.651,205.198          "></polygon>			</g>			<g id="XMLID_224_">				<path id="XMLID_231_" style="fill:#37474F;" d="M420.403,224.035l6.447-12.806l-15.34-8.88l-0.001,0.003     c-4.879-2.806-11.376-2.488-18.51,1.632c-15.15,8.748-27.432,31.31-27.434,50.395c-0.001,9.994,3.371,17.045,8.755,20.246     l-0.004,0.008l0.216,0.125c0.011,0.006,0.021,0.012,0.032,0.018l15.726,9.08l6.8-13.508     C409.961,260.489,419.903,241.059,420.403,224.035z"></path>				<path id="XMLID_230_" style="fill:#263238;" d="M420.403,224.035l6.447-12.806l-15.34-8.88l-0.001,0.003     c-4.879-2.806-11.376-2.488-18.51,1.632c-15.15,8.748-27.432,31.31-27.434,50.395c-0.001,9.994,3.371,17.045,8.755,20.246     l-0.004,0.008l0.216,0.125c0.011,0.006,0.021,0.012,0.032,0.018l15.726,9.08l6.8-13.508     C409.961,260.489,419.903,241.059,420.403,224.035z"></path>				<path id="XMLID_229_" style="fill:#37474F;" d="M436.393,231.912c0,16.455-9.136,35.5-21.366,46.036     c-0.024,0.012-0.037,0.037-0.049,0.049c-1.94,1.658-3.954,3.119-6.017,4.31c-15.153,8.755-27.445,0.368-27.432-18.714     c0-14.416,7.012-30.834,16.97-41.763c0.025-0.025,0.061-0.049,0.086-0.086c3.205-3.5,6.705-6.434,10.376-8.546     C424.113,204.455,436.393,212.829,436.393,231.912z"></path>				<path id="XMLID_228_" style="fill:#455A64;" d="M408.96,224.716c9.642-5.568,17.458,0.234,17.458,12.958     c0,12.724-7.816,27.551-17.458,33.118c-9.642,5.567-17.458-0.235-17.458-12.958C391.502,245.111,399.319,230.283,408.96,224.716     z"></path>				<path id="XMLID_227_" style="fill:#FAFAFA;" d="M416.821,244.173c-0.615,6.331-4.637,13.072-8.973,15.044     c-1.91,0.863-3.556,0.667-4.752-0.362c-1.54-1.297-2.342-3.965-1.997-7.522c0.615-6.331,4.625-13.073,8.974-15.044     c1.175-0.54,2.261-0.669,3.189-0.443c0,0,0.013-0.011,0.012,0.001C415.782,236.447,417.268,239.565,416.821,244.173z"></path>				<path id="XMLID_226_" style="fill:#E0E0E0;" d="M415.258,243.367c-0.614,6.331-4.637,13.072-8.973,15.044     c-1.174,0.528-2.249,0.67-3.189,0.443c-1.54-1.297-2.342-3.965-1.997-7.522c0.615-6.331,4.625-13.073,8.974-15.044     c1.175-0.54,2.261-0.669,3.189-0.443c0,0,0.013-0.011,0.012,0.001C414.8,237.154,415.602,239.823,415.258,243.367z"></path>				<path id="XMLID_225_" style="fill:#455A64;" d="M436.393,231.912c0,16.455-9.136,35.5-21.366,46.036     c7.245-7.884,14.748-21.084,17.4-33.67c2.321-11.002,1.449-26.794-7.994-30.785c-9.369-3.966-21.906,4.421-25.848,8.252     c3.205-3.5,6.705-6.434,10.376-8.546C424.113,204.455,436.393,212.829,436.393,231.912z"></path>			</g>			<path id="XMLID_222_" style="fill:#27DEBF;" d="M443.84,167.956c-5.562-13.139-28.755-26.785-38.649-21.831    c-3.085,1.536-11.846,6.843-22.884,13.202c0,0-36.308,21.964-39.661,23.9c0,0,17.358-0.293,21.293,1.136    c3.935,1.429,3.164,4.438,2.899,5.558l-1.982,6.435c-4.51,22.007-38.706,30.973-45.978,39.138    c-2.566,2.882-4.673,3.912-8.85,6.313c-4.176,2.401-30.143,16.912-33.851,19.056c-6.667,3.851-17.472,8.759-17.472,8.759    l0.001,64.57l114.084-65.408c0-1.739,0.087-3.506,0.275-5.302c2.028-20.99,17.422-45.346,33.922-54.864    c17.905-10.343,32.42-0.681,32.42,21.585l2.899-1.674C452.618,222.306,449.388,181.08,443.84,167.956z"></path>			<path d="M380.573,183.5c-7.013,0-7.297,3.648-9.586,10.873c-1.798,5.674-4.573,10.712-1.188,9.049    c3.384-1.663,15.052-14.139,17.218-16.296C391.502,182.66,383.774,183.5,380.573,183.5z"></path>			<path id="XMLID_220_" style="fill:#27DEBF;" d="M414.694,145.591c-3.694-0.826-7.055-0.768-9.561,0.493    c-3.086,1.536-11.85,6.852-22.888,13.211c0,0-6.286,3.621-14.863,8.561l-79.206-45.627c0,0,30.72-15.679,41.629-19.894    C340.713,98.106,411.608,137.421,414.694,145.591z"></path>			<g id="XMLID_217_">				<path id="XMLID_219_" style="opacity:0.5;fill:#FFFFFF;" d="M260.788,273.775l61.146-35.025c0,0,1.877,1.156,1.841,4.064     L260.788,273.775z"></path>				<path style="fill:#37474F;" d="M312.882,252.699c-0.248,0.144-0.559-0.036-0.559-0.323l0-1.747c0-1.321,1.978-3.534,4.417-4.943     l3.598-2.077c2.44-1.409,4.418-1.479,4.418-0.158v1.426c0,0.598-0.319,1.15-0.837,1.449L312.882,252.699z"></path>				<path id="XMLID_218_" style="opacity:0.5;fill:#FFFFFF;" d="M356.219,218.572c-3.141,2.35-21.005,13.016-23.502,14.588     c0,0,2.494,2.361,3.122,5.077c0,0,63.476-36.638,78.966-50.359c15.49-13.721,23.991-26.5,12.043-33.148     c-3.642-2.026-7.043-4.739-11.425-3.101c-0.316,0.118-0.632,0.259-0.878,0.49c-0.43,0.404-0.581,1.014-0.729,1.586     c-3.52,13.642-14.685,23.86-23.7,34.176C381.278,197.996,367.308,210.274,356.219,218.572z"></path>			</g>			<g id="XMLID_206_">				<path id="XMLID_215_" style="opacity:0.15;" d="M239.527,121.321c0,0,75.213-21.181,80.552-18.042     c5.339,3.139-65.683,34.524-65.683,34.524L239.527,121.321z"></path>				<path id="XMLID_213_" style="opacity:0.15;" d="M267.974,317.753c-2.69,1.43-3.233-4.344-4.772-15.576     c-1.539-11.231-1.385-30.045-1.385-30.045c-1.846,8.418-1.077,28.814,0,41.884c1.077,13.07,3.538,11.854,6.157,9.911     l60.584-37.194L267.974,317.753z"></path>				<path id="XMLID_211_" style="opacity:0.15;" d="M325.734,236.038c0,0,3.492,4.083,3.492,12.952     c0,10.663,0.112,35.99,0.112,35.99s1.974-28.19,3.175-37.036c1.202-8.846-3.294-13.83-3.294-13.83L325.734,236.038z"></path>				<path id="XMLID_209_" style="opacity:0.15;" d="M394.435,215.653c0,0-1.555-7.602-3.748-10.455     c-2.193-2.853-13.807-4.266-13.807-4.266s9.111,3.14,11.632,5.827C391.032,209.447,394.435,215.653,394.435,215.653z"></path>				<path id="XMLID_207_" style="opacity:0.15;" d="M428.318,205.198c0,0,11.582-6.626,14.073-10.984     c2.491-4.359,3.539-18.904,3.539-18.904s0.999,16.662-1.893,20.647C441.146,199.942,428.318,205.198,428.318,205.198z"></path>			</g>			<g>				<path style="fill:#27DEBF;" d="M400.45,171.135c-9.823-9.398-21.816-16.195-33.321-23.305     c-11.395-7.042-22.869-13.96-34.452-20.69c-9.533-5.539-19.119-11.051-28.996-15.959c-2.64-1.311-5.329-2.643-8.115-3.646     c-0.368-0.142-0.721-0.27-1.048-0.377c-0.042-0.014-0.083-0.032-0.125-0.045c-1.373-0.436-3.095-0.931-5.087-1.448     c-10.182-2.643-27.553-5.871-42.812-4.913c-13.306,0.835-80.461,32.944-87.882,41.533c-6.39,7.395-8.199,10.102-9.752,12.192     c0,0,9.162-7.072,13.648-5.437c3.618,1.319,29.539,24.712,47.043,33.949c20.843,10.999,49.628,21.896,56.789,25.141     c7.162,3.245,2.71,11.895,2.71,11.895c3.309-5.246,4.935-8.207,8.994-11.623c7.478-6.294,37.525-21.926,37.982-22.157     c4.48-2.431,10.033-3.576,13.409-3.71l31.304,0.966l35.736-7.611c1.906-0.138,3.756-0.555,5.344-1.588     C402.28,173.166,401.336,171.982,400.45,171.135z"></path>				<path style="opacity:0.5;fill:#FFFFFF;" d="M274.437,210.893c0,0,11.553-9.7,29.119-19.982     c17.566-10.281,22.152-12.155,40.303-12.23c13.841-0.057,27.719,0.371,41.568,0.497c0.628,0.006,1.29,0.003,1.835-0.308     c0.546-0.311,0.903-1.046,0.586-1.588c-0.211-0.361-0.637-0.526-1.032-0.665c-9.555-3.377-24.595-4.544-33.654-9.139     c-7.781-3.946-15.375-8.272-22.951-12.595c-20.839-11.889-40.478-23.168-61.161-36.938     c-19.285-12.84-22.117-16.839-29.985-15.477c-21.947,6.884-73.973,32.317-80.454,39.818c-0.027,0.031-0.05,0.059-0.077,0.09     l0.077,3.772c0,0,1.131,1.008,3.131,2.714c0.265,0.04,0.525,0.091,0.765,0.179c3.279,1.195,24.875,20.52,41.923,31.007     c1.704,1.014,3.413,2,5.12,2.942c17.965,9.48,41.817,18.88,52.651,23.374C269.583,209.181,274.437,210.893,274.437,210.893z"></path>			</g>			<g>				<path style="opacity:0.15;" d="M387.918,175.528c-5.54-0.554-11.01-1.539-16.474-2.677c-6.165-1.285-12.617-2.499-18.279-5.374     c-7.783-3.95-15.375-8.272-22.956-12.593c-20.833-11.892-40.477-23.169-61.161-36.941     c-19.276-12.833-22.116-16.837-29.978-15.472c3.181-1.002,5.742-1.614,7.424-1.719c18.242-1.147,39.51,3.695,47.899,6.36     c3.212,1.022,6.278,2.572,9.288,4.067c9.877,4.908,19.464,10.42,28.996,15.959c11.582,6.73,23.056,13.648,34.452,20.69     c11.506,7.11,23.498,13.906,33.321,23.305c0.886,0.847,1.83,2.032,1.369,3.167c-2.641,1.718-6.006,1.749-9.152,1.588     C391.077,175.809,389.495,175.686,387.918,175.528z"></path>				<g>					<path style="fill:#455A64;" d="M367.168,153.392c-24.323-14.044-41.638-24.756-60.52-35.661      c-6.878-3.972-13.358-6.919-22.437-8.344c-4.719-0.74-12.564-2.127-16.799-2.062c-7.191,0.275-2.995,4.36,11.39,12.66      c14.372,8.311,53.66,32.201,62.013,37.021c8.364,4.835,20.955,11.357,37.477,14.041      C394.812,173.734,407.207,176.506,367.168,153.392z"></path>				</g>			</g>			<g>				<g>					<path style="fill:#263238;" d="M368.683,183.21c-4.743-2.943-23.797-3.169-32.559-3.572c-8.513-0.392-14.373,0.925-20.099,3.96      c-0.382,0.202-0.773,0.409-1.16,0.639c-4.616,2.743-29.138,17.21-36.341,21.242c-7.202,4.032-8.302,9.114-11.809,16.389      c-3.508,7.275-23.368,48.136-24.443,53.771c-1.075,5.636,28.744-9.662,28.744-9.662s33.698-19.464,43.848-25.324      c1.714-0.99,2.184-1.286,4.254-2.588c2.07-1.302,28.952-17.738,39.193-26.15c5.103-4.192,6.549-7.151,8.51-14.535      C369.151,188.611,371.651,185.051,368.683,183.21z M316.064,236.052c-3.355,2.083-12.028,6.462-25.071,14.199      c-16.75,9.938-41.483,21.411-41.653,21.478c5.172-12.77,19.806-43.46,22.513-50.003c2.707-6.543,5.343-11.053,8.863-13.024      c7.762-4.345,31.8-17.854,36.44-20.61l0.03-0.018c1.027-0.609,2.331,0.061,2.439,1.25c0.053,0.59,0.088,1.298,0.088,2.145      v37.91C319.712,231.58,319.419,233.969,316.064,236.052z M365.97,186.877c-0.832,3.561-4.062,18.315-8.456,21.881      c-3.418,2.774-22.793,14.843-29.932,19.566c-2.817,1.864-3.4-0.634-3.4-3.699c0-7.746,0.014-24.004,0.014-33.158      c-0.165-4.847,1.069-6.764,5.031-7.446C334.119,183.18,367.016,182.398,365.97,186.877z"></path>				</g>				<path style="opacity:0.5;" d="M316.064,236.052c-3.355,2.083-12.028,6.462-25.071,14.199     c-16.75,9.938-41.483,21.411-41.653,21.478c5.172-12.77,19.806-43.46,22.513-50.003c2.707-6.543,5.343-11.053,8.863-13.024     c7.762-4.345,31.8-17.854,36.44-20.61l0.03-0.018c1.027-0.609,2.331,0.061,2.439,1.25c0.053,0.59,0.088,1.298,0.088,2.145v37.91     C319.712,231.58,319.419,233.969,316.064,236.052z"></path>				<path style="opacity:0.5;" d="M365.97,186.877c-0.832,3.561-4.062,18.315-8.456,21.881     c-3.418,2.774-22.793,14.843-29.932,19.566c-2.817,1.864-3.4-0.634-3.4-3.699c0-7.746,0.014-24.004,0.014-33.158     c-0.165-4.847,1.069-6.764,5.031-7.446C334.119,183.18,367.016,182.398,365.97,186.877z"></path>			</g>		</g>		<g id="Front_Car_2_">			<g id="XMLID_203_">				<path id="XMLID_205_" style="fill:#455A64;" d="M236.705,273.171c-11.343-8.445-36.419-26.553-62.566-41.807     c-32.869-19.18-67.606-30.428-67.678-30.443c0.941,3.549,6.547,9.191,14.095,15.319c5.345,4.36,11.371,8.808,18.339,13.487     c16.456,11.488,32.043,19.411,37.693,22.787c28.291,15.341,57.08,27.262,61.831,21.613     C238.419,274.127,236.72,273.185,236.705,273.171z"></path>				<path id="XMLID_204_" style="fill:#37474F;" d="M238.419,274.127c-1.347-0.84-46.085-28.421-66.756-40.851     c-19.686-11.835-60.267-30.124-65.192-32.355c4.172,1.318,34.8,11.263,67.669,30.443     C200.287,246.618,227.076,265.681,238.419,274.127z"></path>			</g>			<g id="XMLID_194_">				<path id="XMLID_201_" style="fill:#27DEBF;" d="M113.358,188.859L113.358,188.859l-1.007,4.2     c-2.321,4.347-7.454,9.836-9.296,9.382c-1.646-0.405-2.652-2.8-3.168-5.759v-0.037c-0.246-1.351-0.381-2.824-0.43-4.285     c-0.16-4.654,1.915-15.509,8.375-18.395c1.473-0.651,2.8-0.135,3.831,0.859c0.86,0.835,1.523,1.989,1.866,3.082     C114.61,181.172,113.506,188.687,113.358,188.859z"></path>				<path id="XMLID_199_" style="opacity:0.3;" d="M113.358,188.859L113.358,188.859c-0.341,1.737-1.007,4.2-1.007,4.2     c-2.321,4.347-7.454,9.836-9.296,9.382c-1.646-0.405-2.652-2.8-3.168-5.759v-0.037c-0.246-1.351-0.381-2.824-0.43-4.285     c-0.16-4.654,1.915-15.509,8.375-18.395c1.473-0.651,2.8-0.135,3.831,0.859c0.86,0.835,1.523,1.989,1.866,3.082     C114.61,181.172,113.506,188.687,113.358,188.859z"></path>				<path id="XMLID_198_" style="fill:#27DEBF;" d="M112.351,193.059c-2.321,4.347-7.454,9.836-9.296,9.382     c-1.646-0.405-2.652-2.8-3.168-5.759v-0.037c-0.246-1.351-0.381-2.824-0.43-4.285c-0.16-4.654,1.915-15.509,8.375-18.395     c1.473-0.651,2.8-0.135,3.831,0.859l-0.884,2.001c-4.519,1.928-5.734,8.903-5.317,14.207     C105.867,196.337,109.76,195.797,112.351,193.059z"></path>				<path id="XMLID_196_" style="opacity:0.35;" d="M112.351,193.059c-2.321,4.347-7.454,9.836-9.296,9.382     c-1.646-0.405-2.652-2.8-3.168-5.759v-0.037c-0.246-1.351-0.381-2.824-0.43-4.285c-0.16-4.654,1.915-15.509,8.375-18.395     c1.473-0.651,2.8-0.135,3.831,0.859l-0.884,2.001c-4.519,1.928-5.734,8.903-5.317,14.207     C105.867,196.337,109.76,195.797,112.351,193.059z"></path>				<path id="XMLID_195_" style="fill:#37474F;" d="M113.52,177.91c-1.633-1.731-5.685-1.817-9.099,2.873     c-3.414,4.691-4.529,12.738-4.541,15.857c-0.246-1.351-0.381-2.824-0.43-4.285c-0.16-4.654,1.909-15.509,8.368-18.394     C110.52,172.757,112.746,175.516,113.52,177.91z"></path>			</g>			<g id="XMLID_189_">				<polygon id="XMLID_192_" style="fill:#27DEBF;" points="258.624,334.177 213.732,308.255 238.672,293.856 258.624,305.419          "></polygon>				<polygon id="XMLID_190_" style="opacity:0.35;" points="258.624,334.177 213.732,308.255 238.672,293.856 258.624,305.419          "></polygon>			</g>			<g id="XMLID_181_">				<path id="XMLID_188_" style="fill:#37474F;" d="M240.142,327.734l6.447-12.806l-15.34-8.88l-0.001,0.003     c-4.879-2.806-11.376-2.488-18.51,1.631c-15.15,8.748-27.432,31.31-27.434,50.395c-0.001,9.994,3.371,17.046,8.755,20.246     l-0.004,0.008l0.216,0.125c0.01,0.006,0.021,0.012,0.032,0.018l15.726,9.08l6.8-13.508     C229.7,364.189,239.642,344.759,240.142,327.734z"></path>				<path id="XMLID_187_" style="fill:#263238;" d="M240.142,327.734l6.447-12.806l-15.34-8.88l-0.001,0.003     c-4.879-2.806-11.376-2.488-18.51,1.631c-15.15,8.748-27.432,31.31-27.434,50.395c-0.001,9.994,3.371,17.046,8.755,20.246     l-0.004,0.008l0.216,0.125c0.01,0.006,0.021,0.012,0.032,0.018l15.726,9.08l6.8-13.508     C229.7,364.189,239.642,344.759,240.142,327.734z"></path>				<path id="XMLID_186_" style="fill:#37474F;" d="M256.132,335.612c0,16.454-9.136,35.5-21.366,46.036     c-0.025,0.012-0.037,0.037-0.049,0.049c-1.94,1.658-3.954,3.119-6.017,4.31c-15.153,8.755-27.445,0.368-27.432-18.714     c0-14.416,7.011-30.834,16.97-41.763c0.025-0.025,0.061-0.049,0.086-0.086c3.205-3.5,6.705-6.434,10.376-8.547     C243.852,308.155,256.132,316.529,256.132,335.612z"></path>				<path id="XMLID_185_" style="fill:#455A64;" d="M228.7,328.415c9.641-5.567,17.458,0.234,17.458,12.958     c0,12.724-7.816,27.551-17.458,33.118c-9.642,5.567-17.458-0.235-17.458-12.958C211.241,348.81,219.058,333.983,228.7,328.415z"></path>				<path id="XMLID_184_" style="fill:#FAFAFA;" d="M236.587,347.933c-0.663,6.326-4.737,13.036-9.088,14.975     c-1.916,0.849-3.561,0.639-4.749-0.399c-1.53-1.309-2.311-3.983-1.939-7.537c0.663-6.326,4.725-13.037,9.088-14.975     c1.179-0.531,2.266-0.651,3.192-0.418c0,0,0.014-0.011,0.012,0.001C235.607,340.2,237.07,343.329,236.587,347.933z"></path>				<path id="XMLID_183_" style="fill:#E0E0E0;" d="M235.031,347.116c-0.663,6.326-4.737,13.036-9.088,14.975     c-1.178,0.518-2.254,0.653-3.192,0.418c-1.53-1.309-2.311-3.983-1.939-7.537c0.663-6.326,4.725-13.037,9.088-14.975     c1.179-0.531,2.266-0.651,3.192-0.418c0,0,0.014-0.011,0.012,0.001C234.62,340.899,235.402,343.574,235.031,347.116z"></path>				<path id="XMLID_182_" style="fill:#455A64;" d="M256.132,335.612c0,16.454-9.136,35.5-21.366,46.036     c7.245-7.883,14.748-21.084,17.4-33.67c2.321-11.002,1.449-26.794-7.994-30.785c-9.369-3.966-21.907,4.421-25.848,8.252     c3.205-3.5,6.705-6.434,10.376-8.547C243.852,308.155,256.132,316.529,256.132,335.612z"></path>			</g>			<path id="XMLID_179_" style="fill:#27DEBF;" d="M258.705,269.622c0,0-2.604-0.496-1.998-2.762c0,0-15.285,7.002-18.494,8.061    c-7.007,2.31-33.334-7.056-61.623-22.412c-5.653-3.367-21.235-11.292-37.689-22.783c-6.973-4.677-12.996-9.13-18.351-13.484    c-5.648-4.592-9.844-9.106-12.412-12.257c-0.901-1.106-2.764-4.132-1.663-6.605c-56.105,39.909-86.862,56.429-80.271,101.944    c0,0,0.216,3.337,1.43,10.066c1.852,10.268,7.336,27.727,21.447,37.688c12.955,9.145,13.853,9.813,31.418,19.287    c17.566,9.475,41.242,16.398,64.304,15.659c25.988-0.84,48.731-10.749,49.441-16.76c0.304-2.666,0.782-5.346,1.449-8.04    c1.637-6.707,4.274-13.4,7.678-19.585c5.186-9.445,12.125-17.731,19.846-23.091c1.014-0.71,2.043-1.362,3.071-1.956    c16.703-9.648,30.464-1.883,32.232,17.267c0.131,1.391,0.188,2.825,0.188,4.331L258.705,269.622z"></path>			<g>				<path style="fill:#455A64;" d="M105.151,369.319c-16.179-4.034-27.928-10.402-39.407-17.166     c-11.489-6.774-18.953-13.096-23.228-18.466c-4.038-5.072-6.493-11.66-3.945-10.736c4.237,3.653,13.397,11.405,19.237,14.941     c17.477,10.597,36.028,23.728,64.57,24.217c2.474-0.009,4.535,0.135,5.491,0.422     C134.835,364.612,116.153,372.062,105.151,369.319z"></path>				<path style="fill:#455A64;" d="M163.974,356.329c-1.595-0.222-5.563,0.843-12.307,2.782c-6.743,1.939-8.377,2.116-10.874,3.839     c-2.117,1.462-7.768,6.061-10.495,7.47c-4.321,2.232,0.043,3.838,12.097,3.851c12.054,0.012,16.184-3.612,18.966-7.321     C164.143,363.241,167.598,356.835,163.974,356.329z"></path>				<path style="fill:#455A64;" d="M26.515,302.242L26.515,302.242c0.212,1.666,0.558,4.041,1.118,7.148     c0.743,4.123,2.089,9.409,4.327,14.899c0.893,0.823,1.696,1.372,2.232,1.336c2.062-0.138,0.294-3.691-1.178-8.993     C31.541,311.33,27.859,306.176,26.515,302.242z"></path>			</g>			<g>				<g>					<path style="opacity:0.85;fill:#FFFFFF;" d="M59.789,287.566c14.636,10.755,31.672,20.615,51.294,29.513      c2.67,1.211,4.012,4.418,2.282,6.785c-2.568,3.513-6.269,6.694-9.707,8.573c-2.573,1.406-7.228,0.969-9.969-0.073      c-15.403-5.852-28.248-13.187-38.524-22.012c-2.224-1.91-4.824-5.8-4.917-8.731c-0.134-4.181,0.491-9.799,1.927-13.473      C53.242,285.417,57.426,285.83,59.789,287.566z"></path>				</g>				<g>					<path style="fill:#27DEBF;" d="M99.293,330.142c-1.531,0-3.245-0.289-4.472-0.756c-14.996-5.698-27.64-12.915-37.58-21.451      c-1.905-1.635-3.756-4.753-3.809-6.415c-0.134-4.211,0.549-9.158,1.666-12.097c0.506-1.037,2.182,0.252,2.806,0.71      c14.93,10.97,32.379,21.011,51.863,29.847c0.565,0.256,1.016,0.752,1.151,1.265c0.097,0.37-0.016,0.589-0.124,0.738      c-2.195,3.003-5.515,5.937-8.663,7.658C101.556,329.956,100.496,330.142,99.293,330.142z"></path>					<path style="opacity:0.35;" d="M99.293,330.142c-1.531,0-3.245-0.289-4.472-0.756c-14.996-5.698-27.64-12.915-37.58-21.451      c-1.905-1.635-3.756-4.753-3.809-6.415c-0.134-4.211,0.549-9.158,1.666-12.097c0.506-1.037,2.182,0.252,2.806,0.71      c14.93,10.97,32.379,21.011,51.863,29.847c0.565,0.256,1.016,0.752,1.151,1.265c0.097,0.37-0.016,0.589-0.124,0.738      c-2.195,3.003-5.515,5.937-8.663,7.658C101.556,329.956,100.496,330.142,99.293,330.142z"></path>				</g>				<g>					<path style="fill:#27DEBF;" d="M74.547,321.481l-3.098-0.74c2.268-9.495,7.151-18.135,7.357-18.498l2.769,1.576      C81.526,303.904,76.706,312.439,74.547,321.481z"></path>					<path style="opacity:0.85;fill:#FFFFFF;" d="M74.547,321.481l-3.098-0.74c2.268-9.495,7.151-18.135,7.357-18.498l2.769,1.576      C81.526,303.904,76.706,312.439,74.547,321.481z"></path>				</g>				<g>					<g>						<g>							<g>								<path style="fill:#27DEBF;" d="M111.839,322.636c-2.902-0.982-21.274-9.191-33.334-16.584         c-12.296-7.536-24.473-16.297-24.595-16.385l0.311-0.431c0.121,0.088,12.284,8.838,24.562,16.364         c12.029,7.371,30.337,15.555,33.227,16.534L111.839,322.636z"></path>							</g>							<g>								<path style="fill:#27DEBF;" d="M110.251,324.131c-2.36-0.8-20.304-8.617-32.827-16.291         c-12.296-7.536-23.625-15.795-23.738-15.877l0.313-0.429c0.113,0.083,11.425,8.329,23.703,15.854         c12.489,7.654,30.369,15.444,32.719,16.241L110.251,324.131z"></path>							</g>							<g>								<path style="fill:#27DEBF;" d="M108.664,325.625c-2.652-0.898-20.035-8.467-32.32-15.997         c-12.298-7.538-22.779-15.293-22.884-15.37l0.317-0.427c0.104,0.078,10.566,7.82,22.845,15.345         c12.251,7.508,29.57,15.052,32.212,15.947L108.664,325.625z"></path>							</g>							<g>								<path style="fill:#27DEBF;" d="M107.077,327.121c-2.841-0.962-19.422-8.11-31.813-15.704         c-12.298-7.538-21.932-14.791-22.028-14.863l0.319-0.423c0.096,0.072,9.711,7.31,21.986,14.835         c12.356,7.573,28.876,14.694,31.705,15.655L107.077,327.121z"></path>							</g>							<g>								<path style="fill:#27DEBF;" d="M105.49,328.615c-2.336-0.791-18.549-7.59-31.306-15.41         c-12.299-7.539-21.084-14.289-21.171-14.356l0.324-0.421c0.087,0.067,8.851,6.802,21.125,14.325         c12.72,7.797,28.871,14.572,31.198,15.36L105.49,328.615z"></path>							</g>							<g>								<path style="fill:#27DEBF;" d="M103.903,330.11c-2.422-0.82-18.17-7.377-30.8-15.117         c-12.301-7.54-20.238-13.787-20.317-13.849l0.33-0.417c0.078,0.062,7.993,6.292,20.265,13.814         c12.591,7.717,28.28,14.25,30.692,15.068L103.903,330.11z"></path>							</g>							<g>								<path style="fill:#27DEBF;" d="M102.315,331.604c-2.778-0.94-17.993-7.284-30.293-14.823         c-12.302-7.541-19.392-13.287-19.462-13.345l0.336-0.411c0.069,0.056,7.134,5.784,19.404,13.304         c12.262,7.516,27.419,13.836,30.185,14.773L102.315,331.604z"></path>							</g>						</g>					</g>					<g style="opacity:0.85;">						<g>							<path style="fill:#FFFFFF;" d="M111.839,322.636c-2.902-0.982-21.274-9.191-33.334-16.584        c-12.296-7.536-24.473-16.297-24.595-16.385l0.311-0.431c0.121,0.088,12.284,8.838,24.562,16.364        c12.029,7.371,30.337,15.555,33.227,16.534L111.839,322.636z"></path>						</g>						<g>							<path style="fill:#FFFFFF;" d="M110.251,324.131c-2.36-0.8-20.304-8.617-32.827-16.291        c-12.296-7.536-23.625-15.795-23.738-15.877l0.313-0.429c0.113,0.083,11.425,8.329,23.703,15.854        c12.489,7.654,30.369,15.444,32.719,16.241L110.251,324.131z"></path>						</g>						<g>							<path style="fill:#FFFFFF;" d="M108.664,325.625c-2.652-0.898-20.035-8.467-32.32-15.997        c-12.298-7.538-22.779-15.293-22.884-15.37l0.317-0.427c0.104,0.078,10.566,7.82,22.845,15.345        c12.251,7.508,29.57,15.052,32.212,15.947L108.664,325.625z"></path>						</g>						<g>							<path style="fill:#FFFFFF;" d="M107.077,327.121c-2.841-0.962-19.422-8.11-31.813-15.704        c-12.298-7.538-21.932-14.791-22.028-14.863l0.319-0.423c0.096,0.072,9.711,7.31,21.986,14.835        c12.356,7.573,28.876,14.694,31.705,15.655L107.077,327.121z"></path>						</g>						<g>							<path style="fill:#FFFFFF;" d="M105.49,328.615c-2.336-0.791-18.549-7.59-31.306-15.41        c-12.299-7.539-21.084-14.289-21.171-14.356l0.324-0.421c0.087,0.067,8.851,6.802,21.125,14.325        c12.72,7.797,28.871,14.572,31.198,15.36L105.49,328.615z"></path>						</g>						<g>							<path style="fill:#FFFFFF;" d="M103.903,330.11c-2.422-0.82-18.17-7.377-30.8-15.117        c-12.301-7.54-20.238-13.787-20.317-13.849l0.33-0.417c0.078,0.062,7.993,6.292,20.265,13.814        c12.591,7.717,28.28,14.25,30.692,15.068L103.903,330.11z"></path>						</g>						<g>							<path style="fill:#FFFFFF;" d="M102.315,331.604c-2.778-0.94-17.993-7.284-30.293-14.823        c-12.302-7.541-19.392-13.287-19.462-13.345l0.336-0.411c0.069,0.056,7.134,5.784,19.404,13.304        c12.262,7.516,27.419,13.836,30.185,14.773L102.315,331.604z"></path>						</g>					</g>				</g>			</g>			<path style="opacity:0.5;fill:#FFFFFF;" d="M100.659,209.327c-2.523-0.55-40.485,27.614-45.416,32.527    c-4.931,4.914-2.805,4.789,1.371,12.946c5.105,9.971-0.83,18.721,2.774,18.027c1.784-0.344,9.498-16.255,20.787-31.735    C91.696,225.295,104.95,210.261,100.659,209.327z"></path>			<g>				<path id="XMLID_178_" style="opacity:0.85;fill:#FFFFFF;" d="M161.432,332.305c2.144-2.566,3.64-5.695,1.836-8.433     c-1.819-2.761-6.062-4.304-9.067-5.174c-9.23-2.671-19.51-1.497-27.9,3.185c-1.933,1.079-3.797,2.361-5.178,4.091     c-1.381,1.73-2.24,3.964-1.961,6.16c1.306,10.253,16.522,11.593,24.325,10.234c5.058-0.881,9.877-3.058,13.915-6.224     C158.589,335.215,160.13,333.864,161.432,332.305z"></path>				<path id="XMLID_177_" style="opacity:0.85;fill:#FFFFFF;" d="M38.388,288.442c0.581,0.278,1.213,0.463,1.901,0.534     c1.751,0.181,3.49-0.638,4.783-1.833c1.293-1.194,2.206-2.736,3.056-4.277c3.915-7.11,13.252-26.32-0.03-29.469     c-4.234-1.004-8.834,3.032-11.199,6.226c-3.417,4.615-4.992,10.632-4.497,16.335C32.743,279.882,34.287,286.48,38.388,288.442z"></path>			</g>			<g id="XMLID_168_">				<path id="XMLID_175_" style="opacity:0.15;" d="M166.059,331.679c0,0,18.043,0.532,31.613,15.193     C187.369,339.905,176.836,334.797,166.059,331.679z"></path>				<path id="XMLID_173_" style="opacity:0.15;" d="M111.11,213.394c0,0-27.672,24.726-49.091,64.733L111.11,213.394z"></path>				<path id="XMLID_171_" style="opacity:0.15;" d="M118.09,310.5c0,0,43.343-22.401,106.987-30.743L118.09,310.5z"></path>				<path id="XMLID_169_" style="opacity:0.15;" d="M26.116,293.118c3.389,9.73,15.336,24.541,33.067,34.949     c17.73,10.409,40.704,24.75,66.778,25.601c26.073,0.851,44.051-18.5,44.051-18.5s-13.424,21.412-44.052,22.086     c-30.629,0.674-49.483-12.886-67.679-23.926C39.367,321.853,28.264,305.52,26.116,293.118z"></path>			</g>			<g id="XMLID_164_">				<path id="XMLID_167_" style="opacity:0.5;fill:#FFFFFF;" d="M191.746,340.065c6.203-15.747,17.957-28.109,27.768-31.528     c-10.63,0.846-24.722,11.751-30.195,30.018C189.318,338.555,190.907,339.498,191.746,340.065z"></path>				<path id="XMLID_166_" style="opacity:0.5;fill:#FFFFFF;" d="M188.329,342.364c-1.299,5.882-1.717,12.434-0.91,19.579     c0-6.45,1.104-12.551,3.089-18.467L188.329,342.364z"></path>				<path id="XMLID_165_" style="opacity:0.5;fill:#FFFFFF;" d="M164.283,317.751c7.265,3.57,8.127,8.366,13.583,4.039     c5.455-4.327,45.011-32.673,54.364-36.682c10.534-4.514,0.942-5.116-22.985,2.319c-24.075,7.481-65.475,18.664-67.229,21.109     C140.26,310.982,150.241,310.852,164.283,317.751z"></path>			</g>			<g>				<path style="fill:#37474F;" d="M180.751,161.456c-5.693-4.248-11.025-8.637-15.968-13.22c-2.13-1.936-4.183-3.925-6.172-5.951     c-19.583,16.872-37.231,34.933-52.437,54.491c-2.932,5.074,9.591,16.859,28.116,29.925     c38.471,27.11,102.876,59.731,108.944,49.21l30.752-67.026C237.193,195.497,205.538,179.941,180.751,161.456z M239.66,273.514     c-0.258,0.074-0.772,0.173-1.667,0.173c-14.966,0-65.121-24.993-101.257-50.458c-23.355-16.472-26.316-23.169-26.688-24.515     c12.678-16.213,27.71-32.141,44.768-47.439c2.016-1.808,5.071-1.749,7.075,0.072c0.012,0.011,0.023,0.021,0.035,0.032     c4.863,4.51,10.353,9.055,16.286,13.481c22.136,16.51,49.935,31.094,84.755,44.445c2.833,1.087,4.156,4.349,2.891,7.107     L239.66,273.514z"></path>				<path style="opacity:0.5;" d="M239.66,273.514c-0.258,0.074-0.772,0.173-1.667,0.173c-14.966,0-65.121-24.993-101.257-50.458     c-23.355-16.472-26.316-23.169-26.688-24.515c12.678-16.213,27.71-32.141,44.768-47.439c2.016-1.808,5.071-1.749,7.075,0.072     c0.012,0.011,0.023,0.021,0.035,0.032c4.863,4.51,10.353,9.055,16.286,13.481c22.136,16.51,49.935,31.094,84.755,44.445     c2.833,1.087,4.156,4.349,2.891,7.107L239.66,273.514z"></path>				<g>					<path style="opacity:0.2;fill:#FFFFFF;" d="M136.736,223.229c5.823,4.104,12.012,8.193,18.357,12.169      c13.027-21.162,32.323-49.377,39.779-59.159c-5.877-3.693-11.432-7.481-16.66-11.38c-3.354-2.502-6.546-5.043-9.583-7.593      c-19.265,17.905-36.986,44.764-44.324,56.634C127.623,216.587,131.704,219.68,136.736,223.229z"></path>					<path style="opacity:0.2;fill:#FFFFFF;" d="M206.728,183.301c-2.363-1.335-4.679-2.683-6.947-4.044      c-6.575,8.627-21.994,29.684-39.563,59.305c2.56,1.56,5.135,3.096,7.715,4.604C176.36,229.355,190.98,205.959,206.728,183.301z      "></path>				</g>				<path style="opacity:0.3;fill:#FFFFFF;" d="M200.715,258.959c18.239,8.736,37.278,14.729,38.813,10.64     c1.535-4.088,14.861-30.721,18.674-41.275c3.814-10.555,4.694-11.728,2.203-14.93c-2.492-3.201-16.348-8.345-38.8-18.938     c-22.452-10.593-43.392-29.596-43.392-29.596c22.136,16.51,49.935,31.094,84.755,44.445c2.833,1.087,4.156,4.349,2.891,7.107     l-26.198,57.102c-0.258,0.074-0.772,0.173-1.667,0.173c-14.966,0-65.121-24.993-101.257-50.458     C144.163,228.646,182.475,250.222,200.715,258.959z"></path>			</g>			<g id="XMLID_154_">				<path id="XMLID_162_" style="fill:#27DEBF;" d="M274.079,270.403c-2.075,9.885-13.028,11.973-21.231,11.727     c-4.347-0.123-7.92-0.921-9.013-1.547c-3.168-1.83-1.707-5.624-0.012-7.822c2.874-3.721,15.767-11.187,23.859-11.444     C272.421,261.156,275.528,263.465,274.079,270.403z"></path>				<path id="XMLID_160_" style="opacity:0.3;" d="M274.079,270.403c-2.075,9.885-13.028,11.973-21.231,11.727     c-4.347-0.123-7.92-0.921-9.013-1.547c-3.168-1.83-1.707-5.624-0.012-7.822c2.874-3.721,15.767-11.187,23.859-11.444     C272.421,261.156,275.528,263.465,274.079,270.403z"></path>				<path id="XMLID_158_" style="fill:#27DEBF;" d="M274.079,270.403c-2.075,9.885-13.028,11.973-21.231,11.727     c-4.347-0.123-7.92-0.921-9.013-1.547c-3.168-1.83-1.707-5.624-0.012-7.822c-1.596,3.021,6.852,4.887,14.379,2.186     c7.527-2.714,13.139-8.522,9.48-13.63C272.421,261.156,275.528,263.465,274.079,270.403z"></path>				<path id="XMLID_156_" style="opacity:0.35;" d="M274.079,270.403c-2.075,9.885-13.028,11.973-21.231,11.727     c-4.347-0.123-7.92-0.921-9.013-1.547c-3.168-1.83-1.707-5.624-0.012-7.822c-1.596,3.021,6.852,4.887,14.379,2.186     c7.527-2.714,13.139-8.522,9.48-13.63C272.421,261.156,275.528,263.465,274.079,270.403z"></path>				<path id="XMLID_155_" style="fill:#37474F;" d="M274.079,270.403c-2.075,9.885-13.028,11.973-21.231,11.727     c8.166-0.233,14.674-4.936,17.13-10.069c2.444-5.121,0.589-10.094-2.296-10.745     C272.421,261.156,275.528,263.465,274.079,270.403z"></path>			</g>		</g>	</g></g><g id="Character">	<g id="Character_2_">		<path style="fill:#FFA8A7;" d="M368.59,179.161c-4.425,0-9.918,3.139-11.893,8.039c-2.303,5.713-6.161,27.875-7.49,30.794   c0,0-1.918,2.575-4.264,5.095c-1.496,1.607-10.002,10.508-13.314,13.652c-0.808,0.767-3.27,1.779-4.186,2.39   c-1.056,0.704-1.787,1.695-2.284,2.856c-0.323,0.756-0.546,1.549-0.743,2.346c-0.091,0.367-0.135,0.71-0.187,1.078   c-0.036,0.261-0.064,0.67-0.25,0.879l-5.981,3.464c0,0,1.03,0.328,2.228,0.345c1.817,0.026,4.848-0.399,6.641-0.692   c2.296-0.376,3.881-1.28,5.178-2.553c2.273-2.232,3.39-3.313,5.546-4.901c2.983-2.197,7.947-6.23,9.997-7.842   c2.733-2.148,11.368-8.6,12.918-12.127c1.55-3.527,5.141-22.533,5.141-22.533L368.59,179.161z"></path>		<g id="XMLID_55_">			<path id="XMLID_58_" style="fill:#263238;" d="M369.555,348.421c0.556,1.662-0.707,11.63-0.707,11.63s-3.311,2.587-4.931,3.173    l-1.366-10.223L369.555,348.421z"></path>			<polygon id="XMLID_57_" points="363.916,363.224 356.785,359.02 355.807,352.188 363.11,356.959    "></polygon>			<path id="XMLID_56_" style="fill:#37474F;" d="M365.159,341.33c1.262-0.075,1.148,0.802,2.249,2.665    c0.772,1.306,1.761,2.95,2.108,4.215c0.487,1.781-2.579,4.895-4.495,6.546c-2.027,1.745-2.688,3.442-3.602,6.364    c-1.106,3.535-1.155,5.892-6.493,7.656c-4.272,1.412-11.474-0.368-12.567-2.316c-1.864-3.324,5.42-4.771,8.04-9.539    c3.428-6.236,3.857-8.284,4.714-12.972c0.089-0.487,0.47-0.869,0.956-0.958L365.159,341.33z"></path>			<path style="fill:#FFA8A7;" d="M365.833,336.687l-0.413,6.357c0,0-1.081,2.719-5.337,2.876c-4.083,0.151-3.751-1.765-3.751-1.765    l-0.007-9.182L365.833,336.687z"></path>		</g>		<g id="XMLID_49_">			<g id="XMLID_53_">				<path id="XMLID_54_" style="fill:#FFA8A7;" d="M385.754,316.899l13.828-0.25c-0.206,9.231-1.672,30.233-1.912,38.893     c-0.045,1.63,0.041,12.669-0.574,16.023c-0.924,5.04-6.906,4.359-7.224,1.343c-0.318-3.016,0.385-15.903,0.366-17.232     c0.053-5.554-2.55-25.686-3.916-35.658C386.255,319.53,385.817,317.377,385.754,316.899z"></path>			</g>			<path style="fill:#37474F;" d="M390.224,354.685c-0.951,0.103-1.122,0.682-1.193,4.391c-0.054,2.786-0.125,7.69-0.867,11.856    c-0.742,4.166-1.53,8.603,1.837,12.372c1.969,2.204,5.242,2.762,7.602-0.742c2.189-3.25,3.591-6.344,2.589-10.083    c-0.849-3.169-1.456-6.174-1.532-9.844c-0.108-5.187,0.22-7.952-0.963-7.952l-0.024,0.775c-0.392,0.681-1.568,1.557-3.688,1.618    c-2.342,0.067-3.412-0.807-3.745-1.536L390.224,354.685z"></path>			<path id="XMLID_52_" style="fill:#27DEBF;" d="M389.68,217.26c1.558,2.205,6.345,8.397,8.703,17.922    c3.924,15.855-2.242,49.777-2.242,49.777c0.195,2.3,2.825,6.826,3.804,16.948c1.158,11.96-2.137,49.613-2.137,49.613    s-3.16,2.363-7.743,0.165c0,0-8.372-52.68-9.872-64.571c-1.309-10.378-3.333-26.763-3.333-26.763l-4.766,26.829    c0,0,0.836,5.814,1.265,10.243c0.677,6.995-7.271,41.992-7.271,41.992s-5.682,1.633-10.21-0.199c0,0-0.001-43.909-0.001-52.359    c0.001-10.742,0.348-30.216,1.38-46.356c0.501-7.838,2.098-18.132,2.955-22.286L389.68,217.26z"></path>			<path id="XMLID_51_" style="opacity:0.5;" d="M389.68,217.26c1.558,2.205,6.345,8.397,8.703,17.922    c3.924,15.855-2.242,49.777-2.242,49.777c0.195,2.3,2.825,6.826,3.804,16.948c1.158,11.96-2.137,49.613-2.137,49.613    s-3.16,2.363-7.743,0.165c0,0-8.372-52.68-9.872-64.571c-1.309-10.378-3.333-26.763-3.333-26.763l-4.766,26.829    c0,0,0.836,5.814,1.265,10.243c0.677,6.995-7.271,41.992-7.271,41.992s-5.682,1.633-10.21-0.199c0,0-0.001-43.909-0.001-52.359    c0.001-10.742,0.348-30.216,1.38-46.356c0.501-7.838,2.098-18.132,2.955-22.286L389.68,217.26z"></path>			<path id="XMLID_50_" style="opacity:0.15;" d="M376.86,260.35l-2.069-14.996c0,0-5.743-0.062-11.557-3.736    c0,0,3.56,4.833,9.676,5.412l1.993,12.341l-1.7,21.56L376.86,260.35z"></path>		</g>		<g id="XMLID_46_">			<g id="XMLID_47_">				<path id="XMLID_48_" style="fill:#37474F;" d="M358.761,203.949l1.427,9.572c-0.766,5.753-2.246,15.547-2.246,15.547     c11.059,8.74,34.712,4.279,38.014-1.734c-2.406-5.784-7.647-15.826-7.647-15.826l4.53-13.172c0,0-6.26-8.766-0.493-17.83     l-9.14-0.556l-10.612-0.753l-4.005-0.035c-4.02,3.792-8.438,7.51-10.264,10.432     C356.608,192.342,353.528,197.787,358.761,203.949z"></path>			</g>		</g>		<g id="XMLID_1_">			<path style="fill:#263238;" d="M378.383,176.764h-20.83v-20.165c0-9.836,7.974-17.81,17.81-17.81l0,0    c9.836,0,17.81,7.974,17.81,17.81v5.375C393.173,170.142,386.551,176.764,378.383,176.764z"></path>			<g id="XMLID_34_">				<g id="XMLID_35_">					<path id="XMLID_45_" style="fill:#FFA8A7;" d="M388.43,159.192c-1.716-1.84-4.552-1.787-5.914,0.665c0,0-2.13,0.998-7.91-1.288      c-4.743-1.876-9.611-7.175-10.885-10.32c-1.892,2.703-3.662,8.125-3.115,15.393c0.691,9.193,3.647,10.549,5.125,11.164      c1.478,0.616,3.982,0.172,6.724-0.336l0.155,5.164c0,0-5.809,6.853-3.316,11.717c9.176-2.713,13.914-11.401,13.914-11.401      l0.111-13.232c0,0,1.51,1.913,4.278-0.223C389.973,164.661,390.046,160.925,388.43,159.192z"></path>					<g id="XMLID_38_">						<path id="XMLID_44_" style="fill:#263238;" d="M371.694,160.442c-0.089,0.751,0.425,1.427,1.147,1.511       c0.723,0.084,1.38-0.457,1.47-1.207c0.089-0.75-0.424-1.427-1.147-1.511C372.441,159.151,371.783,159.692,371.694,160.442z"></path>						<path id="XMLID_43_" style="fill:#263238;" d="M374.198,156.236l2.442,1.753c0.474-0.705,0.312-1.669-0.362-2.153       C375.604,155.352,374.672,155.531,374.198,156.236z"></path>						<path id="XMLID_42_" style="fill:#F28F8F;" d="M372.966,168.63l-2.913,0.715c0.181,0.832,0.98,1.347,1.785,1.149       C372.641,170.297,373.147,169.462,372.966,168.63z"></path>						<path id="XMLID_41_" style="fill:#263238;" d="M361.389,157.164l2.813-1.123c-0.283-0.795-1.143-1.187-1.919-0.877       C361.506,155.474,361.106,156.37,361.389,157.164z"></path>						<path id="XMLID_40_" style="fill:#263238;" d="M362.185,159.97c-0.083,0.701,0.396,1.333,1.072,1.411       c0.675,0.078,1.289-0.426,1.373-1.127c0.083-0.701-0.397-1.333-1.071-1.411C362.883,158.764,362.268,159.269,362.185,159.97z"></path>						<polygon id="XMLID_39_" style="fill:#F28F8F;" points="368.454,159.443 368.258,166.379 364.165,165.439       "></polygon>					</g>					<g id="XMLID_36_">						<path id="XMLID_37_" style="fill:#F28F8F;" d="M372.455,174.47c2.891-0.432,7.978-2.703,8.865-5.077       c0,0-0.083,2.202-1.836,3.761c-1.754,1.558-6.967,3.123-6.967,3.123L372.455,174.47z"></path>					</g>				</g>			</g>		</g>		<path style="fill:#FFA8A7;" d="M404.259,238.83c1.884-7.761,4.182-18.396,3.76-20.214c-0.625-2.691-3.384-16.24-5.842-24.238   c-2.457-7.998-4.859-13.289-9.83-13.873c-8.216,4.743-2.558,18.042-2.558,18.042l8.061,20.387l-2.208,20.905   c-0.229,0.939-1.674,1.518-2.469,2.067c-2.134,1.472-2.866,2.035-4.441,3.84c-1.233,1.414-2.321,1.801-2.131,2.224   c0.244,0.544,1.209,1.4,2.773,0.844c0.788-0.28,1.79-0.951,3.039-1.83c0,0-0.829,2.574-2.975,5.461   c-2.908,3.913-4.225,6.747,1.994,6.522c3.897-0.141,8.201-3.524,10.745-12.24c0.172-0.517,0.442-1.469,0.772-2.712   C403.4,242.391,403.874,240.574,404.259,238.83z"></path>	</g></g></svg>