<svg xmlns="http://www.w3.org/2000/svg" xmlns:xlink="http://www.w3.org/1999/xlink" x="0px" y="0px" viewBox="0 0 750 500" style="enable-background:new 0 0 750 500;" xml:space="preserve"><g id="Background_Simple">	<g>		<path style="fill:#92E3A9;" d="M738.508,306.168c12.444-110.866-81.385-211.191-177.282-252.208   C490.785,23.83,414.57,42.765,346.708,70.294c-22.573,9.157-44.676,20.087-67.809,27.788c-17.191,5.723-34.53,8.239-52.548,5.88   c-21.671-2.837-44.475-9.41-66.336-5.081c-20.546,4.069-39.107,16.14-53.386,31.173c-54.118,56.975-74.417,144.061-58.289,219.77   c0.962,4.518,2.042,9.01,3.23,13.474c42.193,158.44,215.272,88.692,293.632,86.109c78.359-2.583,158.44,35.305,251.438,11.194   C662.236,443.594,728.261,397.455,738.508,306.168z"></path>		<path style="opacity:0.7;fill:#FFFFFF;" d="M738.508,306.168c12.444-110.866-81.385-211.191-177.282-252.208   C490.785,23.83,414.57,42.765,346.708,70.294c-22.573,9.157-44.676,20.087-67.809,27.788c-17.191,5.723-34.53,8.239-52.548,5.88   c-21.671-2.837-44.475-9.41-66.336-5.081c-20.546,4.069-39.107,16.14-53.386,31.173c-54.118,56.975-74.417,144.061-58.289,219.77   c0.962,4.518,2.042,9.01,3.23,13.474c42.193,158.44,215.272,88.692,293.632,86.109c78.359-2.583,158.44,35.305,251.438,11.194   C662.236,443.594,728.261,397.455,738.508,306.168z"></path>	</g></g><g id="Clouds">	<g>		<path style="opacity:0.3;fill:none;stroke:#000000;stroke-miterlimit:10;" d="M441.648,25.957c0,0-7.548-12.351-19.213-11.665   c-11.665,0.686-15.782,8.234-19.213,13.724c-3.431,5.489-4.803,2.059-13.724-0.686c-8.92-2.745-13.037,2.059-15.096,6.862   c-2.059,4.803-1.372,1.372-9.607,0c-8.234-1.372-8.444,3.536-13.724,6.176c-4.298,2.149-5.22,2.242-9.974,0.954   c-5.924-1.604-7.866-0.268-9.239,2.477h139.188c0,0-2.639-10.979-8.815-13.724C456.058,27.33,447.823,32.819,441.648,25.957z"></path>		<path style="opacity:0.3;fill:none;stroke:#000000;stroke-miterlimit:10;" d="M196.186,53.463c0,0-4.201-6.874-10.693-6.492   c-6.492,0.382-8.783,4.583-10.693,7.638c-1.91,3.055-2.673,1.146-7.638-0.382c-4.965-1.528-7.256,1.146-8.402,3.819   c-1.146,2.673-0.764,0.764-5.346,0c-4.583-0.764-4.699,1.968-7.638,3.437c-2.392,1.196-2.905,1.248-5.551,0.531   c-3.297-0.893-4.378-0.149-5.142,1.379h77.464c0,0-1.469-6.11-4.906-7.638C204.206,54.227,199.623,57.282,196.186,53.463z"></path>		<path style="opacity:0.3;fill:none;stroke:#000000;stroke-miterlimit:10;" d="M719.401,132.05c0,0-2.188-3.581-5.57-3.382   c-3.382,0.199-4.575,2.387-5.57,3.979c-0.995,1.591-1.393,0.597-3.979-0.199c-2.586-0.796-3.78,0.597-4.376,1.989   c-0.597,1.392-0.398,0.398-2.785,0c-2.387-0.398-2.448,1.025-3.979,1.79c-1.246,0.623-1.513,0.65-2.892,0.277   c-1.717-0.465-2.281-0.078-2.678,0.718h40.352c0,0-0.765-3.183-2.555-3.979C723.579,132.448,721.191,134.04,719.401,132.05z"></path>		<path style="opacity:0.3;fill:none;stroke:#000000;stroke-miterlimit:10;" d="M463.387,57.449c0,0-2.188-3.581-5.57-3.382   c-3.382,0.199-4.575,2.387-5.57,3.979c-0.995,1.591-1.392,0.597-3.979-0.199c-2.586-0.796-3.78,0.597-4.376,1.989   c-0.597,1.393-0.398,0.398-2.785,0c-2.387-0.398-2.448,1.025-3.979,1.79c-1.246,0.623-1.513,0.65-2.892,0.277   c-1.717-0.465-2.281-0.078-2.678,0.718h40.352c0,0-0.765-3.183-2.555-3.979C467.565,57.847,465.177,59.438,463.387,57.449z"></path>	</g></g><g id="Buildings_1_">	<g style="opacity:0.3;">		<polyline style="fill:none;stroke:#000000;stroke-miterlimit:10;" points="25.993,374.057 57.631,374.057 57.631,87.944    140.852,87.944 140.852,224.123 158.734,224.123 158.734,393.315 179.367,393.315 179.367,140.761 217.882,140.761    217.882,38.424 279.782,38.424 279.782,226.874 303.166,226.874 303.166,151.907 355.437,151.907 355.437,168.413    400.142,168.413 400.142,391.252 418.024,391.252 418.024,350.673 466.856,350.673 466.856,390.564 490.24,390.564    490.24,189.734 569.334,189.734 569.334,378.184 592.031,378.184 592.031,115.455 619.542,115.455 619.542,67.31 633.297,67.31    633.297,39.799 655.306,39.799 655.306,217.933 691.07,217.933 691.07,387.813 718.581,387.813   "></polyline>		<rect x="57.631" y="79.003" style="fill:none;stroke:#000000;stroke-miterlimit:10;" width="83.221" height="8.941"></rect>		<rect x="179.132" y="140.761" style="fill:none;stroke:#000000;stroke-miterlimit:10;" width="38.75" height="4.526"></rect>		<rect x="217.699" y="38.424" style="fill:none;stroke:#000000;stroke-miterlimit:10;" width="62.083" height="4.403"></rect>		<rect x="308.091" y="142.559" style="fill:none;stroke:#000000;stroke-miterlimit:10;" width="9.039" height="9.34"></rect>		<rect x="336.112" y="146.476" style="fill:none;stroke:#000000;stroke-miterlimit:10;" width="4.52" height="5.424"></rect>		<rect x="355.437" y="168.413" style="fill:none;stroke:#000000;stroke-miterlimit:10;" width="44.853" height="5.482"></rect>		<rect x="490.24" y="185.646" style="fill:none;stroke:#000000;stroke-miterlimit:10;" width="79.082" height="4.088"></rect>		<rect x="510.568" y="177.511" style="fill:none;stroke:#000000;stroke-miterlimit:10;" width="31.336" height="8.135"></rect>		<polyline style="fill:none;stroke:#000000;stroke-miterlimit:10;" points="535.275,177.812 535.275,170.279 558.174,170.279    558.174,185.345   "></polyline>		<polyline style="fill:none;stroke:#000000;stroke-miterlimit:10;" points="384.346,166.162 384.346,105.277 456.828,105.277    456.828,155.725 481.762,155.725 481.762,69.906 561.782,69.906 561.782,173.7 586.716,173.7   "></polyline>		<polyline style="fill:none;stroke:#000000;stroke-miterlimit:10;" points="332.158,136.01 332.158,68.746 282.87,68.746   "></polyline>		<polyline style="fill:none;stroke:#000000;stroke-miterlimit:10;" points="176.757,152.826 160.521,152.826 160.521,105.857    144.864,105.857   "></polyline>		<polyline style="fill:none;stroke:#000000;stroke-miterlimit:10;" points="54.986,140.069 41.65,140.069 41.65,322.724   "></polyline>		<polyline style="fill:none;stroke:#000000;stroke-miterlimit:10;" points="611.07,106.437 611.07,84.402 618.028,84.402   "></polyline>		<polyline style="fill:none;stroke:#000000;stroke-miterlimit:10;" points="658.038,84.982 682.972,84.982 682.972,177.18    725.302,177.18 725.302,283.873   "></polyline>		<g>			<rect x="222.565" y="51.35" style="fill:none;stroke:#000000;stroke-miterlimit:10;" width="6.223" height="12.177"></rect>			<rect x="233.766" y="51.35" style="fill:none;stroke:#000000;stroke-miterlimit:10;" width="6.223" height="12.177"></rect>			<rect x="244.968" y="51.35" style="fill:none;stroke:#000000;stroke-miterlimit:10;" width="6.223" height="12.177"></rect>			<rect x="256.169" y="51.35" style="fill:none;stroke:#000000;stroke-miterlimit:10;" width="6.223" height="12.177"></rect>			<rect x="267.37" y="51.35" style="fill:none;stroke:#000000;stroke-miterlimit:10;" width="6.223" height="12.177"></rect>		</g>		<g>			<rect x="222.565" y="71.935" style="fill:none;stroke:#000000;stroke-miterlimit:10;" width="6.223" height="12.177"></rect>			<rect x="233.766" y="71.935" style="fill:none;stroke:#000000;stroke-miterlimit:10;" width="6.223" height="12.177"></rect>			<rect x="244.968" y="71.935" style="fill:none;stroke:#000000;stroke-miterlimit:10;" width="6.223" height="12.177"></rect>			<rect x="256.169" y="71.935" style="fill:none;stroke:#000000;stroke-miterlimit:10;" width="6.223" height="12.177"></rect>			<rect x="267.37" y="71.935" style="fill:none;stroke:#000000;stroke-miterlimit:10;" width="6.223" height="12.177"></rect>		</g>		<g>			<rect x="222.565" y="92.52" style="fill:none;stroke:#000000;stroke-miterlimit:10;" width="6.223" height="12.177"></rect>			<rect x="233.766" y="92.52" style="fill:none;stroke:#000000;stroke-miterlimit:10;" width="6.223" height="12.177"></rect>			<rect x="244.968" y="92.52" style="fill:none;stroke:#000000;stroke-miterlimit:10;" width="6.223" height="12.177"></rect>			<rect x="256.169" y="92.52" style="fill:none;stroke:#000000;stroke-miterlimit:10;" width="6.223" height="12.177"></rect>			<rect x="267.37" y="92.52" style="fill:none;stroke:#000000;stroke-miterlimit:10;" width="6.223" height="12.177"></rect>		</g>		<g>			<rect x="222.565" y="113.105" style="fill:none;stroke:#000000;stroke-miterlimit:10;" width="6.223" height="12.177"></rect>			<rect x="233.766" y="113.105" style="fill:none;stroke:#000000;stroke-miterlimit:10;" width="6.223" height="12.177"></rect>			<rect x="244.968" y="113.105" style="fill:none;stroke:#000000;stroke-miterlimit:10;" width="6.223" height="12.177"></rect>			<rect x="256.169" y="113.105" style="fill:none;stroke:#000000;stroke-miterlimit:10;" width="6.223" height="12.177"></rect>			<rect x="267.37" y="113.105" style="fill:none;stroke:#000000;stroke-miterlimit:10;" width="6.223" height="12.177"></rect>		</g>		<g>			<rect x="222.565" y="133.69" style="fill:none;stroke:#000000;stroke-miterlimit:10;" width="6.223" height="12.177"></rect>			<rect x="233.766" y="133.69" style="fill:none;stroke:#000000;stroke-miterlimit:10;" width="6.223" height="12.177"></rect>			<rect x="244.968" y="133.69" style="fill:none;stroke:#000000;stroke-miterlimit:10;" width="6.223" height="12.177"></rect>			<rect x="256.169" y="133.69" style="fill:none;stroke:#000000;stroke-miterlimit:10;" width="6.223" height="12.177"></rect>			<rect x="267.37" y="133.69" style="fill:none;stroke:#000000;stroke-miterlimit:10;" width="6.223" height="12.177"></rect>		</g>		<g>			<rect x="222.565" y="154.275" style="fill:none;stroke:#000000;stroke-miterlimit:10;" width="6.223" height="12.177"></rect>			<rect x="233.766" y="154.275" style="fill:none;stroke:#000000;stroke-miterlimit:10;" width="6.223" height="12.177"></rect>			<rect x="244.968" y="154.275" style="fill:none;stroke:#000000;stroke-miterlimit:10;" width="6.223" height="12.177"></rect>			<rect x="256.169" y="154.275" style="fill:none;stroke:#000000;stroke-miterlimit:10;" width="6.223" height="12.177"></rect>			<rect x="267.37" y="154.275" style="fill:none;stroke:#000000;stroke-miterlimit:10;" width="6.223" height="12.177"></rect>		</g>		<g>			<g>				<rect x="184.378" y="154.275" style="fill:none;stroke:#000000;stroke-miterlimit:10;" width="6.223" height="12.177"></rect>				<rect x="195.579" y="154.275" style="fill:none;stroke:#000000;stroke-miterlimit:10;" width="6.223" height="12.177"></rect>				<rect x="206.78" y="154.275" style="fill:none;stroke:#000000;stroke-miterlimit:10;" width="6.223" height="12.177"></rect>			</g>			<g>				<rect x="184.378" y="174.28" style="fill:none;stroke:#000000;stroke-miterlimit:10;" width="6.223" height="12.177"></rect>				<rect x="195.579" y="174.28" style="fill:none;stroke:#000000;stroke-miterlimit:10;" width="6.223" height="12.177"></rect>				<rect x="206.78" y="174.28" style="fill:none;stroke:#000000;stroke-miterlimit:10;" width="6.223" height="12.177"></rect>			</g>			<g>				<rect x="184.378" y="194.285" style="fill:none;stroke:#000000;stroke-miterlimit:10;" width="6.223" height="12.177"></rect>				<rect x="195.579" y="194.285" style="fill:none;stroke:#000000;stroke-miterlimit:10;" width="6.223" height="12.177"></rect>				<rect x="206.78" y="194.285" style="fill:none;stroke:#000000;stroke-miterlimit:10;" width="6.223" height="12.177"></rect>			</g>			<g>				<rect x="184.378" y="214.29" style="fill:none;stroke:#000000;stroke-miterlimit:10;" width="6.223" height="12.177"></rect>				<rect x="195.579" y="214.29" style="fill:none;stroke:#000000;stroke-miterlimit:10;" width="6.223" height="12.177"></rect>				<rect x="206.78" y="214.29" style="fill:none;stroke:#000000;stroke-miterlimit:10;" width="6.223" height="12.177"></rect>			</g>			<g>				<rect x="184.378" y="234.296" style="fill:none;stroke:#000000;stroke-miterlimit:10;" width="6.223" height="12.177"></rect>				<rect x="195.579" y="234.296" style="fill:none;stroke:#000000;stroke-miterlimit:10;" width="6.223" height="12.177"></rect>				<rect x="206.78" y="234.296" style="fill:none;stroke:#000000;stroke-miterlimit:10;" width="6.223" height="12.177"></rect>			</g>			<g>				<rect x="184.378" y="254.301" style="fill:none;stroke:#000000;stroke-miterlimit:10;" width="6.223" height="12.177"></rect>				<rect x="195.579" y="254.301" style="fill:none;stroke:#000000;stroke-miterlimit:10;" width="6.223" height="12.177"></rect>				<rect x="206.78" y="254.301" style="fill:none;stroke:#000000;stroke-miterlimit:10;" width="6.223" height="12.177"></rect>			</g>			<g>				<rect x="184.378" y="274.306" style="fill:none;stroke:#000000;stroke-miterlimit:10;" width="6.223" height="12.177"></rect>				<rect x="195.579" y="274.306" style="fill:none;stroke:#000000;stroke-miterlimit:10;" width="6.223" height="12.177"></rect>				<rect x="206.78" y="274.306" style="fill:none;stroke:#000000;stroke-miterlimit:10;" width="6.223" height="12.177"></rect>			</g>			<g>				<rect x="184.378" y="294.311" style="fill:none;stroke:#000000;stroke-miterlimit:10;" width="6.223" height="12.177"></rect>				<rect x="195.579" y="294.311" style="fill:none;stroke:#000000;stroke-miterlimit:10;" width="6.223" height="12.177"></rect>				<rect x="206.78" y="294.311" style="fill:none;stroke:#000000;stroke-miterlimit:10;" width="6.223" height="12.177"></rect>			</g>			<g>				<rect x="184.378" y="314.316" style="fill:none;stroke:#000000;stroke-miterlimit:10;" width="6.223" height="12.177"></rect>				<rect x="195.579" y="314.316" style="fill:none;stroke:#000000;stroke-miterlimit:10;" width="6.223" height="12.177"></rect>				<rect x="206.78" y="314.316" style="fill:none;stroke:#000000;stroke-miterlimit:10;" width="6.223" height="12.177"></rect>			</g>			<g>				<rect x="184.378" y="334.321" style="fill:none;stroke:#000000;stroke-miterlimit:10;" width="6.223" height="12.177"></rect>				<rect x="195.579" y="334.321" style="fill:none;stroke:#000000;stroke-miterlimit:10;" width="6.223" height="12.177"></rect>				<rect x="206.78" y="334.321" style="fill:none;stroke:#000000;stroke-miterlimit:10;" width="6.223" height="12.177"></rect>			</g>			<g>				<rect x="184.378" y="354.326" style="fill:none;stroke:#000000;stroke-miterlimit:10;" width="6.223" height="12.177"></rect>				<rect x="195.579" y="354.326" style="fill:none;stroke:#000000;stroke-miterlimit:10;" width="6.223" height="12.177"></rect>				<rect x="206.78" y="354.326" style="fill:none;stroke:#000000;stroke-miterlimit:10;" width="6.223" height="12.177"></rect>			</g>		</g>		<g>			<g>				<rect x="284.25" y="236.615" style="fill:none;stroke:#000000;stroke-miterlimit:10;" width="6.223" height="12.177"></rect>				<rect x="295.451" y="236.615" style="fill:none;stroke:#000000;stroke-miterlimit:10;" width="6.223" height="12.177"></rect>			</g>			<g>				<rect x="284.25" y="256.62" style="fill:none;stroke:#000000;stroke-miterlimit:10;" width="6.223" height="12.177"></rect>				<rect x="295.451" y="256.62" style="fill:none;stroke:#000000;stroke-miterlimit:10;" width="6.223" height="12.177"></rect>			</g>			<g>				<rect x="284.25" y="276.625" style="fill:none;stroke:#000000;stroke-miterlimit:10;" width="6.223" height="12.177"></rect>				<rect x="295.451" y="276.625" style="fill:none;stroke:#000000;stroke-miterlimit:10;" width="6.223" height="12.177"></rect>			</g>			<g>				<rect x="284.25" y="296.63" style="fill:none;stroke:#000000;stroke-miterlimit:10;" width="6.223" height="12.177"></rect>				<rect x="295.451" y="296.63" style="fill:none;stroke:#000000;stroke-miterlimit:10;" width="6.223" height="12.177"></rect>			</g>			<g>				<rect x="284.25" y="316.635" style="fill:none;stroke:#000000;stroke-miterlimit:10;" width="6.223" height="12.177"></rect>				<rect x="295.451" y="316.635" style="fill:none;stroke:#000000;stroke-miterlimit:10;" width="6.223" height="12.177"></rect>			</g>			<g>				<rect x="284.25" y="336.64" style="fill:none;stroke:#000000;stroke-miterlimit:10;" width="6.223" height="12.177"></rect>				<rect x="295.451" y="336.64" style="fill:none;stroke:#000000;stroke-miterlimit:10;" width="6.223" height="12.177"></rect>			</g>			<g>				<rect x="284.25" y="356.646" style="fill:none;stroke:#000000;stroke-miterlimit:10;" width="6.223" height="12.177"></rect>				<rect x="295.451" y="356.646" style="fill:none;stroke:#000000;stroke-miterlimit:10;" width="6.223" height="12.177"></rect>			</g>		</g>		<g>			<rect x="222.565" y="174.86" style="fill:none;stroke:#000000;stroke-miterlimit:10;" width="6.223" height="12.177"></rect>			<rect x="233.766" y="174.86" style="fill:none;stroke:#000000;stroke-miterlimit:10;" width="6.223" height="12.177"></rect>			<rect x="244.968" y="174.86" style="fill:none;stroke:#000000;stroke-miterlimit:10;" width="6.223" height="12.177"></rect>			<rect x="256.169" y="174.86" style="fill:none;stroke:#000000;stroke-miterlimit:10;" width="6.223" height="12.177"></rect>			<rect x="267.37" y="174.86" style="fill:none;stroke:#000000;stroke-miterlimit:10;" width="6.223" height="12.177"></rect>		</g>		<g>			<rect x="222.565" y="195.445" style="fill:none;stroke:#000000;stroke-miterlimit:10;" width="6.223" height="12.177"></rect>			<rect x="233.766" y="195.445" style="fill:none;stroke:#000000;stroke-miterlimit:10;" width="6.223" height="12.177"></rect>			<rect x="244.968" y="195.445" style="fill:none;stroke:#000000;stroke-miterlimit:10;" width="6.223" height="12.177"></rect>			<rect x="256.169" y="195.445" style="fill:none;stroke:#000000;stroke-miterlimit:10;" width="6.223" height="12.177"></rect>			<rect x="267.37" y="195.445" style="fill:none;stroke:#000000;stroke-miterlimit:10;" width="6.223" height="12.177"></rect>		</g>		<g>			<rect x="222.565" y="216.03" style="fill:none;stroke:#000000;stroke-miterlimit:10;" width="6.223" height="12.177"></rect>			<rect x="233.766" y="216.03" style="fill:none;stroke:#000000;stroke-miterlimit:10;" width="6.223" height="12.177"></rect>			<rect x="244.968" y="216.03" style="fill:none;stroke:#000000;stroke-miterlimit:10;" width="6.223" height="12.177"></rect>			<rect x="256.169" y="216.03" style="fill:none;stroke:#000000;stroke-miterlimit:10;" width="6.223" height="12.177"></rect>			<rect x="267.37" y="216.03" style="fill:none;stroke:#000000;stroke-miterlimit:10;" width="6.223" height="12.177"></rect>		</g>		<g>			<rect x="222.565" y="236.615" style="fill:none;stroke:#000000;stroke-miterlimit:10;" width="6.223" height="12.177"></rect>			<rect x="233.766" y="236.615" style="fill:none;stroke:#000000;stroke-miterlimit:10;" width="6.223" height="12.177"></rect>			<rect x="244.968" y="236.615" style="fill:none;stroke:#000000;stroke-miterlimit:10;" width="6.223" height="12.177"></rect>			<rect x="256.169" y="236.615" style="fill:none;stroke:#000000;stroke-miterlimit:10;" width="6.223" height="12.177"></rect>			<rect x="267.37" y="236.615" style="fill:none;stroke:#000000;stroke-miterlimit:10;" width="6.223" height="12.177"></rect>		</g>		<g>			<rect x="222.565" y="257.2" style="fill:none;stroke:#000000;stroke-miterlimit:10;" width="6.223" height="12.177"></rect>			<rect x="233.766" y="257.2" style="fill:none;stroke:#000000;stroke-miterlimit:10;" width="6.223" height="12.177"></rect>			<rect x="244.968" y="257.2" style="fill:none;stroke:#000000;stroke-miterlimit:10;" width="6.223" height="12.177"></rect>			<rect x="256.169" y="257.2" style="fill:none;stroke:#000000;stroke-miterlimit:10;" width="6.223" height="12.177"></rect>			<rect x="267.37" y="257.2" style="fill:none;stroke:#000000;stroke-miterlimit:10;" width="6.223" height="12.177"></rect>		</g>		<g>			<rect x="222.565" y="277.785" style="fill:none;stroke:#000000;stroke-miterlimit:10;" width="6.223" height="12.177"></rect>			<rect x="233.766" y="277.785" style="fill:none;stroke:#000000;stroke-miterlimit:10;" width="6.223" height="12.177"></rect>			<rect x="244.968" y="277.785" style="fill:none;stroke:#000000;stroke-miterlimit:10;" width="6.223" height="12.177"></rect>			<rect x="256.169" y="277.785" style="fill:none;stroke:#000000;stroke-miterlimit:10;" width="6.223" height="12.177"></rect>			<rect x="267.37" y="277.785" style="fill:none;stroke:#000000;stroke-miterlimit:10;" width="6.223" height="12.177"></rect>		</g>		<g>			<rect x="222.565" y="298.37" style="fill:none;stroke:#000000;stroke-miterlimit:10;" width="6.223" height="12.177"></rect>			<rect x="233.766" y="298.37" style="fill:none;stroke:#000000;stroke-miterlimit:10;" width="6.223" height="12.177"></rect>			<rect x="244.968" y="298.37" style="fill:none;stroke:#000000;stroke-miterlimit:10;" width="6.223" height="12.177"></rect>			<rect x="256.169" y="298.37" style="fill:none;stroke:#000000;stroke-miterlimit:10;" width="6.223" height="12.177"></rect>			<rect x="267.37" y="298.37" style="fill:none;stroke:#000000;stroke-miterlimit:10;" width="6.223" height="12.177"></rect>		</g>		<g>			<rect x="222.565" y="318.955" style="fill:none;stroke:#000000;stroke-miterlimit:10;" width="6.223" height="12.177"></rect>			<rect x="233.766" y="318.955" style="fill:none;stroke:#000000;stroke-miterlimit:10;" width="6.223" height="12.177"></rect>			<rect x="244.968" y="318.955" style="fill:none;stroke:#000000;stroke-miterlimit:10;" width="6.223" height="12.177"></rect>			<rect x="256.169" y="318.955" style="fill:none;stroke:#000000;stroke-miterlimit:10;" width="6.223" height="12.177"></rect>			<rect x="267.37" y="318.955" style="fill:none;stroke:#000000;stroke-miterlimit:10;" width="6.223" height="12.177"></rect>		</g>		<g>			<rect x="222.565" y="339.54" style="fill:none;stroke:#000000;stroke-miterlimit:10;" width="6.223" height="12.177"></rect>			<rect x="233.766" y="339.54" style="fill:none;stroke:#000000;stroke-miterlimit:10;" width="6.223" height="12.177"></rect>			<rect x="244.968" y="339.54" style="fill:none;stroke:#000000;stroke-miterlimit:10;" width="6.223" height="12.177"></rect>			<rect x="256.169" y="339.54" style="fill:none;stroke:#000000;stroke-miterlimit:10;" width="6.223" height="12.177"></rect>			<rect x="267.37" y="339.54" style="fill:none;stroke:#000000;stroke-miterlimit:10;" width="6.223" height="12.177"></rect>		</g>		<g>			<rect x="222.565" y="360.704" style="fill:none;stroke:#000000;stroke-miterlimit:10;" width="6.223" height="12.177"></rect>			<rect x="233.766" y="360.704" style="fill:none;stroke:#000000;stroke-miterlimit:10;" width="6.223" height="12.177"></rect>			<rect x="244.968" y="360.704" style="fill:none;stroke:#000000;stroke-miterlimit:10;" width="6.223" height="12.177"></rect>			<rect x="256.169" y="360.704" style="fill:none;stroke:#000000;stroke-miterlimit:10;" width="6.223" height="12.177"></rect>			<rect x="267.37" y="360.704" style="fill:none;stroke:#000000;stroke-miterlimit:10;" width="6.223" height="12.177"></rect>		</g>		<line style="fill:none;stroke:#000000;stroke-miterlimit:10;" x1="217.882" y1="145.287" x2="217.882" y2="393.466"></line>		<line style="fill:none;stroke:#000000;stroke-miterlimit:10;" x1="313.023" y1="156.885" x2="313.023" y2="389.987"></line>		<line style="fill:none;stroke:#000000;stroke-miterlimit:10;" x1="325.2" y1="156.885" x2="325.2" y2="389.987"></line>		<line style="fill:none;stroke:#000000;stroke-miterlimit:10;" x1="337.377" y1="156.885" x2="337.377" y2="389.987"></line>		<line style="fill:none;stroke:#000000;stroke-miterlimit:10;" x1="349.554" y1="156.885" x2="349.554" y2="389.987"></line>		<line style="fill:none;stroke:#000000;stroke-miterlimit:10;" x1="361.731" y1="180.079" x2="361.731" y2="389.987"></line>		<line style="fill:none;stroke:#000000;stroke-miterlimit:10;" x1="373.908" y1="180.079" x2="373.908" y2="389.987"></line>		<line style="fill:none;stroke:#000000;stroke-miterlimit:10;" x1="386.085" y1="180.079" x2="386.085" y2="389.987"></line>		<line style="fill:none;stroke:#000000;stroke-miterlimit:10;" x1="60.785" y1="101.218" x2="136.746" y2="101.218"></line>		<line style="fill:none;stroke:#000000;stroke-miterlimit:10;" x1="60.785" y1="116.295" x2="136.746" y2="116.295"></line>		<line style="fill:none;stroke:#000000;stroke-miterlimit:10;" x1="60.785" y1="131.371" x2="136.746" y2="131.371"></line>		<line style="fill:none;stroke:#000000;stroke-miterlimit:10;" x1="60.785" y1="146.447" x2="136.746" y2="146.447"></line>		<line style="fill:none;stroke:#000000;stroke-miterlimit:10;" x1="60.785" y1="161.523" x2="136.746" y2="161.523"></line>		<line style="fill:none;stroke:#000000;stroke-miterlimit:10;" x1="60.785" y1="176.6" x2="136.746" y2="176.6"></line>		<line style="fill:none;stroke:#000000;stroke-miterlimit:10;" x1="60.785" y1="191.676" x2="136.746" y2="191.676"></line>		<line style="fill:none;stroke:#000000;stroke-miterlimit:10;" x1="60.785" y1="206.752" x2="136.746" y2="206.752"></line>		<line style="fill:none;stroke:#000000;stroke-miterlimit:10;" x1="60.785" y1="221.829" x2="136.746" y2="221.829"></line>		<line style="fill:none;stroke:#000000;stroke-miterlimit:10;" x1="60.785" y1="236.905" x2="136.746" y2="236.905"></line>		<line style="fill:none;stroke:#000000;stroke-miterlimit:10;" x1="60.785" y1="251.981" x2="136.746" y2="251.981"></line>		<line style="fill:none;stroke:#000000;stroke-miterlimit:10;" x1="60.785" y1="267.057" x2="136.746" y2="267.057"></line>		<line style="fill:none;stroke:#000000;stroke-miterlimit:10;" x1="60.785" y1="282.134" x2="136.746" y2="282.134"></line>		<line style="fill:none;stroke:#000000;stroke-miterlimit:10;" x1="60.785" y1="297.21" x2="136.746" y2="297.21"></line>		<line style="fill:none;stroke:#000000;stroke-miterlimit:10;" x1="60.785" y1="312.286" x2="136.746" y2="312.286"></line>		<line style="fill:none;stroke:#000000;stroke-miterlimit:10;" x1="60.785" y1="327.363" x2="136.746" y2="327.363"></line>		<line style="fill:none;stroke:#000000;stroke-miterlimit:10;" x1="60.785" y1="342.439" x2="136.746" y2="342.439"></line>		<line style="fill:none;stroke:#000000;stroke-miterlimit:10;" x1="60.785" y1="357.515" x2="136.746" y2="357.515"></line>		<line style="fill:none;stroke:#000000;stroke-miterlimit:10;" x1="60.785" y1="372.592" x2="136.746" y2="372.592"></line>		<line style="fill:none;stroke:#000000;stroke-miterlimit:10;" x1="60.785" y1="387.668" x2="136.746" y2="387.668"></line>		<line style="fill:none;stroke:#000000;stroke-miterlimit:10;" x1="60.785" y1="402.744" x2="136.746" y2="402.744"></line>		<line style="fill:none;stroke:#000000;stroke-miterlimit:10;" x1="70.643" y1="78.604" x2="70.643" y2="406.223"></line>		<polyline style="fill:none;stroke:#000000;stroke-miterlimit:10;" points="592.514,142.968 609.33,142.968 609.33,151.086    592.514,151.086   "></polyline>		<polyline style="fill:none;stroke:#000000;stroke-miterlimit:10;" points="690.51,234.006 671.375,234.006 671.375,242.124    690.51,242.124   "></polyline>		<polyline style="fill:none;stroke:#000000;stroke-miterlimit:10;" points="690.51,253.141 671.375,253.141 671.375,261.259    690.51,261.259   "></polyline>		<polyline style="fill:none;stroke:#000000;stroke-miterlimit:10;" points="690.51,272.276 671.375,272.276 671.375,280.394    690.51,280.394   "></polyline>		<polyline style="fill:none;stroke:#000000;stroke-miterlimit:10;" points="690.51,291.411 671.375,291.411 671.375,299.53    690.51,299.53   "></polyline>		<polyline style="fill:none;stroke:#000000;stroke-miterlimit:10;" points="690.51,310.547 671.375,310.547 671.375,318.665    690.51,318.665   "></polyline>		<polyline style="fill:none;stroke:#000000;stroke-miterlimit:10;" points="690.51,329.682 671.375,329.682 671.375,337.8    690.51,337.8   "></polyline>		<polyline style="fill:none;stroke:#000000;stroke-miterlimit:10;" points="690.51,348.817 671.375,348.817 671.375,356.935    690.51,356.935   "></polyline>		<polyline style="fill:none;stroke:#000000;stroke-miterlimit:10;" points="690.51,367.953 671.375,367.953 671.375,376.071    690.51,376.071   "></polyline>		<polyline style="fill:none;stroke:#000000;stroke-miterlimit:10;" points="592.514,165.003 609.33,165.003 609.33,173.121    592.514,173.121   "></polyline>		<polyline style="fill:none;stroke:#000000;stroke-miterlimit:10;" points="592.514,187.037 609.33,187.037 609.33,195.155    592.514,195.155   "></polyline>		<polyline style="fill:none;stroke:#000000;stroke-miterlimit:10;" points="592.514,209.072 609.33,209.072 609.33,217.19    592.514,217.19   "></polyline>		<polyline style="fill:none;stroke:#000000;stroke-miterlimit:10;" points="592.514,231.106 609.33,231.106 609.33,239.224    592.514,239.224   "></polyline>		<polyline style="fill:none;stroke:#000000;stroke-miterlimit:10;" points="592.514,253.141 609.33,253.141 609.33,261.259    592.514,261.259   "></polyline>		<polyline style="fill:none;stroke:#000000;stroke-miterlimit:10;" points="592.514,275.176 609.33,275.176 609.33,283.293    592.514,283.293   "></polyline>		<polyline style="fill:none;stroke:#000000;stroke-miterlimit:10;" points="592.514,297.21 609.33,297.21 609.33,305.328    592.514,305.328   "></polyline>		<polyline style="fill:none;stroke:#000000;stroke-miterlimit:10;" points="592.514,319.245 609.33,319.245 609.33,327.363    592.514,327.363   "></polyline>		<polyline style="fill:none;stroke:#000000;stroke-miterlimit:10;" points="592.514,341.279 609.33,341.279 609.33,349.397    592.514,349.397   "></polyline>		<rect x="492.779" y="195.735" style="fill:none;stroke:#000000;stroke-miterlimit:10;" width="73.062" height="6.958"></rect>		<rect x="492.779" y="207.912" style="fill:none;stroke:#000000;stroke-miterlimit:10;" width="73.062" height="6.958"></rect>		<rect x="492.779" y="220.089" style="fill:none;stroke:#000000;stroke-miterlimit:10;" width="73.062" height="6.958"></rect>		<rect x="492.779" y="232.266" style="fill:none;stroke:#000000;stroke-miterlimit:10;" width="73.062" height="6.958"></rect>		<rect x="492.779" y="244.443" style="fill:none;stroke:#000000;stroke-miterlimit:10;" width="73.062" height="6.958"></rect>		<rect x="492.779" y="256.62" style="fill:none;stroke:#000000;stroke-miterlimit:10;" width="73.062" height="6.958"></rect>		<rect x="492.779" y="268.797" style="fill:none;stroke:#000000;stroke-miterlimit:10;" width="73.062" height="6.958"></rect>		<rect x="492.779" y="280.974" style="fill:none;stroke:#000000;stroke-miterlimit:10;" width="73.062" height="6.958"></rect>		<rect x="492.779" y="293.151" style="fill:none;stroke:#000000;stroke-miterlimit:10;" width="73.062" height="6.958"></rect>		<rect x="492.779" y="305.328" style="fill:none;stroke:#000000;stroke-miterlimit:10;" width="73.062" height="6.958"></rect>		<rect x="492.779" y="317.505" style="fill:none;stroke:#000000;stroke-miterlimit:10;" width="73.062" height="6.958"></rect>		<rect x="492.779" y="329.682" style="fill:none;stroke:#000000;stroke-miterlimit:10;" width="73.062" height="6.958"></rect>		<rect x="492.779" y="341.859" style="fill:none;stroke:#000000;stroke-miterlimit:10;" width="73.062" height="6.958"></rect>		<rect x="492.779" y="354.036" style="fill:none;stroke:#000000;stroke-miterlimit:10;" width="73.062" height="6.958"></rect>		<rect x="492.779" y="366.213" style="fill:none;stroke:#000000;stroke-miterlimit:10;" width="73.062" height="6.958"></rect>		<rect x="492.779" y="378.39" style="fill:none;stroke:#000000;stroke-miterlimit:10;" width="73.062" height="6.958"></rect>		<rect x="492.779" y="390.567" style="fill:none;stroke:#000000;stroke-miterlimit:10;" width="73.062" height="6.958"></rect>		<line style="fill:none;stroke:#000000;stroke-miterlimit:10;" x1="619.768" y1="123.833" x2="619.768" y2="392.887"></line>		<line style="fill:none;stroke:#000000;stroke-miterlimit:10;" x1="634.844" y1="72.805" x2="634.844" y2="392.887"></line>		<rect x="424.936" y="331.422" style="fill:none;stroke:#000000;stroke-miterlimit:10;" width="36.531" height="19.135"></rect>		<rect x="433.633" y="297.79" style="fill:none;stroke:#000000;stroke-miterlimit:10;" width="19.135" height="33.632"></rect>		<line style="fill:none;stroke:#000000;stroke-miterlimit:10;" x1="279.782" y1="226.874" x2="279.782" y2="393.005"></line>		<line style="fill:none;stroke:#000000;stroke-miterlimit:10;" x1="489.606" y1="208.665" x2="400.9" y2="208.665"></line>		<line style="fill:none;stroke:#000000;stroke-miterlimit:10;" x1="489.606" y1="218.576" x2="400.9" y2="218.576"></line>		<g>			<rect x="404.865" y="226.01" style="fill:none;stroke:#000000;stroke-miterlimit:10;" width="13.53" height="9.911"></rect>			<rect x="421.552" y="226.01" style="fill:none;stroke:#000000;stroke-miterlimit:10;" width="13.53" height="9.911"></rect>			<rect x="438.24" y="226.01" style="fill:none;stroke:#000000;stroke-miterlimit:10;" width="13.53" height="9.911"></rect>			<rect x="454.927" y="226.01" style="fill:none;stroke:#000000;stroke-miterlimit:10;" width="13.531" height="9.911"></rect>			<rect x="471.615" y="226.01" style="fill:none;stroke:#000000;stroke-miterlimit:10;" width="13.53" height="9.911"></rect>		</g>		<g>			<rect x="404.865" y="241.372" style="fill:none;stroke:#000000;stroke-miterlimit:10;" width="13.53" height="9.911"></rect>			<rect x="421.552" y="241.372" style="fill:none;stroke:#000000;stroke-miterlimit:10;" width="13.53" height="9.911"></rect>			<rect x="438.24" y="241.372" style="fill:none;stroke:#000000;stroke-miterlimit:10;" width="13.53" height="9.911"></rect>			<rect x="454.927" y="241.372" style="fill:none;stroke:#000000;stroke-miterlimit:10;" width="13.531" height="9.911"></rect>			<rect x="471.615" y="241.372" style="fill:none;stroke:#000000;stroke-miterlimit:10;" width="13.53" height="9.911"></rect>		</g>		<g>			<rect x="404.865" y="256.734" style="fill:none;stroke:#000000;stroke-miterlimit:10;" width="13.53" height="9.911"></rect>			<rect x="421.552" y="256.734" style="fill:none;stroke:#000000;stroke-miterlimit:10;" width="13.53" height="9.911"></rect>			<rect x="438.24" y="256.734" style="fill:none;stroke:#000000;stroke-miterlimit:10;" width="13.53" height="9.911"></rect>			<rect x="454.927" y="256.734" style="fill:none;stroke:#000000;stroke-miterlimit:10;" width="13.531" height="9.911"></rect>			<rect x="471.615" y="256.734" style="fill:none;stroke:#000000;stroke-miterlimit:10;" width="13.53" height="9.911"></rect>		</g>		<g>			<rect x="404.865" y="284.486" style="fill:none;stroke:#000000;stroke-miterlimit:10;" width="13.53" height="9.911"></rect>			<rect x="421.552" y="284.486" style="fill:none;stroke:#000000;stroke-miterlimit:10;" width="13.53" height="9.911"></rect>			<rect x="438.24" y="284.486" style="fill:none;stroke:#000000;stroke-miterlimit:10;" width="13.53" height="9.911"></rect>			<rect x="454.927" y="284.486" style="fill:none;stroke:#000000;stroke-miterlimit:10;" width="13.531" height="9.911"></rect>			<rect x="471.615" y="284.486" style="fill:none;stroke:#000000;stroke-miterlimit:10;" width="13.53" height="9.911"></rect>		</g>	</g></g><g id="Plant">	<g>		<path style="fill:#263238;" d="M700.983,435.243c0.022,0.014,0.455-1.664,0.47-1.773c0.175-1.262-0.228-3.803-1.513-4.423   c-0.926-0.447-1.96,0.091-2.297,1.018c-0.344,0.947,0.093,2.108,0.61,2.906C698.861,433.908,700.982,435.242,700.983,435.243z"></path>		<path style="fill:#263238;" d="M675.653,434.7c1.024,0.447,3.528,0.39,3.53,0.39c0.026-0.001-0.539-1.639-0.586-1.739   c-0.55-1.149-2.288-3.046-3.702-2.855c-1.019,0.138-1.585,1.158-1.354,2.116C673.776,433.592,674.781,434.319,675.653,434.7z"></path>		<path style="fill:#263238;" d="M676.519,441.954c1.062,0.155,3.297-0.494,3.475-0.547c0.353,1.251,0.817,2.506,1.357,3.75   c0.307,0.712,0.64,1.419,0.981,2.124c-0.204-0.299-0.388-0.564-0.418-0.598c-0.834-0.963-3.012-2.334-4.325-1.776   c-0.946,0.402-1.223,1.535-0.747,2.399c0.485,0.883,1.647,1.319,2.589,1.456c0.956,0.139,2.872-0.376,3.377-0.519   c0.134,0.269,0.265,0.539,0.4,0.808c0.648,1.288,1.299,2.571,1.9,3.849c0.212,0.45,0.404,0.901,0.598,1.352   c-0.181-0.265-0.336-0.487-0.363-0.518c-0.834-0.963-3.011-2.334-4.325-1.776c-0.946,0.402-1.223,1.535-0.747,2.399   c0.485,0.882,1.647,1.319,2.589,1.455c0.912,0.133,2.685-0.327,3.286-0.494c0.185,0.468,0.37,0.935,0.528,1.397   c0.101,0.318,0.22,0.616,0.303,0.941c0.089,0.319,0.178,0.636,0.265,0.949c0.146,0.61,0.301,1.238,0.429,1.836   c0.092,0.415,0.172,0.813,0.254,1.213c-0.206-0.451-0.627-1.324-0.67-1.393c-0.678-1.078-2.623-2.763-4.006-2.411   c-0.996,0.254-1.441,1.332-1.102,2.258c0.346,0.946,1.428,1.553,2.338,1.831c1.002,0.306,3.22,0.025,3.497-0.012   c0.133,0.663,0.256,1.309,0.363,1.92c0.373,2.113,0.604,3.888,0.748,5.132l0.967,0c-0.005-0.037-0.01-0.071-0.015-0.11   c-0.174-1.256-0.446-3.047-0.87-5.177c-0.132-0.674-0.288-1.391-0.453-2.126c0.167-0.066,1.113-0.449,1.951-0.918   c0.73,0.79,2.602,1.715,2.844,1.833c-0.255,0.626-0.508,1.233-0.757,1.802c-0.855,1.97-1.642,3.578-2.208,4.696l1.062,0   c0.526-1.111,1.202-2.596,1.925-4.367c0.261-0.635,0.527-1.318,0.794-2.023c0.268,0.056,2.465,0.502,3.488,0.27   c0.928-0.21,2.052-0.736,2.467-1.653c0.407-0.899,0.042-2.006-0.932-2.333c-1.352-0.454-3.417,1.083-4.173,2.108   c-0.045,0.061-0.455,0.771-0.707,1.223c0.108-0.289,0.215-0.567,0.322-0.866c0.216-0.588,0.414-1.182,0.629-1.82   c0.093-0.311,0.187-0.626,0.282-0.944c0.101-0.313,0.168-0.657,0.254-0.988c0.183-0.772,0.332-1.564,0.464-2.365   c0.516,0.188,2.357,0.827,3.31,0.76c0.949-0.067,2.14-0.416,2.689-1.26c0.538-0.827,0.346-1.977-0.568-2.448   c-1.268-0.654-3.541,0.553-4.444,1.452c-0.056,0.056-0.632,0.774-0.94,1.174c0.076-0.482,0.154-0.963,0.214-1.453   c0.175-1.415,0.308-2.852,0.448-4.285c0.042-0.439,0.09-0.876,0.136-1.314c0.183,0.069,2.355,0.876,3.423,0.801   c0.949-0.067,2.14-0.416,2.689-1.26c0.538-0.827,0.346-1.977-0.568-2.448c-1.268-0.654-3.541,0.553-4.444,1.452   c-0.068,0.068-0.894,1.102-1.091,1.375c0.102-0.964,0.212-1.923,0.359-2.865c0.201-1.299,0.47-2.563,0.821-3.768   c0.085,0.032,2.348,0.886,3.442,0.809c0.949-0.067,2.14-0.416,2.689-1.26c0.538-0.827,0.346-1.977-0.568-2.448   c-1.268-0.654-3.541,0.553-4.444,1.452c-0.059,0.059-0.689,0.846-0.98,1.228c-0.04-0.021-0.033-0.017-0.073-0.038   c0.392-1.286,0.933-2.483,1.495-3.578c0.324-0.635,0.67-1.224,1.019-1.789c0.405,0.202,2.267,1.105,3.259,1.145   c0.951,0.038,2.173-0.179,2.812-0.957c0.625-0.763,0.56-1.927-0.296-2.495c-1.189-0.789-3.58,0.16-4.576,0.955   c-0.054,0.043-0.556,0.543-0.917,0.913c0.161-0.253,0.323-0.517,0.483-0.756c0.597-0.899,1.198-1.685,1.737-2.378   c0.31-0.391,0.597-0.739,0.869-1.061c0.501-0.009,2.52-0.071,3.403-0.486c0.861-0.405,1.846-1.16,2.054-2.145   c0.204-0.965-0.391-1.969-1.413-2.078c-1.419-0.152-3.104,1.792-3.622,2.956c-0.045,0.101-0.564,1.754-0.538,1.754   c0,0,0.024,0,0.03,0c-0.268,0.305-0.553,0.635-0.856,1.002c-0.555,0.682-1.175,1.457-1.794,2.347   c-0.62,0.887-1.269,1.869-1.859,2.964c-0.593,1.097-1.161,2.282-1.588,3.578c-0.005,0.015-0.008,0.03-0.013,0.045   c0.007-0.418-0.012-1.587-0.023-1.677c-0.164-1.263-1.224-3.608-2.627-3.867c-1.011-0.186-1.867,0.606-1.947,1.589   c-0.082,1.004,0.646,2.008,1.356,2.642c0.801,0.715,3.022,1.406,3.2,1.461c-0.396,1.238-0.701,2.541-0.937,3.876   c-0.136,0.763-0.249,1.536-0.353,2.313c-0.005-0.362-0.013-0.685-0.019-0.73c-0.164-1.264-1.224-3.608-2.627-3.867   c-1.011-0.187-1.867,0.606-1.947,1.589c-0.082,1.004,0.646,2.008,1.356,2.642c0.72,0.643,2.603,1.271,3.103,1.43   c-0.037,0.298-0.077,0.596-0.112,0.894c-0.171,1.432-0.335,2.862-0.539,4.259c-0.072,0.492-0.16,0.975-0.247,1.458   c-0.005-0.321-0.012-0.592-0.017-0.633c-0.164-1.263-1.224-3.608-2.627-3.867c-1.011-0.187-1.867,0.605-1.947,1.589   c-0.082,1.004,0.646,2.008,1.356,2.642c0.687,0.614,2.42,1.209,3.013,1.401c-0.104,0.492-0.207,0.985-0.33,1.457   c-0.091,0.32-0.157,0.635-0.266,0.952c-0.102,0.316-0.203,0.628-0.302,0.938c-0.214,0.589-0.431,1.198-0.655,1.768   c-0.152,0.397-0.305,0.773-0.457,1.152c0.077-0.489,0.208-1.451,0.21-1.532c0.019-0.846-0.282-2.222-0.88-3.189   c0.003-0.125-0.004-0.25-0.024-0.373c-0.157-0.974-1.072-1.697-2.065-1.432c-1.379,0.367-2.252,2.788-2.317,4.06   c-0.004,0.075,0.046,0.894,0.085,1.41c-0.07-0.3-0.133-0.592-0.209-0.9c-0.145-0.61-0.307-1.214-0.479-1.865   c-0.094-0.311-0.19-0.626-0.286-0.943c-0.089-0.317-0.223-0.641-0.333-0.964c-0.273-0.746-0.586-1.488-0.917-2.228   c0.534-0.128,2.422-0.61,3.18-1.192c0.755-0.579,1.555-1.527,1.548-2.534c-0.007-0.986-0.802-1.84-1.824-1.728   c-1.418,0.155-2.649,2.414-2.906,3.662c-0.016,0.078-0.1,0.994-0.136,1.498c-0.203-0.444-0.403-0.888-0.623-1.33   c-0.634-1.276-1.316-2.549-1.991-3.821c-0.207-0.39-0.408-0.78-0.612-1.171c0.19-0.044,2.448-0.568,3.297-1.22   c0.755-0.579,1.555-1.528,1.548-2.535c-0.008-0.986-0.802-1.839-1.824-1.728c-1.418,0.155-2.649,2.415-2.906,3.662   c-0.019,0.094-0.138,1.412-0.152,1.749c-0.447-0.86-0.885-1.721-1.281-2.587c-0.549-1.195-1.022-2.397-1.394-3.596   c0.089-0.02,2.447-0.557,3.317-1.224c0.755-0.579,1.555-1.527,1.548-2.535c-0.007-0.986-0.802-1.839-1.824-1.728   c-1.419,0.154-2.649,2.414-2.906,3.662c-0.017,0.082-0.108,1.087-0.141,1.565c-0.044,0.005-0.036,0.004-0.081,0.009   c-0.383-1.289-0.592-2.586-0.727-3.81c-0.08-0.708-0.117-1.39-0.137-2.054c0.45-0.055,2.501-0.328,3.35-0.843   c0.814-0.493,1.714-1.347,1.817-2.349c0.101-0.981-0.595-1.916-1.623-1.918c-1.427-0.002-2.898,2.109-3.29,3.321   c-0.021,0.066-0.164,0.76-0.261,1.267c-0.005-0.3-0.015-0.609-0.014-0.897c0.001-1.079,0.069-2.067,0.137-2.941   c0.042-0.497,0.09-0.945,0.14-1.365c0.413-0.284,2.063-1.449,2.57-2.282c0.495-0.813,0.9-1.986,0.53-2.922   c-0.362-0.917-1.412-1.426-2.325-0.954c-1.267,0.655-1.6,3.207-1.39,4.464c0.018,0.109,0.497,1.774,0.519,1.76   c0,0,0.02-0.014,0.025-0.017c-0.056,0.402-0.11,0.835-0.161,1.308c-0.086,0.875-0.176,1.864-0.201,2.947   c-0.028,1.082-0.028,2.259,0.085,3.498c0.111,1.242,0.29,2.544,0.649,3.861c0.004,0.015,0.01,0.03,0.014,0.045   c-0.224-0.353-0.885-1.317-0.945-1.386c-0.834-0.963-3.011-2.334-4.324-1.776c-0.946,0.402-1.223,1.535-0.747,2.399   C674.416,441.381,675.578,441.817,676.519,441.954z"></path>		<path style="opacity:0.3;fill:#263238;" d="M675.653,434.7c1.024,0.447,3.528,0.39,3.53,0.39c0.026-0.001-0.539-1.639-0.586-1.739   c-0.55-1.149-2.288-3.046-3.702-2.855c-1.019,0.138-1.585,1.158-1.354,2.116C673.776,433.592,674.781,434.319,675.653,434.7z"></path>		<path style="opacity:0.3;fill:#263238;" d="M700.983,435.243c0.022,0.014,0.455-1.664,0.47-1.773   c0.175-1.262-0.228-3.803-1.513-4.423c-0.926-0.447-1.96,0.091-2.297,1.018c-0.344,0.947,0.093,2.108,0.61,2.906   C698.861,433.908,700.982,435.242,700.983,435.243z"></path>		<path style="opacity:0.3;fill:#263238;" d="M676.519,441.954c1.062,0.155,3.297-0.494,3.475-0.547   c0.353,1.251,0.817,2.506,1.357,3.75c0.307,0.712,0.64,1.419,0.981,2.124c-0.204-0.299-0.388-0.564-0.418-0.598   c-0.834-0.963-3.012-2.334-4.325-1.776c-0.946,0.402-1.223,1.535-0.747,2.399c0.485,0.883,1.647,1.319,2.589,1.456   c0.956,0.139,2.872-0.376,3.377-0.519c0.134,0.269,0.265,0.539,0.4,0.808c0.648,1.288,1.299,2.571,1.9,3.849   c0.212,0.45,0.404,0.901,0.598,1.352c-0.181-0.265-0.336-0.487-0.363-0.518c-0.834-0.963-3.011-2.334-4.325-1.776   c-0.946,0.402-1.223,1.535-0.747,2.399c0.485,0.882,1.647,1.319,2.589,1.455c0.912,0.133,2.685-0.327,3.286-0.494   c0.185,0.468,0.37,0.935,0.528,1.397c0.101,0.318,0.22,0.616,0.303,0.941c0.089,0.319,0.178,0.636,0.265,0.949   c0.146,0.61,0.301,1.238,0.429,1.836c0.092,0.415,0.172,0.813,0.254,1.213c-0.206-0.451-0.627-1.324-0.67-1.393   c-0.678-1.078-2.623-2.763-4.006-2.411c-0.996,0.254-1.441,1.332-1.102,2.258c0.346,0.946,1.428,1.553,2.338,1.831   c1.002,0.306,3.22,0.025,3.497-0.012c0.133,0.663,0.256,1.309,0.363,1.92c0.373,2.113,0.604,3.888,0.748,5.132l0.967,0   c-0.005-0.037-0.01-0.071-0.015-0.11c-0.174-1.256-0.446-3.047-0.87-5.177c-0.132-0.674-0.288-1.391-0.453-2.126   c0.167-0.066,1.113-0.449,1.951-0.918c0.73,0.79,2.602,1.715,2.844,1.833c-0.255,0.626-0.508,1.233-0.757,1.802   c-0.855,1.97-1.642,3.578-2.208,4.696l1.062,0c0.526-1.111,1.202-2.596,1.925-4.367c0.261-0.635,0.527-1.318,0.794-2.023   c0.268,0.056,2.465,0.502,3.488,0.27c0.928-0.21,2.052-0.736,2.467-1.653c0.407-0.899,0.042-2.006-0.932-2.333   c-1.352-0.454-3.417,1.083-4.173,2.108c-0.045,0.061-0.455,0.771-0.707,1.223c0.108-0.289,0.215-0.567,0.322-0.866   c0.216-0.588,0.414-1.182,0.629-1.82c0.093-0.311,0.187-0.626,0.282-0.944c0.101-0.313,0.168-0.657,0.254-0.988   c0.183-0.772,0.332-1.564,0.464-2.365c0.516,0.188,2.357,0.827,3.31,0.76c0.949-0.067,2.14-0.416,2.689-1.26   c0.538-0.827,0.346-1.977-0.568-2.448c-1.268-0.654-3.541,0.553-4.444,1.452c-0.056,0.056-0.632,0.774-0.94,1.174   c0.076-0.482,0.154-0.963,0.214-1.453c0.175-1.415,0.308-2.852,0.448-4.285c0.042-0.439,0.09-0.876,0.136-1.314   c0.183,0.069,2.355,0.876,3.423,0.801c0.949-0.067,2.14-0.416,2.689-1.26c0.538-0.827,0.346-1.977-0.568-2.448   c-1.268-0.654-3.541,0.553-4.444,1.452c-0.068,0.068-0.894,1.102-1.091,1.375c0.102-0.964,0.212-1.923,0.359-2.865   c0.201-1.299,0.47-2.563,0.821-3.768c0.085,0.032,2.348,0.886,3.442,0.809c0.949-0.067,2.14-0.416,2.689-1.26   c0.538-0.827,0.346-1.977-0.568-2.448c-1.268-0.654-3.541,0.553-4.444,1.452c-0.059,0.059-0.689,0.846-0.98,1.228   c-0.04-0.021-0.033-0.017-0.073-0.038c0.392-1.286,0.933-2.483,1.495-3.578c0.324-0.635,0.67-1.224,1.019-1.789   c0.405,0.202,2.267,1.105,3.259,1.145c0.951,0.038,2.173-0.179,2.812-0.957c0.625-0.763,0.56-1.927-0.296-2.495   c-1.189-0.789-3.58,0.16-4.576,0.955c-0.054,0.043-0.556,0.543-0.917,0.913c0.161-0.253,0.323-0.517,0.483-0.756   c0.597-0.899,1.198-1.685,1.737-2.378c0.31-0.391,0.597-0.739,0.869-1.061c0.501-0.009,2.52-0.071,3.403-0.486   c0.861-0.405,1.846-1.16,2.054-2.145c0.204-0.965-0.391-1.969-1.413-2.078c-1.419-0.152-3.104,1.792-3.622,2.956   c-0.045,0.101-0.564,1.754-0.538,1.754c0,0,0.024,0,0.03,0c-0.268,0.305-0.553,0.635-0.856,1.002   c-0.555,0.682-1.175,1.457-1.794,2.347c-0.62,0.887-1.269,1.869-1.859,2.964c-0.593,1.097-1.161,2.282-1.588,3.578   c-0.005,0.015-0.008,0.03-0.013,0.045c0.007-0.418-0.012-1.587-0.023-1.677c-0.164-1.263-1.224-3.608-2.627-3.867   c-1.011-0.186-1.867,0.606-1.947,1.589c-0.082,1.004,0.646,2.008,1.356,2.642c0.801,0.715,3.022,1.406,3.2,1.461   c-0.396,1.238-0.701,2.541-0.937,3.876c-0.136,0.763-0.249,1.536-0.353,2.313c-0.005-0.362-0.013-0.685-0.019-0.73   c-0.164-1.264-1.224-3.608-2.627-3.867c-1.011-0.187-1.867,0.606-1.947,1.589c-0.082,1.004,0.646,2.008,1.356,2.642   c0.72,0.643,2.603,1.271,3.103,1.43c-0.037,0.298-0.077,0.596-0.112,0.894c-0.171,1.432-0.335,2.862-0.539,4.259   c-0.072,0.492-0.16,0.975-0.247,1.458c-0.005-0.321-0.012-0.592-0.017-0.633c-0.164-1.263-1.224-3.608-2.627-3.867   c-1.011-0.187-1.867,0.605-1.947,1.589c-0.082,1.004,0.646,2.008,1.356,2.642c0.687,0.614,2.42,1.209,3.013,1.401   c-0.104,0.492-0.207,0.985-0.33,1.457c-0.091,0.32-0.157,0.635-0.266,0.952c-0.102,0.316-0.203,0.628-0.302,0.938   c-0.214,0.589-0.431,1.198-0.655,1.768c-0.152,0.397-0.305,0.773-0.457,1.152c0.077-0.489,0.208-1.451,0.21-1.532   c0.019-0.846-0.282-2.222-0.88-3.189c0.003-0.125-0.004-0.25-0.024-0.373c-0.157-0.974-1.072-1.697-2.065-1.432   c-1.379,0.367-2.252,2.788-2.317,4.06c-0.004,0.075,0.046,0.894,0.085,1.41c-0.07-0.3-0.133-0.592-0.209-0.9   c-0.145-0.61-0.307-1.214-0.479-1.865c-0.094-0.311-0.19-0.626-0.286-0.943c-0.089-0.317-0.223-0.641-0.333-0.964   c-0.273-0.746-0.586-1.488-0.917-2.228c0.534-0.128,2.422-0.61,3.18-1.192c0.755-0.579,1.555-1.527,1.548-2.534   c-0.007-0.986-0.802-1.84-1.824-1.728c-1.418,0.155-2.649,2.414-2.906,3.662c-0.016,0.078-0.1,0.994-0.136,1.498   c-0.203-0.444-0.403-0.888-0.623-1.33c-0.634-1.276-1.316-2.549-1.991-3.821c-0.207-0.39-0.408-0.78-0.612-1.171   c0.19-0.044,2.448-0.568,3.297-1.22c0.755-0.579,1.555-1.528,1.548-2.535c-0.008-0.986-0.802-1.839-1.824-1.728   c-1.418,0.155-2.649,2.415-2.906,3.662c-0.019,0.094-0.138,1.412-0.152,1.749c-0.447-0.86-0.885-1.721-1.281-2.587   c-0.549-1.195-1.022-2.397-1.394-3.596c0.089-0.02,2.447-0.557,3.317-1.224c0.755-0.579,1.555-1.527,1.548-2.535   c-0.007-0.986-0.802-1.839-1.824-1.728c-1.419,0.154-2.649,2.414-2.906,3.662c-0.017,0.082-0.108,1.087-0.141,1.565   c-0.044,0.005-0.036,0.004-0.081,0.009c-0.383-1.289-0.592-2.586-0.727-3.81c-0.08-0.708-0.117-1.39-0.137-2.054   c0.45-0.055,2.501-0.328,3.35-0.843c0.814-0.493,1.714-1.347,1.817-2.349c0.101-0.981-0.595-1.916-1.623-1.918   c-1.427-0.002-2.898,2.109-3.29,3.321c-0.021,0.066-0.164,0.76-0.261,1.267c-0.005-0.3-0.015-0.609-0.014-0.897   c0.001-1.079,0.069-2.067,0.137-2.941c0.042-0.497,0.09-0.945,0.14-1.365c0.413-0.284,2.063-1.449,2.57-2.282   c0.495-0.813,0.9-1.986,0.53-2.922c-0.362-0.917-1.412-1.426-2.325-0.954c-1.267,0.655-1.6,3.207-1.39,4.464   c0.018,0.109,0.497,1.774,0.519,1.76c0,0,0.02-0.014,0.025-0.017c-0.056,0.402-0.11,0.835-0.161,1.308   c-0.086,0.875-0.176,1.864-0.201,2.947c-0.028,1.082-0.028,2.259,0.085,3.498c0.111,1.242,0.29,2.544,0.649,3.861   c0.004,0.015,0.01,0.03,0.014,0.045c-0.224-0.353-0.885-1.317-0.945-1.386c-0.834-0.963-3.011-2.334-4.324-1.776   c-0.946,0.402-1.223,1.535-0.747,2.399C674.416,441.381,675.578,441.817,676.519,441.954z"></path>	</g></g><g id="Trees">	<g>		<g>			<path style="fill:#92E3A9;" d="M657.634,171.733c0,54.717-46.813,99.074-104.56,99.074c-57.747,0-104.56-44.357-104.56-99.074    c0-54.717,46.813-133.927,104.56-133.927C610.821,37.806,657.634,117.016,657.634,171.733z"></path>			<path style="opacity:0.32;fill:#FFFFFF;" d="M657.634,171.733c0,54.717-46.813,99.074-104.56,99.074    c-57.747,0-104.56-44.357-104.56-99.074c0-54.717,46.813-133.927,104.56-133.927C610.821,37.806,657.634,117.016,657.634,171.733    z"></path>		</g>		<polygon style="fill:#787878;" points="544.181,468.184 545.836,255.251 514.18,207.52 545.809,242.744 545.809,206.083    528.557,150.012 547.246,194.581 550.492,121.712 552.279,201.051 552.997,213.99 603.317,167.265 555.154,224.054    554.435,242.744 575.281,225.491 596.128,193.862 581.423,223.526 614.099,221.897 578.876,227.271 555.873,249.555    557.31,468.134   "></polygon>	</g>	<g>		<g>			<path style="fill:#92E3A9;" d="M257.11,171.733c0,54.717-46.813,99.074-104.56,99.074c-57.747,0-104.56-44.357-104.56-99.074    c0-54.717,46.813-133.927,104.56-133.927C210.297,37.806,257.11,117.016,257.11,171.733z"></path>			<path style="opacity:0.32;fill:#FFFFFF;" d="M257.11,171.733c0,54.717-46.813,99.074-104.56,99.074    c-57.747,0-104.56-44.357-104.56-99.074c0-54.717,46.813-133.927,104.56-133.927C210.297,37.806,257.11,117.016,257.11,171.733z"></path>		</g>		<polygon style="fill:#787878;" points="143.658,468.184 145.313,255.251 113.656,207.52 145.285,242.744 145.285,206.083    128.033,150.012 146.723,194.581 149.969,121.712 151.755,201.051 152.474,213.99 202.793,167.265 154.63,224.054    153.912,242.744 174.758,225.491 195.605,193.862 180.9,223.526 213.576,221.897 178.352,227.271 155.349,249.555    156.787,468.134   "></polygon>	</g></g><g id="Bus">	<g>		<g>			<path style="fill:#636363;stroke:#263238;stroke-miterlimit:10;" d="M251.726,132.439v210.664h155.23V132.439H251.726z     M388.469,272.823c0,5.756-4.667,10.423-10.423,10.423h-91.563c-5.756,0-10.423-4.667-10.423-10.423V171.675    c0-5.756,4.666-10.423,10.423-10.423h91.563c5.756,0,10.423,4.666,10.423,10.423V272.823z"></path>			<g>				<g>					<path style="fill:#ABABAB;stroke:#263238;stroke-miterlimit:10;" d="M292.266,194.305c0,0,0.83,6.538,0.415,8.509      c-0.415,1.972-0.83,4.981-0.83,4.981l13.802,8.613l1.453-8.198c0,0-6.849-5.085-10.066-7.887      C293.822,197.522,292.266,194.305,292.266,194.305z"></path>					<g>						<path style="fill:#263238;stroke:#263238;stroke-miterlimit:10;" d="M319.039,186.729c0,0,2.698,0.934,1.038,1.868       c-1.66,0.934-7.679,0.415-7.679,0.415l0.208-1.557C312.605,187.456,317.379,186.107,319.039,186.729z"></path>						<path style="fill:#ABABAB;stroke:#263238;stroke-miterlimit:10;" d="M291.954,196.38c0,0,1.245,4.566,2.906,6.33       c1.66,1.764,7.679,8.094,12.038,7.368c4.358-0.726,5.708-5.708,6.434-8.51c0.726-2.802,0.934-8.821,0.726-9.962       c-0.208-1.141-1.038-5.5-1.038-5.5l-21.896,1.972C291.124,188.078,291.02,193.682,291.954,196.38z"></path>						<path style="fill:#ABABAB;stroke:#263238;stroke-miterlimit:10;" d="M293.926,192.022c0,0-0.83-2.491-2.802-1.141       c-1.972,1.349-2.179,4.67-0.726,5.708c1.453,1.038,3.425,0.934,3.425,0.934"></path>						<path style="fill:none;stroke:#263238;stroke-linecap:round;stroke-linejoin:round;stroke-miterlimit:10;" d="       M306.068,190.569c0,0-3.217-0.623-5.189,0.934"></path>						<path style="fill:none;stroke:#263238;stroke-linecap:round;stroke-linejoin:round;stroke-miterlimit:10;" d="       M313.643,190.569c0,0-1.349-0.519-2.283,0.311c0,0-1.557,1.868-0.83,4.877"></path>						<path style="fill:#263238;" d="M309.803,199.39c-1.972,0.104-3.425,0.415-4.462-0.104c0,0-5.708,0-6.33,2.283       c-0.478,1.754-0.707,3.508,0.104,5.168c2.417,1.964,5.357,3.746,7.782,3.342c2.875-0.479,4.436-2.809,5.377-5.144       c0.066-0.419,0.109-0.819,0.123-1.186C312.501,200.946,311.775,199.286,309.803,199.39z M311.182,204.898       c-0.79,1.959-2.099,3.914-4.511,4.316c-2.035,0.339-4.501-1.156-6.529-2.803c-0.681-1.393-0.489-2.864-0.088-4.335       c0.522-1.915,5.31-1.915,5.31-1.915c0.87,0.435,2.089,0.174,3.743,0.087c1.654-0.087,2.263,1.306,2.176,3.656       C311.274,204.211,311.237,204.547,311.182,204.898z"></path>						<path style="fill:none;stroke:#263238;stroke-linecap:round;stroke-linejoin:round;stroke-miterlimit:10;" d="M302.02,201.569       c0,0,4.255,2.179,7.887,0.311"></path>						<path style="fill:none;stroke:#263238;stroke-linecap:round;stroke-linejoin:round;stroke-miterlimit:10;" d="       M310.737,198.352c0,0,0.311,0.726-0.934,1.038c-1.245,0.311-3.528,0.83-4.462-0.104c-0.934-0.934,0-1.557,0-1.557"></path>						<ellipse style="fill:#263238;" cx="302.85" cy="193.475" rx="0.83" ry="1.141"></ellipse>						<path style="fill:#263238;" d="M312.239,193.551c0,0.531-0.313,0.961-0.699,0.961c-0.386,0-0.699-0.43-0.699-0.961       s0.313-0.961,0.699-0.961C311.926,192.59,312.239,193.021,312.239,193.551z"></path>						<path style="fill:none;stroke:#263238;stroke-linecap:round;stroke-linejoin:round;stroke-miterlimit:10;" d="M299.322,194.72       c0,0,1.764,0.104,3.01,0.83"></path>						<path style="fill:#FFFFFF;stroke:#263238;stroke-miterlimit:10;" d="M289.982,190.776c0,0,12.453-4.151,24.283-3.113       c0,0,0.623-6.019-1.142-8.613c-1.764-2.594-8.406-5.5-12.245-5.189c-3.84,0.311-11,5.915-12.142,7.783       C287.596,183.512,289.982,190.776,289.982,190.776z"></path>						<path style="fill:#FFFFFF;stroke:#263238;stroke-miterlimit:10;" d="M294.964,189.842c0,0,10.481,1.245,14.217-0.623       c3.736-1.868,9.962-2.076,9.859-2.491c-0.104-0.415-1.349-1.038-9.651-0.415C301.086,186.937,294.964,189.842,294.964,189.842       z"></path>					</g>					<polygon style="fill:#969696;stroke:#263238;stroke-miterlimit:10;" points="283.382,302.255 274.681,339.199 337.119,339.199       327.196,302.561      "></polygon>					<path style="fill:#263238;stroke:#263238;stroke-miterlimit:10;" d="M266.742,248.366c0,0,3.358,45.188,5.343,49.157      c1.984,3.969,6.259,4.58,9.007,4.58c2.748,0,60.606,0,60.606,0s4.885-9.618,4.733-11.45c-0.153-1.832-2.137-1.527-3.359-1.527      c-1.221,0-39.692-0.305-39.692-0.305s-8.675-1.62-10.596-4.855c-1.922-3.236-2.532-1.556-3.906-8.273      c-1.374-6.717-4.58-23.357-6.259-27.174C280.94,244.702,270.101,239.207,266.742,248.366z"></path>					<g>						<path style="fill:#ABABAB;stroke:#263238;stroke-miterlimit:10;" d="M349.341,267.673c0,0,11.519,0.311,13.698,0.934       c2.179,0.623,3.736,2.906,3.84,6.953c0.104,4.047-1.557,8.613-2.076,9.858c-0.519,1.245-9.132,20.444-11,25.944       c-1.868,5.5-2.906,15.255-3.009,15.566c-0.104,0.311,0.311,0.104-1.66,0.311c-1.972,0.207-7.16-1.764-7.472-1.972       c-0.311-0.207,2.179-12.349,3.113-19.717c0.934-7.368,2.698-17.642,3.217-18.991c0.519-1.349,1.557-3.944,1.557-3.944       L349.341,267.673z"></path>						<path style="fill:none;stroke:#263238;stroke-miterlimit:10;" d="M349.549,282.617c0,0,3.321-0.934,4.566-2.491"></path>					</g>					<g>						<path style="fill:#FFFFFF;stroke:#263238;stroke-miterlimit:10;" d="M322.879,267.569c0,0,10.378-1.141,17.849-0.934       c7.472,0.208,9.755,0.311,9.755,0.311s0.415,12.972-1.245,17.642c-1.66,4.67-1.868,5.189-1.868,5.189       s-37.67-0.727-40.264-0.727c-2.594,0-7.991,0.623-11.208-1.66c-3.217-2.283-4.359-4.359-4.359-4.359s0.519-6.745,4.67-8.717       c4.151-1.972,13.387-8.198,17.019-8.717C316.86,265.079,322.879,267.569,322.879,267.569z"></path>						<path style="fill:none;stroke:#263238;stroke-miterlimit:10;" d="M302.332,280.23l1.66,0.519c0,0,1.245-1.142,1.972-0.726       c0.726,0.415,1.349,1.557,1.349,1.557s0.519-0.311,1.141,0c0.623,0.311,1.557,0.519,1.557,0.519s1.349,0.208,5.915,0.519       c4.566,0.311,21.896-0.207,23.868-0.519c1.972-0.311,4.255-0.623,5.604-0.207c1.349,0.415,3.217-0.104,3.217-0.104"></path>						<g>							<path style="fill:none;stroke:#263238;stroke-miterlimit:10;" d="M315.615,269.23c0,0-3.84,11.727-6.434,15.151"></path>							<path style="fill:none;stroke:#263238;stroke-miterlimit:10;" d="M313.124,268.607c0,0-5.396,14.321-8.717,18.16"></path>							<path style="fill:none;stroke:#263238;stroke-miterlimit:10;" d="M308.662,274.522c0,0-3.632,5.604-6.019,7.887"></path>						</g>					</g>					<path style="fill:#92E3A9;stroke:#263238;stroke-miterlimit:10;" d="M309.492,218.069c0,0-5.811-4.047-12.038-8.406      c-6.227-4.359-5.189-4.774-7.783-2.698c-2.594,2.076-5.708,8.302-7.472,14.113c-1.764,5.811-3.217,11.623-2.698,16.293      c0.519,4.67,6.642,31.236,6.953,34.142c0.311,2.906,0.726,6.019,2.283,8.821c1.557,2.802,4.047,3.632,4.047,3.632      s3.943-0.934,11.415-5.293c7.472-4.358,10.793-11,10.793-11l2.076,1.245c0,0,5.085-0.104,5.604-0.104      c0.519,0,2.283-1.557,3.01-3.528c0.726-1.972,0.519-7.576-4.877-22.727c-5.396-15.151-9.962-21.481-10.274-22.312      C310.219,219.418,309.492,218.069,309.492,218.069z"></path>					<g>						<path style="fill:#263238;" d="M296.944,257.941c10.332-0.735,19.25-3.662,26.157-8.531c-0.419-1.344-0.891-2.791-1.426-4.354       c-13.445,10.323-32.699,8.94-39.03,8.138c0.324,1.51,0.652,3.027,0.972,4.512c2.058,0.219,4.814,0.421,8.028,0.421       C293.304,258.128,295.082,258.074,296.944,257.941z"></path>						<path style="fill:#263238;" d="M324.129,252.885c-13.118,10.99-32.571,9.918-39.593,9.093       c0.352,1.641,0.676,3.163,0.955,4.501c1.993,0.197,4.557,0.366,7.503,0.366c1.659,0,3.437-0.054,5.299-0.186       c10.752-0.765,19.966-3.908,26.982-9.14C324.996,256.184,324.619,254.646,324.129,252.885z"></path>					</g>					<polygon style="fill:#263238;" points="292.473,217.861 290.501,210.597 294.237,210.39 296.831,216.305      "></polygon>					<g>						<path style="fill:#FFFFFF;stroke:#263238;stroke-miterlimit:10;" d="M352.662,323.504c0,0-1.453-0.519-2.076,0.415       c-0.623,0.934-1.557,2.283-1.557,2.283s-8.198-4.047-9.132-3.009c-0.934,1.038-1.245,1.972-1.142,3.632       c0.104,1.66-0.415,10.066,0,11.104c0.415,1.038,1.868,1.142,3.009,1.142s21.066,0.104,22.415,0.104       c1.349,0,4.255,0,4.255-2.179c0-2.179-1.245-3.425-2.283-3.736c-1.038-0.311-6.642-3.528-9.444-5.189       C353.908,326.41,353.181,324.023,352.662,323.504z"></path>						<line style="fill:#FFFFFF;stroke:#263238;stroke-miterlimit:10;" x1="339.275" y1="336.995" x2="368.436" y2="336.995"></line>					</g>					<path style="fill:#969696;stroke:#263238;stroke-miterlimit:10;" d="M278.344,232.642l-3.816-12.671      c0,0,4.275-9.77,1.527-18.472c-2.748-8.702-7.328-10.228-10.686-7.328c-3.358,2.901-4.732,25.189-4.732,28.09      c0,2.901,1.374,8.091,2.748,17.403c1.374,9.312,4.733,18.777,10.534,18.472s9.923-4.885,8.244-11.45      C280.482,240.123,278.344,232.642,278.344,232.642z"></path>					<path style="fill:#969696;stroke:#263238;stroke-miterlimit:10;" d="M290.405,292.027c0,0-0.763-1.527-3.053-8.854      c-2.29-7.328-6.259-9.77-10.381-7.786c-4.122,1.985-4.885,8.702-1.832,17.251c0,0,1.984,9.618,7.328,11.602      c5.343,1.985,56.637,0,56.637,0s1.679-0.153,3.206-3.816c1.527-3.664,0.763-2.137,0.763-2.137l-47.935-1.679      C295.137,296.607,291.626,296.454,290.405,292.027z"></path>					<polygon style="fill:#263238;stroke:#263238;stroke-miterlimit:10;" points="346.838,249.689 358.258,248.421 365.69,253.677       373.847,243.708 367.503,240.082 363.699,226.104      "></polygon>					<path style="fill:#263238;stroke:#263238;stroke-miterlimit:10;" d="M373.847,239.901c0,0-13.232,12.507-12.507,13.414      c0.725,0.906,11.964,20.664,11.964,20.664l14.501-20.302l-9.063-4.713c0,0,0.181-6.526,0.181-7.251      C378.922,240.989,376.928,238.27,373.847,239.901z"></path>					<polygon style="fill:#969696;stroke:#263238;stroke-miterlimit:10;" points="395.766,243.455 362.656,265.67 362.656,339.174       395.766,339.174      "></polygon>					<g>						<path style="fill:#263238;stroke:#263238;stroke-miterlimit:10;" d="M339.767,260.621c-0.373,0-0.751-0.112-1.079-0.344       c-0.842-0.597-1.04-1.763-0.443-2.605l29.184-41.147c0.597-0.841,1.764-1.041,2.605-0.443c0.842,0.597,1.04,1.763,0.443,2.604       l-29.184,41.147C340.928,260.347,340.352,260.621,339.767,260.621z"></path>					</g>					<g>						<path style="fill:#ABABAB;stroke:#263238;stroke-miterlimit:10;" d="M313.228,247.022c3.773-0.819,7.544-1.644,11.315-2.475       c4.505-0.993,9.094-1.708,13.471-3.208c3.601-1.234,8.308-3.454,10.602-6.666c1.557-2.179,2.179-3.113,3.528-3.321       c1.349-0.208,3.736,1.245,5.811,1.66s3.113,1.245,3.321,2.283c0.208,1.038-1.038,1.972-1.245,2.387       c-0.207,0.415-0.104,1.972-1.245,3.113c-1.141,1.141-2.594,1.66-2.594,1.66s-0.104,0.519-0.934,0.83s-5.604,0.519-6.434,0.519       s-6.538,4.358-12.245,6.953c-5.708,2.594-25.736,11.208-27.812,12.038s-4.047-0.104-4.566-1.557       c-0.519-1.453-4.151-9.028-4.151-9.028l12.453-6.434L313.228,247.022z"></path>						<path style="fill:#FFFFFF;stroke:#263238;stroke-miterlimit:10;" d="M292.369,215.994c0,0-6.123,6.953-5.293,11.934       c0.83,4.981,11.104,26.255,11.104,26.255l17.33-7.783c0,0-6.33-21.481-10.378-27.085       C301.086,213.71,294.756,213.399,292.369,215.994z"></path>					</g>				</g>			</g>		</g>		<g>			<g>				<rect x="416.951" y="348.801" style="fill:#636363;stroke:#263238;stroke-miterlimit:10;" width="140.785" height="66.615"></rect>				<path style="fill:#FFFFFF;stroke:#263238;stroke-miterlimit:10;" d="M569.709,376.259c-1.567-5.213-12.679-71.894-26.644-78.189     c-62.307-28.084-120.589-31.857-120.589-31.857l-9.497,4.169V429.13l9.12-13.254c0-0.024-0.002-0.048-0.002-0.072     c0-34.25,29.219-62.014,65.262-62.014c35.753,0,64.775,27.323,65.24,61.192h17.11     C569.709,414.981,571.277,381.472,569.709,376.259z"></path>				<path style="fill:#FFFFFF;stroke:#263238;stroke-miterlimit:10;" d="M570.061,378.327     c-14.739-29.316-46.23-49.571-82.702-49.571c-30.632,0-57.748,14.29-74.38,36.233v51.591l9.12-0.705     c0-0.024-0.002-0.048-0.002-0.072c0-34.25,29.219-62.014,65.262-62.014c35.753,0,64.775,27.323,65.24,61.192h17.11     C569.709,414.981,571.005,387.266,570.061,378.327z"></path>				<path style="fill:#263238;stroke:#263238;stroke-miterlimit:10;" d="M545.813,390.815c3.624,7.409,5.693,15.576,5.817,24.166     h18.042c0,0,0.747-15.165,0.733-26.678h-24.592V390.815z"></path>				<g>					<path style="fill:none;stroke:#263238;stroke-width:4;stroke-linecap:round;stroke-linejoin:round;stroke-miterlimit:10;" d="      M545.143,342.568v-38.742c0-9.856,7.99-17.846,17.846-17.846H573.9c8.521,0,15.428-6.907,15.428-15.428v-11.703"></path>					<g>						<path style="fill:#263238;stroke:#263238;stroke-miterlimit:10;" d="M589.127,251.506c0,0-17.036-0.289-19.634,1.444       c-2.599,1.732-2.887,7.507-0.866,11.55c2.021,4.042,6.352,8.085,7.507,8.662c1.155,0.578,10.683,0,13.859-1.732       C593.169,269.697,591.148,252.084,589.127,251.506z"></path>						<path style="fill:#FFFFFF;stroke:#263238;stroke-miterlimit:10;" d="M576.094,273.138c3.4-0.119,8.322-0.702,10.434-1.752       c3.176-1.578,1.155-17.623-0.866-18.149c0,0-11.586-0.178-17.104,0.645c-1.695,2.358-1.675,7.129,0.069,10.617       C570.628,268.502,574.889,272.499,576.094,273.138z"></path>					</g>					<path style="fill:#263238;stroke:#263238;stroke-miterlimit:10;" d="M538.692,342.379l3.811-10.046h4.85l3.464,12.818      c0,0,2.078,2.078,3.464,3.811c1.386,1.732,1.732,7.621,1.732,7.621S542.502,345.151,538.692,342.379z"></path>				</g>				<path style="fill:#FFFFFF;stroke:#263238;stroke-miterlimit:10;" d="M555.09,356.382c-2.504-0.45-9.016-0.934-5.451,7.216     c4.364,9.975,5.746,16.443,13.093,15.586c2.807-0.327,5.286-0.677,7.282-0.985C566.16,370.165,561.106,362.819,555.09,356.382z"></path>				<g>					<circle style="fill:#263238;stroke:#263238;stroke-miterlimit:10;" cx="491.492" cy="415.803" r="52.797"></circle>											<ellipse transform="matrix(0.9724 -0.2332 0.2332 0.9724 -83.4078 126.0672)" style="fill:#FFFFFF;stroke:#263238;stroke-miterlimit:10;" cx="491.492" cy="415.803" rx="34.356" ry="34.356"></ellipse>					<circle style="fill:#263238;stroke:#263238;stroke-miterlimit:10;" cx="491.492" cy="415.803" r="12.99"></circle>					<g>						<circle style="fill:#263238;stroke:#263238;stroke-miterlimit:10;" cx="491.492" cy="398.09" r="1.839"></circle>						<path style="fill:#263238;stroke:#263238;stroke-miterlimit:10;" d="M482.569,400.392c-0.597-0.822-1.748-1.004-2.57-0.407       c-0.822,0.597-1.004,1.748-0.407,2.569c0.597,0.822,1.747,1.004,2.569,0.407C482.984,402.364,483.166,401.214,482.569,400.392       z"></path>						<path style="fill:#263238;stroke:#263238;stroke-miterlimit:10;" d="M475.214,408.58c-0.966-0.314-2.004,0.215-2.318,1.181       c-0.314,0.966,0.215,2.004,1.181,2.318c0.966,0.314,2.004-0.215,2.318-1.181C476.71,409.932,476.181,408.894,475.214,408.58z"></path>						<path style="fill:#263238;stroke:#263238;stroke-miterlimit:10;" d="M474.078,419.528c-0.966,0.314-1.495,1.352-1.181,2.318       c0.314,0.966,1.352,1.495,2.318,1.181c0.966-0.314,1.495-1.352,1.181-2.318C476.082,419.742,475.044,419.214,474.078,419.528z       "></path>						<path style="fill:#263238;stroke:#263238;stroke-miterlimit:10;" d="M479.593,429.052c-0.597,0.822-0.415,1.972,0.407,2.569       c0.822,0.597,1.972,0.415,2.57-0.407c0.597-0.822,0.415-1.972-0.407-2.57C481.34,428.048,480.19,428.23,479.593,429.052z"></path>						<path style="fill:#263238;stroke:#263238;stroke-miterlimit:10;" d="M489.653,433.517c0,1.016,0.823,1.84,1.839,1.84       c1.016,0,1.84-0.824,1.84-1.84c0-1.016-0.824-1.84-1.84-1.84C490.476,431.677,489.653,432.501,489.653,433.517z"></path>						<path style="fill:#263238;stroke:#263238;stroke-miterlimit:10;" d="M500.416,431.215c0.597,0.822,1.747,1.004,2.569,0.407       c0.822-0.597,1.004-1.747,0.407-2.569s-1.747-1.004-2.569-0.407C500.001,429.243,499.818,430.393,500.416,431.215z"></path>						<path style="fill:#263238;stroke:#263238;stroke-miterlimit:10;" d="M507.77,423.027c0.966,0.314,2.004-0.215,2.318-1.181       c0.314-0.966-0.215-2.004-1.181-2.318c-0.966-0.314-2.004,0.215-2.318,1.181C506.275,421.675,506.804,422.713,507.77,423.027z       "></path>						<path style="fill:#263238;stroke:#263238;stroke-miterlimit:10;" d="M508.907,412.079c0.966-0.314,1.495-1.352,1.181-2.318       c-0.314-0.966-1.352-1.495-2.318-1.181c-0.966,0.314-1.495,1.352-1.181,2.318       C506.903,411.864,507.941,412.393,508.907,412.079z"></path>						<path style="fill:#263238;stroke:#263238;stroke-miterlimit:10;" d="M503.392,402.554c0.597-0.822,0.415-1.972-0.407-2.569       c-0.822-0.597-1.972-0.415-2.569,0.407c-0.597,0.822-0.415,1.972,0.407,2.569       C501.645,403.559,502.795,403.376,503.392,402.554z"></path>					</g>				</g>				<line style="fill:none;stroke:#263238;stroke-miterlimit:10;" x1="441.436" y1="268.573" x2="441.436" y2="340.094"></line>			</g>			<g>				<g>					<rect x="260.804" y="339.12" style="fill:#969696;stroke:#263238;stroke-miterlimit:10;" width="130.552" height="33.245"></rect>					<rect x="260.804" y="339.12" style="fill:#FFFFFF;stroke:#263238;stroke-miterlimit:10;" width="130.552" height="9.002"></rect>				</g>				<g>					<rect x="260.804" y="367.124" style="fill:#969696;stroke:#263238;stroke-miterlimit:10;" width="130.552" height="33.245"></rect>					<rect x="260.804" y="367.124" style="fill:#FFFFFF;stroke:#263238;stroke-miterlimit:10;" width="130.552" height="9.002"></rect>				</g>				<g>					<rect x="260.804" y="395.646" style="fill:#969696;stroke:#263238;stroke-miterlimit:10;" width="130.552" height="33.245"></rect>					<rect x="260.804" y="395.646" style="fill:#FFFFFF;stroke:#263238;stroke-miterlimit:10;" width="130.552" height="9.002"></rect>				</g>				<g>					<path style="fill:#FFFFFF;stroke:#263238;stroke-miterlimit:10;" d="M261.86,396.507h-1.056v-4.023h1.056      c3.264,0,5.92-2.656,5.92-5.92V269.619c0-3.265-2.656-5.921-5.92-5.921v-4.023c5.483,0,9.944,4.461,9.944,9.944v116.945      C271.803,392.046,267.342,396.507,261.86,396.507z"></path>				</g>				<g>					<path style="fill:#FFFFFF;stroke:#263238;stroke-miterlimit:10;" d="M391.356,396.89c-5.229,0-9.483-4.254-9.483-9.483v-94.565      c0-4.039,3.285-7.324,7.324-7.324h5.948v4.023h-5.948c-1.82,0-3.301,1.481-3.301,3.301v94.565c0,3.01,2.449,5.46,5.46,5.46      V396.89z"></path>				</g>				<polygon style="fill:#263238;stroke:#263238;stroke-miterlimit:10;" points="423.191,403.532 423.191,441.542 416.951,441.542      416.951,416.58     "></polygon>				<path style="fill:#FFFFFF;stroke:#263238;stroke-miterlimit:10;" d="M28.807,114.886c0,0,385.941-1.489,393.388,0     c7.447,1.489,7.447,6.702,7.447,12.659c0,5.957-4.36,11.684-4.36,11.684l7.447,119.984v45.559c0,0-11.914,19.361-11.914,26.807     c0,7.447,0,97.549,0,97.549h-23.829V149.14H259.439v284.457h-20.795l-10.077-18.163H30.794"></path>				<path style="fill:none;stroke:#263238;stroke-miterlimit:10;" d="M393.654,148.842C282,149,150,149,38.163,148.842"></path>				<path style="fill:#263238;stroke:#263238;stroke-miterlimit:10;" d="M422.195,114.886c-0.473-0.095-2.382-0.177-5.53-0.249     c-0.803,1.992-1.265,4.238-1.265,6.624c0,8.119,5.237,14.701,11.698,14.701c0.065,0,0.128-0.011,0.192-0.012     c1.144-2.206,2.352-5.269,2.352-8.405C429.641,121.588,429.641,116.376,422.195,114.886z"></path>				<path style="fill:#263238;stroke:#263238;stroke-miterlimit:10;" d="M407.41,154.975v81.81c0,7.499,3.748,14.502,9.987,18.662     l0,0c3.684,2.456,8.013,3.767,12.441,3.767h2.89l-7.447-119.984h-2.126C414.459,139.229,407.41,146.279,407.41,154.975z"></path>				<rect x="391.658" y="141.797" style="fill:#263238;stroke:#263238;stroke-miterlimit:10;" width="6.977" height="291.467"></rect>									<rect x="129.716" y="304.957" transform="matrix(-1.836970e-16 1 -1 -1.836970e-16 547.0889 274.1628)" style="fill:#263238;stroke:#263238;stroke-miterlimit:10;" width="13.494" height="211.338"></rect>									<rect x="129.716" y="229.764" transform="matrix(-1.836970e-16 1 -1 -1.836970e-16 471.8966 198.9705)" style="fill:#263238;stroke:#263238;stroke-miterlimit:10;" width="13.494" height="211.338"></rect>									<rect x="129.716" y="186.355" transform="matrix(-1.836970e-16 1 -1 -1.836970e-16 428.4868 155.5605)" style="fill:#263238;stroke:#263238;stroke-miterlimit:10;" width="13.494" height="211.338"></rect>									<rect x="131.498" y="149.378" transform="matrix(-1.836970e-16 1 -1 -1.836970e-16 391.5099 118.5837)" style="fill:#263238;stroke:#263238;stroke-miterlimit:10;" width="9.93" height="211.338"></rect>				<rect x="256.473" y="141.797" style="fill:#263238;stroke:#263238;stroke-miterlimit:10;" width="6.977" height="291.467"></rect>				<g>					<rect x="148.723" y="149.206" style="fill:#263238;stroke:#263238;stroke-miterlimit:10;" width="90.696" height="91.814"></rect>					<rect x="148.723" y="190.333" style="fill:#FFFFFF;stroke:#263238;stroke-miterlimit:10;" width="90.696" height="4.779"></rect>				</g>				<g>					<rect x="30.294" y="149.206" style="fill:#263238;stroke:#263238;stroke-miterlimit:10;" width="109.902" height="91.814"></rect>					<rect x="30.294" y="190.333" style="fill:#FFFFFF;stroke:#263238;stroke-miterlimit:10;" width="109.902" height="4.779"></rect>				</g>				<path style="fill:none;stroke:#263238;stroke-width:4;stroke-linecap:round;stroke-linejoin:round;stroke-miterlimit:10;" d="     M399.951,156.044h33.442c4.258,0,8.407-1.349,11.85-3.854l6.215-4.52c3.306-2.405,7.289-3.7,11.378-3.7h20.023     c5.472,0,9.907,4.436,9.907,9.907v5.939"></path>				<path style="fill:none;stroke:#263238;stroke-width:4;stroke-linecap:round;stroke-linejoin:round;stroke-miterlimit:10;" d="     M399.951,164.344h33.442c4.258,0,8.407-1.349,11.85-3.854l6.215-4.52c3.306-2.404,7.289-3.7,11.378-3.7h29.93"></path>									<path style="fill:#263238;stroke:#263238;stroke-width:4;stroke-linecap:round;stroke-linejoin:round;stroke-miterlimit:10;" d="     M492.535,160.571h-1.656c-3.868,0-6.919,3.291-6.627,7.148l3.232,42.656h11.319c0,0,3.631-14.525,3.306-40.323     C502.042,164.803,497.784,160.571,492.535,160.571z"></path>				<path style="fill:#FFFFFF;stroke:#263238;stroke-miterlimit:10;" d="M425.281,115.919v23.31l0,0c0-0.001,4.36-5.727,4.36-11.684     C429.641,122.568,429.624,118.12,425.281,115.919z"></path>			</g>		</g>	</g></g><g id="Bus_Stop">	<g>		<rect x="199.851" y="173.851" style="fill:#FFFFFF;stroke:#263238;stroke-miterlimit:10;" width="7.548" height="294.361"></rect>		<path style="fill:#FFFFFF;stroke:#263238;stroke-miterlimit:10;" d="M216.84,210.081h-26.431c-3.331,0-6.031-2.7-6.031-6.031   v-69.453c0-3.331,2.7-6.031,6.031-6.031h26.431c3.331,0,6.031,2.7,6.031,6.031v69.453   C222.871,207.38,220.171,210.081,216.84,210.081z"></path>		<path style="fill:#92E3A9;stroke:#263238;stroke-miterlimit:10;" d="M184.378,188.341v16.674c0,2.798,2.268,5.066,5.066,5.066   h28.361c2.798,0,5.066-2.268,5.066-5.066v-16.674H184.378z"></path>		<g id="go3Hr4.tif">			<g>				<path style="fill:#263238;" d="M192.333,157.516c-0.347,0-0.669,0.004-0.99-0.001c-0.5-0.008-0.813-0.464-0.816-1.24     c-0.008-2.17-0.008-4.339,0-6.509c0.003-0.784,0.303-1.229,0.811-1.246c0.321-0.01,0.643-0.002,1.005-0.002     c0-0.16-0.002-0.296,0-0.432c0.016-1.131-0.017-2.27,0.06-3.391c0.161-2.344,1.519-4.431,3.022-4.745     c0.235-0.049,0.473-0.083,0.709-0.084c4.892-0.005,9.784-0.011,14.675,0.001c1.57,0.004,2.727,1.111,3.438,3.295     c0.246,0.754,0.353,1.571,0.354,2.418c0.001,0.835,0,1.669,0.001,2.503c0,0.129,0,0.257,0,0.433c0.311,0,0.6-0.001,0.889,0     c0.654,0.003,0.93,0.422,0.931,1.425c0.001,2.05,0.001,4.101,0,6.151c-0.001,0.983-0.283,1.42-0.91,1.421     c-0.291,0.001-0.582,0-0.909,0c0,0.132,0,0.245,0,0.359c0,4.53-0.001,9.06,0.004,13.59c0,0.161,0.036,0.362,0.104,0.476     c0.346,0.589,0.54,1.269,0.549,2.065c0.009,0.775,0.02,1.55,0.002,2.324c-0.042,1.79-0.84,3.018-1.99,3.096     c-0.075,0.005-0.151,0.001-0.251,0.001c-0.005,0.156-0.012,0.283-0.012,0.409c-0.001,0.846,0.001,1.693-0.001,2.539     c-0.002,0.772-0.222,1.121-0.712,1.123c-0.828,0.003-1.656,0.004-2.484,0c-0.466-0.002-0.694-0.351-0.699-1.073     c-0.005-0.858-0.001-1.717-0.002-2.575c0-0.128-0.007-0.256-0.011-0.401c-3.758,0-7.496,0-11.254,0     c-0.004,0.144-0.011,0.272-0.011,0.4c-0.001,0.858,0.003,1.717-0.002,2.575c-0.004,0.723-0.232,1.072-0.698,1.074     c-0.836,0.004-1.672,0.005-2.507,0c-0.462-0.003-0.688-0.36-0.69-1.085c-0.003-0.976-0.001-1.951-0.001-2.907     c-0.32-0.091-0.626-0.133-0.913-0.268c-0.722-0.338-1.292-1.453-1.325-2.621c-0.027-0.928-0.019-1.859-0.002-2.788     c0.013-0.704,0.209-1.304,0.507-1.833c0.069-0.122,0.133-0.303,0.134-0.458c0.007-4.59,0.006-9.179,0.005-13.769     C192.342,157.701,192.337,157.632,192.333,157.516z M194.639,149.004c0,4.706,0,9.373,0,14.089c0.095,0,0.177,0,0.259,0     c2.43,0,4.859-0.004,7.289,0.007c0.213,0.001,0.287-0.071,0.287-0.427c-0.008-4.433-0.005-8.866-0.005-13.299     c0-0.116,0-0.232,0-0.37C199.848,149.004,197.253,149.004,194.639,149.004z M204.486,149.005     c-0.004,0.127-0.009,0.233-0.009,0.338c0,4.457,0.002,8.914-0.005,13.37c-0.001,0.337,0.079,0.385,0.267,0.385     c2.437-0.008,4.875-0.005,7.312-0.005c0.082,0,0.163,0,0.251,0c0-4.728,0-9.403,0-14.088     C209.688,149.005,207.093,149.005,204.486,149.005z M203.472,142.854c-0.46,0-0.92,0-1.38,0c-0.836,0-1.671-0.012-2.507,0.004     c-0.725,0.014-1.189,1.061-0.936,2.084c0.156,0.631,0.52,0.971,1.053,0.972c2.515,0.001,5.029,0.001,7.544,0     c0.092,0,0.185-0.001,0.275-0.025c0.377-0.101,0.648-0.422,0.781-0.984c0.244-1.024-0.233-2.041-0.966-2.047     C206.048,142.847,204.76,142.855,203.472,142.854z M196.36,170.892c0.261,0,0.521,0.008,0.782-0.002     c0.544-0.021,0.942-0.566,0.979-1.402c0.028-0.628,0.028-1.264-0.001-1.892c-0.037-0.82-0.431-1.377-0.959-1.394     c-0.529-0.017-1.058-0.017-1.586-0.001c-0.562,0.017-0.964,0.649-0.978,1.526c-0.009,0.548-0.01,1.097,0,1.644     c0.016,0.876,0.419,1.496,0.983,1.52C195.839,170.901,196.1,170.892,196.36,170.892z M210.585,170.892     c0.261,0,0.521,0.009,0.782-0.002c0.564-0.024,0.966-0.644,0.982-1.52c0.01-0.548,0.009-1.096,0-1.644     c-0.015-0.876-0.417-1.508-0.979-1.525c-0.529-0.016-1.058-0.016-1.586,0.001c-0.528,0.017-0.922,0.575-0.959,1.395     c-0.028,0.628-0.028,1.264-0.001,1.892c0.037,0.835,0.436,1.381,0.979,1.401C210.064,170.9,210.324,170.892,210.585,170.892z"></path>			</g>		</g>	</g></g><g id="Floor">	<g>		<line style="fill:none;stroke:#263238;stroke-miterlimit:10;" x1="653.36" y1="468.6" x2="26.599" y2="468.6"></line>		<line style="fill:none;stroke:#263238;stroke-miterlimit:10;" x1="733.553" y1="468.6" x2="664.619" y2="468.6"></line>	</g></g></svg>