<svg xmlns="http://www.w3.org/2000/svg" xmlns:xlink="http://www.w3.org/1999/xlink" x="0px" y="0px" viewBox="0 0 750 500" style="enable-background:new 0 0 750 500;" xml:space="preserve"><g id="Background_Simple">	<g>		<path style="fill:#92E3A9;" d="M715.914,410.983c4.614-17.675,18.968-82.077,6.695-159.805   c-14.455-91.546-106.804-170.244-194.335-198.35c-87.531-28.106-208.79,80.304-269.821,101.183S65.725,182.118,39.225,272.861   c-22.631,77.492,8.026,125.695,17.464,138.122H715.914z"></path>		<path style="opacity:0.8;fill:#FFFFFF;" d="M715.914,410.983c4.614-17.675,18.968-82.077,6.695-159.805   c-14.455-91.546-106.804-170.244-194.335-198.35c-87.531-28.106-208.79,80.304-269.821,101.183S65.725,182.118,39.225,272.861   c-22.631,77.492,8.026,125.695,17.464,138.122H715.914z"></path>	</g></g><g id="Mountains">	<g>		<polyline style="fill:none;stroke:#263238;stroke-linecap:round;stroke-linejoin:round;stroke-miterlimit:10;" points="   57.238,379.97 246.57,221.8 327.185,292.185 486.194,220.218 669.609,362.571   "></polyline>		<polyline style="fill:none;stroke:#263238;stroke-linecap:round;stroke-linejoin:round;stroke-miterlimit:10;" points="   204.672,256.707 220.753,251.277 228.793,259.875 244.027,248.562 250.375,253.087 259.262,243.584 282.113,265.757    285.922,257.16   "></polyline>		<polyline style="fill:none;stroke:#263238;stroke-linecap:round;stroke-linejoin:round;stroke-miterlimit:10;" points="   419.647,250.824 445.461,246.299 449.269,258.065 462.388,250.372 470.852,260.78 497.935,244.942 511.477,253.087    518.248,246.299   "></polyline>	</g></g><g id="Trees">	<g>		<path style="fill:#92E3A9;" d="M615.018,410.983h92.62c-1.779-11.332-9.054-9.337-10.019-26.89   c-0.486-8.84,7.695-19.781,6.988-31.396c-0.583-9.566-10.016-19.374-10.748-30.317c-0.661-9.876,7.39-20.836,6.608-31.479   c-0.739-10.063-10.299-19.717-11.146-30.174c-0.826-10.203,7.058-21.275,6.13-31.586c-0.929-10.323-10.663-19.796-11.694-29.963   c-1.06-10.453,6.568-21.707,5.401-31.713c-1.239-10.62-11.259-19.792-12.618-29.575c-1.513-10.894,5.584-22.532,3.923-31.937   c-2.035-11.524-12.76-19.861-15.016-28.36c-4.205-15.84-3.68-31.106-8.644-32.099c-5.302-1.06-6.509,13.904-10.527,30.632   c-2.018,8.401-12.507,16.917-14.231,28.447c-1.396,9.337,6.019,20.69,4.804,31.54c-1.088,9.714-10.854,19.055-11.805,29.616   c-0.894,9.934,7.033,20.889,6.254,31.275c-0.758,10.094-10.235,19.724-10.891,29.977c-0.654,10.23,7.519,20.997,6.961,31.122   c-0.572,10.376-9.876,20.175-10.353,30.162c-0.504,10.558,7.827,21.211,7.422,31.009c-0.449,10.854-9.626,20.8-9.964,30.289   c-0.409,11.518,8.049,22.151,7.788,30.919c-0.567,19.037-9.281,15.093-9.594,30.412L615.018,410.983z"></path>		<path style="opacity:0.3;fill:#FFFFFF;" d="M615.018,410.983h92.62c-1.779-11.332-9.054-9.337-10.019-26.89   c-0.486-8.84,7.695-19.781,6.988-31.396c-0.583-9.566-10.016-19.374-10.748-30.317c-0.661-9.876,7.39-20.836,6.608-31.479   c-0.739-10.063-10.299-19.717-11.146-30.174c-0.826-10.203,7.058-21.275,6.13-31.586c-0.929-10.323-10.663-19.796-11.694-29.963   c-1.06-10.453,6.568-21.707,5.401-31.713c-1.239-10.62-11.259-19.792-12.618-29.575c-1.513-10.894,5.584-22.532,3.923-31.937   c-2.035-11.524-12.76-19.861-15.016-28.36c-4.205-15.84-3.68-31.106-8.644-32.099c-5.302-1.06-6.509,13.904-10.527,30.632   c-2.018,8.401-12.507,16.917-14.231,28.447c-1.396,9.337,6.019,20.69,4.804,31.54c-1.088,9.714-10.854,19.055-11.805,29.616   c-0.894,9.934,7.033,20.889,6.254,31.275c-0.758,10.094-10.235,19.724-10.891,29.977c-0.654,10.23,7.519,20.997,6.961,31.122   c-0.572,10.376-9.876,20.175-10.353,30.162c-0.504,10.558,7.827,21.211,7.422,31.009c-0.449,10.854-9.626,20.8-9.964,30.289   c-0.409,11.518,8.049,22.151,7.788,30.919c-0.567,19.037-9.281,15.093-9.594,30.412L615.018,410.983z"></path>					<line style="fill:none;stroke:#263238;stroke-linecap:round;stroke-linejoin:round;stroke-miterlimit:10;" x1="654.778" y1="75.934" x2="654.778" y2="406.707"></line>		<polyline style="fill:none;stroke:#263238;stroke-linecap:round;stroke-linejoin:round;stroke-miterlimit:10;" points="   669.24,110.609 654.161,123.632 641.824,107.182   "></polyline>		<polyline style="fill:none;stroke:#263238;stroke-linecap:round;stroke-linejoin:round;stroke-miterlimit:10;" points="   669.24,168.183 654.161,181.206 641.824,164.756   "></polyline>		<polyline style="fill:none;stroke:#263238;stroke-linecap:round;stroke-linejoin:round;stroke-miterlimit:10;" points="   669.24,222.331 654.161,235.353 641.824,218.903   "></polyline>		<polyline style="fill:none;stroke:#263238;stroke-linecap:round;stroke-linejoin:round;stroke-miterlimit:10;" points="   669.24,286.759 654.161,299.781 641.824,283.331   "></polyline>		<polyline style="fill:none;stroke:#263238;stroke-linecap:round;stroke-linejoin:round;stroke-miterlimit:10;" points="   669.24,351.872 654.161,364.895 641.824,348.445   "></polyline>	</g>	<g>		<path style="fill:#92E3A9;" d="M527.696,410.983h69.195c-1.329-8.466-6.764-6.976-7.485-20.089   c-0.363-6.604,5.749-14.778,5.221-23.455c-0.435-7.147-7.483-14.474-8.03-22.649c-0.494-7.378,5.521-15.566,4.937-23.518   c-0.552-7.518-7.694-14.73-8.327-22.543c-0.617-7.622,5.273-15.894,4.579-23.598c-0.694-7.712-7.966-14.789-8.736-22.385   c-0.792-7.81,4.906-16.217,4.035-23.693c-0.925-7.934-8.411-14.787-9.427-22.095c-1.13-8.139,4.172-16.833,2.931-23.86   c-1.521-8.61-9.533-14.838-11.218-21.188c-3.141-11.834-2.749-23.239-6.458-23.981c-3.961-0.792-4.863,10.387-7.864,22.885   c-1.508,6.277-9.344,12.638-10.632,21.252c-1.043,6.975,4.496,15.457,3.589,23.563c-0.813,7.258-8.108,14.236-8.819,22.126   c-0.668,7.421,5.255,15.606,4.672,23.365c-0.566,7.541-7.647,14.736-8.137,22.395c-0.489,7.643,5.617,15.686,5.201,23.251   c-0.427,7.751-7.378,15.073-7.735,22.533c-0.377,7.888,5.848,15.847,5.545,23.167c-0.335,8.109-7.192,15.54-7.444,22.629   c-0.306,8.605,6.013,16.549,5.818,23.099c-0.423,14.222-6.933,11.276-7.168,22.72L527.696,410.983z"></path>		<path style="opacity:0.3;fill:#FFFFFF;" d="M527.696,410.983h69.195c-1.329-8.466-6.764-6.976-7.485-20.089   c-0.363-6.604,5.749-14.778,5.221-23.455c-0.435-7.147-7.483-14.474-8.03-22.649c-0.494-7.378,5.521-15.566,4.937-23.518   c-0.552-7.518-7.694-14.73-8.327-22.543c-0.617-7.622,5.273-15.894,4.579-23.598c-0.694-7.712-7.966-14.789-8.736-22.385   c-0.792-7.81,4.906-16.217,4.035-23.693c-0.925-7.934-8.411-14.787-9.427-22.095c-1.13-8.139,4.172-16.833,2.931-23.86   c-1.521-8.61-9.533-14.838-11.218-21.188c-3.141-11.834-2.749-23.239-6.458-23.981c-3.961-0.792-4.863,10.387-7.864,22.885   c-1.508,6.277-9.344,12.638-10.632,21.252c-1.043,6.975,4.496,15.457,3.589,23.563c-0.813,7.258-8.108,14.236-8.819,22.126   c-0.668,7.421,5.255,15.606,4.672,23.365c-0.566,7.541-7.647,14.736-8.137,22.395c-0.489,7.643,5.617,15.686,5.201,23.251   c-0.427,7.751-7.378,15.073-7.735,22.533c-0.377,7.888,5.848,15.847,5.545,23.167c-0.335,8.109-7.192,15.54-7.444,22.629   c-0.306,8.605,6.013,16.549,5.818,23.099c-0.423,14.222-6.933,11.276-7.168,22.72L527.696,410.983z"></path>					<line style="fill:none;stroke:#263238;stroke-linecap:round;stroke-linejoin:round;stroke-miterlimit:10;" x1="557.4" y1="160.672" x2="557.4" y2="407.789"></line>		<polyline style="fill:none;stroke:#263238;stroke-linecap:round;stroke-linejoin:round;stroke-miterlimit:10;" points="   568.205,186.577 556.939,196.307 547.722,184.017   "></polyline>		<polyline style="fill:none;stroke:#263238;stroke-linecap:round;stroke-linejoin:round;stroke-miterlimit:10;" points="   568.205,229.59 556.939,239.32 547.722,227.03   "></polyline>		<polyline style="fill:none;stroke:#263238;stroke-linecap:round;stroke-linejoin:round;stroke-miterlimit:10;" points="   568.205,270.043 556.939,279.772 547.722,267.483   "></polyline>		<polyline style="fill:none;stroke:#263238;stroke-linecap:round;stroke-linejoin:round;stroke-miterlimit:10;" points="   568.205,318.177 556.939,327.906 547.722,315.616   "></polyline>		<polyline style="fill:none;stroke:#263238;stroke-linecap:round;stroke-linejoin:round;stroke-miterlimit:10;" points="   568.205,366.822 556.939,376.551 547.722,364.262   "></polyline>	</g>	<g>		<path style="fill:#92E3A9;" d="M70.263,410.983h50.324c-0.967-6.157-4.92-5.073-5.444-14.611   c-0.264-4.803,4.181-10.748,3.797-17.058c-0.317-5.198-5.442-10.527-5.84-16.472c-0.359-5.366,4.015-11.321,3.59-17.104   c-0.402-5.467-5.596-10.713-6.056-16.395c-0.449-5.544,3.835-11.56,3.33-17.162c-0.505-5.609-5.793-10.756-6.354-16.28   c-0.576-5.68,3.568-11.794,2.934-17.231c-0.673-5.77-6.118-10.754-6.856-16.069c-0.822-5.919,3.034-12.242,2.132-17.353   c-1.106-6.262-6.933-10.792-8.159-15.409c-2.285-8.606-1.999-16.901-4.697-17.441c-2.881-0.576-3.537,7.555-5.72,16.644   c-1.096,4.565-6.796,9.192-7.732,15.456c-0.758,5.073,3.27,11.242,2.61,17.137c-0.591,5.278-5.897,10.353-6.414,16.092   c-0.486,5.397,3.822,11.35,3.398,16.993c-0.412,5.484-5.561,10.717-5.918,16.288c-0.355,5.559,4.085,11.408,3.782,16.91   c-0.311,5.637-5.366,10.962-5.625,16.388c-0.274,5.737,4.253,11.525,4.033,16.849c-0.244,5.897-5.23,11.302-5.413,16.457   c-0.222,6.258,4.373,12.035,4.232,16.8c-0.308,10.343-5.043,8.201-5.213,16.524L70.263,410.983z"></path>		<path style="opacity:0.3;fill:#FFFFFF;" d="M70.263,410.983h50.324c-0.967-6.157-4.92-5.073-5.444-14.611   c-0.264-4.803,4.181-10.748,3.797-17.058c-0.317-5.198-5.442-10.527-5.84-16.472c-0.359-5.366,4.015-11.321,3.59-17.104   c-0.402-5.467-5.596-10.713-6.056-16.395c-0.449-5.544,3.835-11.56,3.33-17.162c-0.505-5.609-5.793-10.756-6.354-16.28   c-0.576-5.68,3.568-11.794,2.934-17.231c-0.673-5.77-6.118-10.754-6.856-16.069c-0.822-5.919,3.034-12.242,2.132-17.353   c-1.106-6.262-6.933-10.792-8.159-15.409c-2.285-8.606-1.999-16.901-4.697-17.441c-2.881-0.576-3.537,7.555-5.72,16.644   c-1.096,4.565-6.796,9.192-7.732,15.456c-0.758,5.073,3.27,11.242,2.61,17.137c-0.591,5.278-5.897,10.353-6.414,16.092   c-0.486,5.397,3.822,11.35,3.398,16.993c-0.412,5.484-5.561,10.717-5.918,16.288c-0.355,5.559,4.085,11.408,3.782,16.91   c-0.311,5.637-5.366,10.962-5.625,16.388c-0.274,5.737,4.253,11.525,4.033,16.849c-0.244,5.897-5.23,11.302-5.413,16.457   c-0.222,6.258,4.373,12.035,4.232,16.8c-0.308,10.343-5.043,8.201-5.213,16.524L70.263,410.983z"></path>					<line style="fill:none;stroke:#263238;stroke-linecap:round;stroke-linejoin:round;stroke-miterlimit:10;" x1="91.866" y1="228.938" x2="91.866" y2="408.66"></line>		<polyline style="fill:none;stroke:#263238;stroke-linecap:round;stroke-linejoin:round;stroke-miterlimit:10;" points="   99.724,247.778 91.531,254.854 84.828,245.916   "></polyline>		<polyline style="fill:none;stroke:#263238;stroke-linecap:round;stroke-linejoin:round;stroke-miterlimit:10;" points="   99.724,279.06 91.531,286.136 84.828,277.198   "></polyline>		<polyline style="fill:none;stroke:#263238;stroke-linecap:round;stroke-linejoin:round;stroke-miterlimit:10;" points="   99.724,308.481 91.531,315.557 84.828,306.619   "></polyline>		<polyline style="fill:none;stroke:#263238;stroke-linecap:round;stroke-linejoin:round;stroke-miterlimit:10;" points="   99.724,343.487 91.531,350.563 84.828,341.625   "></polyline>		<polyline style="fill:none;stroke:#263238;stroke-linecap:round;stroke-linejoin:round;stroke-miterlimit:10;" points="   99.724,378.866 91.531,385.942 84.828,377.004   "></polyline>	</g></g><g id="Clouds">	<g>		<path style="fill:none;stroke:#263238;stroke-linecap:round;stroke-linejoin:round;stroke-miterlimit:10;" d="M79.013,118.646   c-0.99-1.027-2.709-1.973-5.688-2.045c-6.699-0.163-4.901,4.575-6.699,5.719c-1.797,1.144-2.287-0.654-4.084,0.49   c-1.797,1.144-0.98,3.431-2.451,3.758c-1.471,0.327-3.431-1.47-5.228-0.327c-1.797,1.144-1.797,2.124-2.614,2.124   c-0.817,0-2.451-0.654-3.431,0c-0.98,0.654-2.124,1.47-2.124,1.47h17.543"></path>		<path style="fill:none;stroke:#263238;stroke-linecap:round;stroke-linejoin:round;stroke-miterlimit:10;" d="M80.858,121.571   c-0.16-0.077-0.329-0.155-0.508-0.232c0,0-0.056-0.789-0.602-1.723"></path>		<path style="fill:none;stroke:#263238;stroke-linecap:round;stroke-linejoin:round;stroke-miterlimit:10;" d="M66.483,129.834   h21.546c0,0,0.49-1.47-1.307-2.451c-1.797-0.98-2.614-0.163-3.268-0.98c-0.582-0.728,1.298-2.492-1.745-4.369"></path>	</g>	<g>		<path style="fill:none;stroke:#263238;stroke-linecap:round;stroke-linejoin:round;stroke-miterlimit:10;" d="M179.371,129.834   h42.721c0,0,1.455-4.367-3.882-7.279c-5.338-2.911-7.764-0.485-9.705-2.911c-1.941-2.426,5.337-8.734-9.219-15.042   c0,0-0.97-13.586-20.865-14.072c-8.585-0.209-12.472,2.292-14.545,5.477"></path>					<line style="fill:none;stroke:#263238;stroke-linecap:round;stroke-linejoin:round;stroke-miterlimit:10;" x1="166.335" y1="129.834" x2="173.445" y2="129.834"></line>		<path style="fill:none;stroke:#263238;stroke-linecap:round;stroke-linejoin:round;stroke-miterlimit:10;" d="M153.891,129.834   H99.329c0,0,3.396-2.426,6.308-4.367c2.911-1.941,7.764,0,10.19,0c2.426,0,2.426-2.911,7.764-6.308   c5.338-3.396,11.16,1.941,15.528,0.97c4.367-0.97,1.941-7.764,7.278-11.16c5.338-3.396,6.793,1.941,12.131-1.456   c1.493-0.95,2.151-2.736,2.76-4.805"></path>	</g>	<g>		<path style="fill:none;stroke:#263238;stroke-linecap:round;stroke-linejoin:round;stroke-miterlimit:10;" d="M573.772,129.834   h26.453c0,0,0.901-2.704-2.404-4.507c-3.305-1.802-4.807-0.3-6.009-1.802c-1.202-1.502,3.305-5.408-5.709-9.314   c0,0-0.601-8.413-12.919-8.713c-5.316-0.13-7.722,1.419-9.006,3.392"></path>					<line style="fill:none;stroke:#263238;stroke-linecap:round;stroke-linejoin:round;stroke-miterlimit:10;" x1="565.7" y1="129.834" x2="570.103" y2="129.834"></line>		<path style="fill:none;stroke:#263238;stroke-linecap:round;stroke-linejoin:round;stroke-miterlimit:10;" d="M562.574,113.038   c-0.377,1.281-0.784,2.387-1.709,2.975c-3.305,2.103-4.206-1.202-7.511,0.901c-3.305,2.103-1.803,6.309-4.507,6.91   c-2.704,0.601-6.31-2.704-9.615-0.601c-3.305,2.103-3.305,3.906-4.807,3.906s-4.507-1.202-6.309,0   c-1.803,1.202-3.906,2.704-3.906,2.704h33.784"></path>	</g>	<g>		<path style="fill:none;stroke:#263238;stroke-linecap:round;stroke-linejoin:round;stroke-miterlimit:10;" d="M435.439,212.703   h26.453c0,0,0.901-2.704-2.404-4.507c-3.305-1.802-4.807-0.3-6.009-1.802c-1.202-1.502,3.305-5.408-5.709-9.314   c0,0-0.601-8.413-12.919-8.713c-5.316-0.13-7.722,1.419-9.006,3.392"></path>					<line style="fill:none;stroke:#263238;stroke-linecap:round;stroke-linejoin:round;stroke-miterlimit:10;" x1="427.367" y1="212.703" x2="431.77" y2="212.703"></line>		<path style="fill:none;stroke:#263238;stroke-linecap:round;stroke-linejoin:round;stroke-miterlimit:10;" d="M424.241,195.907   c-0.377,1.281-0.784,2.387-1.709,2.975c-3.305,2.103-4.206-1.202-7.511,0.901c-3.305,2.103-1.803,6.31-4.507,6.911   c-2.704,0.601-6.31-2.704-9.615-0.601c-3.305,2.103-3.305,3.906-4.807,3.906c-1.502,0-4.507-1.202-6.309,0   c-1.803,1.202-3.906,2.704-3.906,2.704h33.784"></path>	</g></g><g id="Fuel_Station">	<g>		<g>			<g>				<path style="fill:#BDBDBD;stroke:#263238;stroke-miterlimit:10;" d="M216.285,410.983h4.84v-19.509     c0-7.749,6.305-14.054,14.054-14.054c7.749,0,14.054,6.305,14.054,14.054v19.509h4.84v-19.509     c0-10.418-8.476-18.894-18.894-18.894c-10.418,0-18.894,8.476-18.894,18.894V410.983z"></path>			</g>			<g>									<rect x="175.107" y="172.098" transform="matrix(-1 -1.224647e-16 1.224647e-16 -1 381.8893 574.5022)" style="fill:#919191;stroke:#263238;stroke-miterlimit:10;" width="31.676" height="230.307"></rect>									<rect x="175.107" y="172.098" transform="matrix(-1 -1.224647e-16 1.224647e-16 -1 364.0719 574.5022)" style="fill:#FFFFFF;stroke:#263238;stroke-miterlimit:10;" width="13.858" height="230.307"></rect>				<g>											<rect x="175.107" y="170.102" transform="matrix(-1 -1.224647e-16 1.224647e-16 -1 381.8893 358.434)" style="fill:#263238;stroke:#263238;stroke-miterlimit:10;" width="31.676" height="18.23"></rect>											<rect x="175.107" y="170.102" transform="matrix(-1 -1.224647e-16 1.224647e-16 -1 364.0718 358.434)" style="fill:#263238;stroke:#263238;stroke-miterlimit:10;" width="13.858" height="18.23"></rect>				</g>			</g>			<g>				<g>											<rect x="168.857" y="285.016" transform="matrix(-1 -1.224647e-16 1.224647e-16 -1 343.9988 687.7968)" style="fill:#BDBDBD;stroke:#263238;stroke-miterlimit:10;" width="6.285" height="117.764"></rect>											<rect x="156.948" y="285.016" transform="matrix(-1 -1.224647e-16 1.224647e-16 -1 328.7821 687.7968)" style="fill:#FFFFFF;stroke:#263238;stroke-miterlimit:10;" width="14.886" height="117.764"></rect>				</g>									<rect x="133.494" y="322.506" transform="matrix(-1 -1.224647e-16 1.224647e-16 -1 304.0252 725.2865)" style="fill:#92E3A9;stroke:#263238;stroke-linecap:round;stroke-linejoin:round;stroke-miterlimit:10;" width="37.038" height="80.275"></rect>									<rect x="133.494" y="322.506" transform="matrix(-1 -1.224647e-16 1.224647e-16 -1 304.0252 694.3066)" style="fill:#263238;stroke:#263238;stroke-miterlimit:10;" width="37.038" height="49.295"></rect>									<rect x="133.494" y="322.506" transform="matrix(-1 -1.224647e-16 1.224647e-16 -1 304.0252 662.3805)" style="fill:#BDBDBD;stroke:#263238;stroke-miterlimit:10;" width="37.038" height="17.369"></rect>									<rect x="133.494" y="339.716" transform="matrix(-1 -1.224647e-16 1.224647e-16 -1 304.0252 687.3228)" style="fill:#FFFFFF;stroke:#263238;stroke-miterlimit:10;" width="37.038" height="7.891"></rect>				<g>											<rect x="128.201" y="285.016" transform="matrix(-1 -1.224647e-16 1.224647e-16 -1 262.6872 687.7968)" style="fill:#BDBDBD;stroke:#263238;stroke-miterlimit:10;" width="6.285" height="117.764"></rect>											<rect x="116.292" y="285.016" transform="matrix(-1 -1.224647e-16 1.224647e-16 -1 247.4704 687.7968)" style="fill:#FFFFFF;stroke:#263238;stroke-miterlimit:10;" width="14.886" height="117.764"></rect>				</g>									<rect x="110.549" y="279.662" transform="matrix(-1 -1.224647e-16 1.224647e-16 -1 290.3089 566.5094)" style="fill:#92E3A9;stroke:#263238;stroke-linecap:round;stroke-linejoin:round;stroke-miterlimit:10;" width="69.211" height="7.185"></rect>									<rect x="110.549" y="279.662" transform="matrix(-1 -1.224647e-16 1.224647e-16 -1 238.1523 566.5094)" style="fill:#92E3A9;stroke:#263238;stroke-linecap:round;stroke-linejoin:round;stroke-miterlimit:10;" width="17.054" height="7.185"></rect>				<g>											<rect x="110.549" y="400.685" transform="matrix(-1 -1.224647e-16 1.224647e-16 -1 290.3089 803.4653)" style="fill:#FFFFFF;stroke:#263238;stroke-miterlimit:10;" width="69.211" height="2.096"></rect>											<rect x="110.549" y="400.685" transform="matrix(-1 -1.224647e-16 1.224647e-16 -1 238.1523 803.4653)" style="fill:#FFFFFF;stroke:#263238;stroke-miterlimit:10;" width="17.054" height="2.096"></rect>				</g>									<rect x="144.841" y="324.909" transform="matrix(-1 -1.224647e-16 1.224647e-16 -1 305.6448 660.2943)" style="fill:#263238;stroke:#263238;stroke-miterlimit:10;" width="15.963" height="10.476"></rect>									<rect x="148.262" y="327.154" transform="matrix(-1 -1.224647e-16 1.224647e-16 -1 305.6447 660.2943)" style="fill:#FFFFFF;stroke:#263238;stroke-miterlimit:10;" width="9.122" height="5.986"></rect>									<rect x="144.841" y="324.909" transform="matrix(-1 -1.224647e-16 1.224647e-16 -1 305.6448 651.0657)" style="fill:#FFFFFF;stroke:#263238;stroke-miterlimit:10;" width="15.963" height="1.247"></rect>				<g>											<rect x="156.314" y="341.122" transform="matrix(-1 -1.224647e-16 1.224647e-16 -1 322.6055 686.4836)" style="fill:#FFFFFF;stroke:#263238;stroke-miterlimit:10;" width="9.977" height="4.24"></rect>											<rect x="156.314" y="341.122" transform="matrix(-1 -1.224647e-16 1.224647e-16 -1 322.6055 684.2388)" style="fill:#FFFFFF;stroke:#263238;stroke-miterlimit:10;" width="9.977" height="1.995"></rect>				</g>				<g>											<rect x="138.605" y="341.122" transform="matrix(-1 -1.224647e-16 1.224647e-16 -1 287.1875 686.4836)" style="fill:#FFFFFF;stroke:#263238;stroke-miterlimit:10;" width="9.977" height="4.24"></rect>											<rect x="138.605" y="341.122" transform="matrix(-1 -1.224647e-16 1.224647e-16 -1 287.1875 684.2388)" style="fill:#FFFFFF;stroke:#263238;stroke-miterlimit:10;" width="9.977" height="1.995"></rect>				</g>									<rect x="119.912" y="328.607" transform="matrix(-1 -1.224647e-16 1.224647e-16 -1 247.5118 685.236)" style="fill:#FFFFFF;stroke:#263238;stroke-miterlimit:10;" width="7.688" height="28.022"></rect>									<rect x="119.912" y="328.607" transform="matrix(-1 -1.224647e-16 1.224647e-16 -1 245.5475 685.236)" style="fill:#FFFFFF;stroke:#263238;stroke-miterlimit:10;" width="5.723" height="28.022"></rect>									<rect x="121.126" y="329.871" transform="matrix(-1 -1.224647e-16 1.224647e-16 -1 245.5475 685.236)" style="fill:#FFFFFF;stroke:#263238;stroke-miterlimit:10;" width="3.295" height="25.493"></rect>									<rect x="128.769" y="344.46" transform="matrix(-1 -1.224647e-16 1.224647e-16 -1 259.6555 692.1783)" style="fill:#FFFFFF;stroke:#263238;stroke-miterlimit:10;" width="2.118" height="3.258"></rect>			</g>			<g>									<rect x="100.626" y="402.566" transform="matrix(-1 -1.224647e-16 1.224647e-16 -1 387.9171 813.5492)" style="fill:#919191;stroke:#263238;stroke-miterlimit:10;" width="186.665" height="8.418"></rect>									<rect x="100.626" y="402.566" transform="matrix(-1 -1.224647e-16 1.224647e-16 -1 224.2605 813.5492)" style="fill:#BDBDBD;stroke:#263238;stroke-miterlimit:10;" width="23.008" height="8.418"></rect>			</g>		</g>		<g>			<g>				<path style="fill:#BDBDBD;stroke:#263238;stroke-miterlimit:10;" d="M508.076,410.983h4.84v-19.509     c0-7.749,6.305-14.054,14.054-14.054c7.75,0,14.054,6.305,14.054,14.054v19.509h4.839v-19.509     c0-10.418-8.476-18.894-18.894-18.894s-18.894,8.476-18.894,18.894V410.983z"></path>			</g>			<g>									<rect x="466.898" y="172.098" transform="matrix(-1 -1.224647e-16 1.224647e-16 -1 965.4715 574.5022)" style="fill:#919191;stroke:#263238;stroke-miterlimit:10;" width="31.675" height="230.307"></rect>									<rect x="466.898" y="172.098" transform="matrix(-1 -1.224647e-16 1.224647e-16 -1 947.6541 574.5022)" style="fill:#FFFFFF;stroke:#263238;stroke-miterlimit:10;" width="13.858" height="230.307"></rect>			</g>			<g>									<rect x="466.898" y="172.098" transform="matrix(-1 -1.224647e-16 1.224647e-16 -1 965.4715 362.4249)" style="fill:#263238;stroke:#263238;stroke-miterlimit:10;" width="31.675" height="18.23"></rect>									<rect x="466.898" y="172.098" transform="matrix(-1 -1.224647e-16 1.224647e-16 -1 947.654 362.4249)" style="fill:#263238;stroke:#263238;stroke-miterlimit:10;" width="13.858" height="18.23"></rect>			</g>			<g>				<g>											<rect x="460.648" y="285.016" transform="matrix(-1 -1.224647e-16 1.224647e-16 -1 927.5811 687.7968)" style="fill:#BDBDBD;stroke:#263238;stroke-miterlimit:10;" width="6.285" height="117.764"></rect>											<rect x="448.739" y="285.016" transform="matrix(-1 -1.224647e-16 1.224647e-16 -1 912.3644 687.7968)" style="fill:#FFFFFF;stroke:#263238;stroke-miterlimit:10;" width="14.886" height="117.764"></rect>				</g>									<rect x="425.285" y="322.506" transform="matrix(-1 -1.224647e-16 1.224647e-16 -1 887.6074 725.2865)" style="fill:#92E3A9;stroke:#263238;stroke-linecap:round;stroke-linejoin:round;stroke-miterlimit:10;" width="37.038" height="80.275"></rect>									<rect x="425.285" y="322.506" transform="matrix(-1 -1.224647e-16 1.224647e-16 -1 887.6074 694.3066)" style="fill:#263238;stroke:#263238;stroke-miterlimit:10;" width="37.038" height="49.295"></rect>									<rect x="425.285" y="322.506" transform="matrix(-1 -1.224647e-16 1.224647e-16 -1 887.6074 662.3805)" style="fill:#BDBDBD;stroke:#263238;stroke-miterlimit:10;" width="37.038" height="17.369"></rect>									<rect x="425.285" y="339.716" transform="matrix(-1 -1.224647e-16 1.224647e-16 -1 887.6074 687.3228)" style="fill:#FFFFFF;stroke:#263238;stroke-miterlimit:10;" width="37.038" height="7.891"></rect>				<g>											<rect x="419.992" y="285.016" transform="matrix(-1 -1.224647e-16 1.224647e-16 -1 846.2694 687.7968)" style="fill:#BDBDBD;stroke:#263238;stroke-miterlimit:10;" width="6.285" height="117.764"></rect>											<rect x="408.083" y="285.016" transform="matrix(-1 -1.224647e-16 1.224647e-16 -1 831.0527 687.7968)" style="fill:#FFFFFF;stroke:#263238;stroke-miterlimit:10;" width="14.886" height="117.764"></rect>				</g>									<rect x="402.34" y="279.662" transform="matrix(-1 -1.224647e-16 1.224647e-16 -1 873.8911 566.5094)" style="fill:#92E3A9;stroke:#263238;stroke-linecap:round;stroke-linejoin:round;stroke-miterlimit:10;" width="69.211" height="7.185"></rect>									<rect x="402.34" y="279.662" transform="matrix(-1 -1.224647e-16 1.224647e-16 -1 821.7345 566.5094)" style="fill:#92E3A9;stroke:#263238;stroke-linecap:round;stroke-linejoin:round;stroke-miterlimit:10;" width="17.054" height="7.185"></rect>				<g>											<rect x="402.34" y="400.685" transform="matrix(-1 -1.224647e-16 1.224647e-16 -1 873.8911 803.4653)" style="fill:#FFFFFF;stroke:#263238;stroke-miterlimit:10;" width="69.211" height="2.096"></rect>											<rect x="402.34" y="400.685" transform="matrix(-1 -1.224647e-16 1.224647e-16 -1 821.7345 803.4653)" style="fill:#FFFFFF;stroke:#263238;stroke-miterlimit:10;" width="17.054" height="2.096"></rect>				</g>									<rect x="436.632" y="324.909" transform="matrix(-1 -1.224647e-16 1.224647e-16 -1 889.227 660.2943)" style="fill:#263238;stroke:#263238;stroke-miterlimit:10;" width="15.963" height="10.476"></rect>									<rect x="440.053" y="327.154" transform="matrix(-1 -1.224647e-16 1.224647e-16 -1 889.2269 660.2943)" style="fill:#FFFFFF;stroke:#263238;stroke-miterlimit:10;" width="9.122" height="5.986"></rect>									<rect x="436.632" y="324.909" transform="matrix(-1 -1.224647e-16 1.224647e-16 -1 889.227 651.0657)" style="fill:#FFFFFF;stroke:#263238;stroke-miterlimit:10;" width="15.963" height="1.247"></rect>				<g>											<rect x="448.105" y="341.122" transform="matrix(-1 -1.224647e-16 1.224647e-16 -1 906.1877 686.4836)" style="fill:#FFFFFF;stroke:#263238;stroke-miterlimit:10;" width="9.977" height="4.24"></rect>											<rect x="448.105" y="341.122" transform="matrix(-1 -1.224647e-16 1.224647e-16 -1 906.1877 684.2388)" style="fill:#FFFFFF;stroke:#263238;stroke-miterlimit:10;" width="9.977" height="1.995"></rect>				</g>				<g>											<rect x="430.396" y="341.122" transform="matrix(-1 -1.224647e-16 1.224647e-16 -1 870.7697 686.4836)" style="fill:#FFFFFF;stroke:#263238;stroke-miterlimit:10;" width="9.977" height="4.24"></rect>											<rect x="430.396" y="341.122" transform="matrix(-1 -1.224647e-16 1.224647e-16 -1 870.7697 684.2388)" style="fill:#FFFFFF;stroke:#263238;stroke-miterlimit:10;" width="9.977" height="1.995"></rect>				</g>									<rect x="411.703" y="328.607" transform="matrix(-1 -1.224647e-16 1.224647e-16 -1 831.0941 685.236)" style="fill:#FFFFFF;stroke:#263238;stroke-miterlimit:10;" width="7.688" height="28.022"></rect>									<rect x="411.703" y="328.607" transform="matrix(-1 -1.224647e-16 1.224647e-16 -1 829.1297 685.236)" style="fill:#FFFFFF;stroke:#263238;stroke-miterlimit:10;" width="5.723" height="28.022"></rect>									<rect x="412.917" y="329.871" transform="matrix(-1 -1.224647e-16 1.224647e-16 -1 829.1297 685.236)" style="fill:#FFFFFF;stroke:#263238;stroke-miterlimit:10;" width="3.295" height="25.493"></rect>				<g>					<g>						<g>							<path style="fill:#FFFFFF;stroke:#263238;stroke-miterlimit:10;" d="M415.923,329.925c-3.546,2.266-5.552,8.177-5.64,8.441        l1.26,0.42c0.019-0.055,1.657-4.89,4.38-7.213V329.925z"></path>						</g>						<g>							<path style="fill:#FFFFFF;stroke:#263238;stroke-width:0.5;stroke-miterlimit:10;" d="M414.667,333.267        c0.004,0,0.008,0,0.012-0.001c0.122-0.007,0.216-0.111,0.209-0.233l-0.118-2.118c-0.007-0.122-0.121-0.219-0.233-0.209        c-0.122,0.007-0.216,0.111-0.209,0.233l0.118,2.118C414.453,333.176,414.551,333.267,414.667,333.267z"></path>						</g>						<g>							<path style="fill:#FFFFFF;stroke:#263238;stroke-width:0.5;stroke-miterlimit:10;" d="M413.137,335.15        c0.122,0,0.221-0.099,0.221-0.221v-2.118c0-0.122-0.099-0.221-0.221-0.221c-0.122,0-0.221,0.099-0.221,0.221v2.118        C412.916,335.051,413.015,335.15,413.137,335.15z"></path>						</g>						<g>							<path style="fill:#FFFFFF;stroke:#263238;stroke-width:0.5;stroke-miterlimit:10;" d="M412.078,337.504        c0.015,0,0.031-0.001,0.046-0.005c0.12-0.025,0.196-0.143,0.171-0.262l-0.471-2.236c-0.025-0.12-0.144-0.197-0.262-0.171        c-0.12,0.025-0.196,0.143-0.171,0.262l0.471,2.236C411.884,337.432,411.976,337.504,412.078,337.504z"></path>						</g>					</g>					<path style="fill:none;stroke:#263238;stroke-miterlimit:10;" d="M411.49,344.579c0,0-0.588,5.649-0.471,6.12      c0.118,0.471,2.707,1.059,2.707,1.059"></path>					<g>						<path d="M408.279,354.348l4.228-1.022c1.098-0.265,1.838-1.312,1.721-2.436l-0.632-6.065l-1.321,0.137l0.632,6.065       c0.048,0.465-0.257,0.898-0.711,1.007l-4.229,1.022L408.279,354.348z"></path>					</g>					<g>						<g>															<rect x="408.31" y="353.591" transform="matrix(0.9936 -0.1133 0.1133 0.9936 -37.6169 48.6454)" style="stroke:#263238;stroke-miterlimit:10;" width="1.771" height="3.405"></rect>						</g>						<g>															<rect x="407.602" y="344.538" transform="matrix(0.9936 -0.1133 0.1133 0.9936 -36.9247 48.535)" style="fill:#FFFFFF;stroke:#263238;stroke-miterlimit:10;" width="1.771" height="9.093"></rect>						</g>					</g>					<g>						<polygon style="fill:#FFFFFF;stroke:#263238;stroke-miterlimit:10;" points="410.042,337.378 412.656,338.576        412.329,339.992 414.29,341.299 413.745,344.894 407.101,346.636 405.576,344.894 406.774,339.012 409.279,338.576       "></polygon>						<polygon style="fill:#FFFFFF;stroke:#263238;stroke-miterlimit:10;" points="408.081,339.883 410.913,339.338        411.548,338.068 410.042,337.378 409.279,338.576 406.774,339.012 405.576,344.894 406.783,346.273       "></polygon>					</g>				</g>				<g>					<path style="fill:#263238;" d="M404.045,302.428c1.254-10.925,5.259-13.249,8.438-13.249c0.031,0,0.062,0,0.093,0.001      c2.06,0.029,3.845,0.843,5.308,2.419c5.398,5.817,4.649,20.408,4.593,21.366v33.27c0,0.517-0.419,0.935-0.935,0.935      s-0.935-0.419-0.935-0.935v-33.298l0.002-0.057c0.009-0.146,0.829-14.702-4.096-20.009c-1.117-1.203-2.413-1.799-3.963-1.821      c-0.022,0-0.043-0.001-0.064-0.001c-4.339,0-5.974,6.296-6.582,11.592c-0.587,5.115-0.298,10.402,0.857,15.714l1.418,6.522      v8.804l-3.247-14.928C403.733,313.239,403.434,307.747,404.045,302.428z"></path>				</g>									<rect x="420.56" y="344.46" transform="matrix(-1 -1.224647e-16 1.224647e-16 -1 843.2377 692.1783)" style="fill:#FFFFFF;stroke:#263238;stroke-miterlimit:10;" width="2.118" height="3.258"></rect>				<g>					<path d="M404.685,383.879c2.039-3.879,4.35-8.275,4.35-13.515c0-8.007-0.641-14.505-0.647-14.569l1.861-0.186      c0.007,0.066,0.656,6.65,0.656,14.756c0,5.702-2.531,10.517-4.565,14.386c-1.605,3.054-2.992,5.691-2.429,7.505      c0.337,1.086,0.87,1.784,1.585,2.074c1.02,0.414,2.232-0.019,2.737-0.24v1.991c-0.502,0.155-1.128,0.288-1.8,0.288      c-0.527,0-1.082-0.082-1.626-0.3c-1.266-0.508-2.168-1.605-2.682-3.258C401.333,390.255,402.886,387.3,404.685,383.879z"></path>				</g>			</g>			<g>									<rect x="348.864" y="402.566" transform="matrix(-1 -1.224647e-16 1.224647e-16 -1 884.3918 813.5492)" style="fill:#919191;stroke:#263238;stroke-miterlimit:10;" width="186.665" height="8.418"></rect>									<rect x="348.864" y="402.566" transform="matrix(-1 -1.224647e-16 1.224647e-16 -1 720.7352 813.5492)" style="fill:#BDBDBD;stroke:#263238;stroke-miterlimit:10;" width="23.008" height="8.418"></rect>			</g>		</g>		<g>			<rect x="208.851" y="141.067" style="fill:#263238;stroke:#263238;stroke-miterlimit:10;" width="364.981" height="38.272"></rect>							<rect x="70.925" y="141.066" transform="matrix(-1 -1.224647e-16 1.224647e-16 -1 441.9598 320.4071)" style="fill:#92E3A9;stroke:#263238;stroke-linecap:round;stroke-linejoin:round;stroke-miterlimit:10;" width="300.11" height="38.275"></rect>			<path style="fill:#919191;stroke:#263238;stroke-miterlimit:10;" d="M371.035,179.341v-36.61l-84.904,21.308    c-11.947,2.998-24.53,2.228-36.022-2.204l-18.557-7.158c-8.552-3.299-17.888-3.998-26.837-2.009L84.684,179.341H371.035z"></path>		</g>	</g></g><g id="Character">	<g>		<g>			<g>				<path style="fill:#FFFFFF;stroke:#263238;stroke-linecap:round;stroke-linejoin:round;stroke-miterlimit:10;" d="     M216.716,402.809c0,0-2.063,4.331-1.691,5.232c0.372,0.901,2.779,0.857,2.779,0.857l0.1-5.894     C217.904,403.004,217.362,401.435,216.716,402.809z"></path>				<path style="fill:#FFFFFF;stroke:#263238;stroke-linecap:round;stroke-linejoin:round;stroke-miterlimit:10;" d="     M222.389,405.952c0,0,2.615,1.611,3.353,1.992c0.737,0.381,3.858,1.045,3.92,1.705s-3.03,1.092-4.576,1.307     c-1.546,0.216-8.347-0.933-8.658-1.174c-0.31-0.241,0.851-4.2,0.851-4.2L222.389,405.952z"></path>				<path style="fill:#525252;stroke:#263238;stroke-linecap:round;stroke-linejoin:round;stroke-miterlimit:10;" d="     M232.618,349.318c0,0-1.361,23.289-1.256,26.357c0.105,3.068-1.031,5.171-1.094,6.041c-0.063,0.87-7.383,18.918-7.383,18.918     l-1.395,4.161l-2.853-4.36l3.013-20.437l-2.949-30.159l7.612-0.978L232.618,349.318z"></path>				<path style="fill:#525252;stroke:#263238;stroke-linecap:round;stroke-linejoin:round;stroke-miterlimit:10;" d="     M208.744,349.991c0,0,1.674,10.067,3.44,14.348s3.99,15.808,3.99,15.808s-1.404,5.8-0.483,8.161     c0.922,2.362,0.969,15.261,0.969,15.261s-0.243,1.84-0.166,2.283c0.077,0.443,0.131,1.212,0.131,1.212s2.214-0.386,2.983-0.439     c0.769-0.053,3.426-0.517,3.426-0.517s0.118-1.631,0.298-2.601c0.18-0.971-0.471-2.548-0.447-2.874     c0.024-0.326,1.081-8.883,1.081-8.883s1.605-11.577,1.762-13.752c0.158-2.174-2.317-25.304-2.317-25.304     s-6.883-4.543-9.485-4.841C211.325,347.555,208.744,349.991,208.744,349.991z"></path>			</g>			<path style="fill:#FFFFFF;stroke:#263238;stroke-linecap:round;stroke-linejoin:round;stroke-miterlimit:10;" d="    M216.567,308.579c0,0-9.591,5.38-9.629,5.898c-0.038,0.518,1.915,21.342,1.915,21.342s-1.2,11.867-1.294,13.163    c-0.094,1.295,0.059,2.782,0.059,2.782l5.48-2.554c0,0,9.673,4.26,10.956,4.527c1.283,0.267,2.565,0.533,2.565,0.533l1.298-2.336    l0.133,2.961c0,0,2.111-1.583,3.069-2.815c0.957-1.233,2.106-2.712,2.106-2.712l-0.947-13.262c0,0-0.959-17.363-0.89-18.313    c0.069-0.95-1.143-6.087-2.048-6.76c-0.906-0.673-4.729-2.044-4.729-2.044l-6.592-1.259L216.567,308.579z"></path>			<path style="fill:#263238;stroke:#263238;stroke-linecap:round;stroke-linejoin:round;stroke-miterlimit:10;" d="    M215.147,298.233c0,0,0.454,1.935,1.002,2.703c0.548,0.767,2.083,2.961,2.083,2.961l3.399-1.974l-0.658-5.921L215.147,298.233z"></path>			<polygon style="fill:#FFFFFF;stroke:#263238;stroke-linecap:round;stroke-linejoin:round;stroke-miterlimit:10;" points="    217.71,301.197 217.136,307.296 223.971,311.807 225.173,307.207 219.438,300.107    "></polygon>			<polygon style="fill:#263238;" points="221.764,306.123 224.238,309.549 224.904,307.741    "></polygon>			<g>				<path style="fill:#FFFFFF;stroke:#263238;stroke-linecap:round;stroke-linejoin:round;stroke-miterlimit:10;" d="M229.8,294.869     l-0.189,3.806l-0.501,0.918l0.089,3.565l-0.648,0.561c0,0-1.003,3.052-1.194,3.298c-0.191,0.247-1.204,1.041-1.562,1.189     c-0.358,0.148-3.859-1.842-4.407-2.663c-0.548-0.821-1.17-1.821-1.17-1.821l0.108-2.683l-0.247-4.966L229.8,294.869z"></path>				<path style="fill:none;stroke:#263238;stroke-linecap:round;stroke-linejoin:round;stroke-miterlimit:10;" d="M226.826,299.856     v0.999c0,0-0.732,0.399-1.465-0.133"></path>				<path style="fill:none;stroke:#263238;stroke-linecap:round;stroke-linejoin:round;stroke-miterlimit:10;" d="M227.292,305.05     c0,0-0.333,0.067-1.066-0.4"></path>				<polygon style="fill:#263238;" points="224.618,296.987 229.567,297.273 229.8,294.869 224.143,296.416     "></polygon>									<line style="fill:#FFFFFF;stroke:#263238;stroke-linecap:round;stroke-linejoin:round;stroke-miterlimit:10;" x1="227.649" y1="299.401" x2="224.892" y2="299.114"></line>									<line style="fill:#FFFFFF;stroke:#263238;stroke-linecap:round;stroke-linejoin:round;stroke-miterlimit:10;" x1="228.55" y1="303.719" x2="226.718" y2="303.847"></line>			</g>			<path style="fill:#92E3A9;stroke:#263238;stroke-linecap:round;stroke-linejoin:round;stroke-miterlimit:10;" d="    M230.404,294.686c0,0-0.534-3.585-1.754-4.715c-1.22-1.13-7.594-2.056-8.224-1.754c-0.629,0.302-1.754,0.877-1.754,0.877    s-1.171,0.63-2.189,1.511c-1.019,0.881-1.593,1.621-1.706,3.175s0.371,4.454,0.371,4.454L230.404,294.686z"></path>			<polygon style="fill:#FFFFFF;stroke:#263238;stroke-linecap:round;stroke-linejoin:round;stroke-miterlimit:10;" points="    216.719,305.291 222.433,307.876 224.186,312.43 215.623,308.423    "></polygon>			<path style="fill:#FFFFFF;stroke:#263238;stroke-linecap:round;stroke-linejoin:round;stroke-miterlimit:10;" d="    M220.645,300.169c0,0-0.658-2.522-1.974-1.645c-1.316,0.877,0.219,3.618,0.439,3.947c0.219,0.329,0.987,0.439,1.426-0.439"></path>			<path style="fill:#92E3A9;stroke:#263238;stroke-linecap:round;stroke-linejoin:round;stroke-miterlimit:10;" d="M222.18,296.55    c0,0,3.249,1.58,5.592,1.426c2.642-0.174,8.138-0.812,6.798-1.864c-0.431-0.339-4.771-1.242-4.771-1.242    S224.154,295.673,222.18,296.55z"></path>			<g>				<g>					<g>						<path style="fill:#FFFFFF;stroke:#263238;stroke-miterlimit:10;" d="M258.699,344.696c-3.1-2.846-9.328-3.268-9.605-3.286       l-0.083,1.326c0.058,0.004,5.152,0.346,8.095,2.383L258.699,344.696z"></path>					</g>					<g>						<path style="fill:#FFFFFF;stroke:#263238;stroke-width:0.5;stroke-miterlimit:10;" d="M255.146,344.339       c0.001,0.004,0.002,0.008,0.003,0.012c0.038,0.117,0.163,0.18,0.279,0.142l2.017-0.657c0.116-0.038,0.181-0.173,0.142-0.279       c-0.038-0.117-0.163-0.18-0.279-0.142l-2.017,0.657C255.18,344.108,255.117,344.226,255.146,344.339z"></path>					</g>					<g>						<path style="fill:#FFFFFF;stroke:#263238;stroke-width:0.5;stroke-miterlimit:10;" d="M252.934,343.343       c0.031,0.118,0.153,0.189,0.271,0.157l2.047-0.544c0.118-0.031,0.188-0.152,0.157-0.271c-0.031-0.118-0.153-0.189-0.271-0.157       l-2.047,0.544C252.973,343.104,252.902,343.225,252.934,343.343z"></path>					</g>					<g>						<path style="fill:#FFFFFF;stroke:#263238;stroke-width:0.5;stroke-miterlimit:10;" d="M250.387,342.923       c0.004,0.015,0.009,0.029,0.016,0.043c0.055,0.109,0.188,0.153,0.297,0.098l2.041-1.029c0.11-0.055,0.154-0.19,0.098-0.297       c-0.055-0.109-0.188-0.153-0.297-0.098l-2.041,1.029C250.406,342.717,250.361,342.825,250.387,342.923z"></path>					</g>				</g>				<path style="fill:none;stroke:#263238;stroke-miterlimit:10;" d="M243.398,344.171c0,0-5.611,0.881-6.036,1.115     s-0.329,2.888-0.329,2.888"></path>				<g>					<path d="M233.132,343.573l2.072,3.825c0.538,0.993,1.74,1.439,2.796,1.038l5.7-2.167l-0.472-1.242l-5.7,2.167      c-0.437,0.166-0.934-0.018-1.156-0.429l-2.073-3.825L233.132,343.573z"></path>				</g>				<g>					<g>													<rect x="230.751" y="343.816" transform="matrix(0.9312 -0.3645 0.3645 0.9312 -109.6397 108.4261)" style="stroke:#263238;stroke-miterlimit:10;" width="3.405" height="1.771"></rect>					</g>					<g>													<rect x="233.726" y="341.539" transform="matrix(0.9312 -0.3645 0.3645 0.9312 -108.4123 110.3945)" style="fill:#FFFFFF;stroke:#263238;stroke-miterlimit:10;" width="9.093" height="1.771"></rect>					</g>				</g>				<g>					<polygon style="fill:#92E3A9;stroke:#263238;stroke-linecap:round;stroke-linejoin:round;stroke-miterlimit:10;" points="      249.986,340.923 249.499,343.757 248.046,343.805 247.286,346.035 243.672,346.431 240.283,340.456 241.576,338.535       247.568,338.184 248.632,340.493      "></polygon>					<polygon style="fill:#92E3A9;stroke:#263238;stroke-linecap:round;stroke-linejoin:round;stroke-miterlimit:10;" points="      247.062,339.671 248.315,342.268 249.705,342.556 249.986,340.923 248.632,340.494 247.568,338.184 241.576,338.535       240.552,340.056      "></polygon>				</g>			</g>			<polygon style="fill:#FFFFFF;stroke:#263238;stroke-linecap:round;stroke-linejoin:round;stroke-miterlimit:10;" points="    213.565,331.927 215.614,335 234.05,343.398 237.123,346.266 240.195,345.242 242.858,344.832 239.581,339.302 233.026,339.097     220.735,331.108 218.891,328.854    "></polygon>			<polyline style="fill:#FFFFFF;stroke:#263238;stroke-linecap:round;stroke-linejoin:round;stroke-miterlimit:10;" points="    206.938,314.477 211.312,334.59 220.94,329.469 214.589,315.129    "></polyline>		</g>		<path style="fill:none;stroke:#263238;stroke-width:3;stroke-linejoin:round;stroke-miterlimit:10;" d="M230.546,344.498   c0,0-12.264,2.488-21.213,12.27c-8.227,8.993-16.625,17.835-25.334,26.363c-9.935,9.728-17.886,16.241-30.789,21.906   c-9.184,4.032-22.756,8.038-32.524,3.979c-12.316-5.117-9.102-22.565-9.364-33.096c-0.521-20.94-0.514-41.936,0.131-62.874   c0.079-2.576,0.17-5.152,0.315-7.725c0.218-3.879,0.519-11.479,2.144-15.007c1.262-2.738,3.993-4.171,5.719-4.1   c5.858,0.241,7.592,7.069,8.216,13.105c0.624,6.035,1.712,42.805,1.712,42.805"></path>	</g></g><g id="Car">	<g>		<path style="fill:#263238;stroke:#263238;stroke-linecap:round;stroke-linejoin:round;stroke-miterlimit:10;" d="M202.224,342.154   h-0.436c-1.872,0-3.185-1.828-2.61-3.61c0.547-1.697,1.481-3.408,3.046-3.669c3.235-0.539,12.131,2.157,12.131,4.044   c0,1.887,0,2.696-1.078,2.696c-1.078,0-6.74,0-6.74,0l-5.391,5.931l-0.115-0.094c-1.203-0.984-1.171-2.78-0.007-3.811   C201.466,343.249,201.887,342.761,202.224,342.154z"></path>		<path style="fill:#263238;stroke:#263238;stroke-linecap:round;stroke-linejoin:round;stroke-miterlimit:10;" d="M263.149,392.296   h89.5c0,0,12.94-8.626,10.244-31.271c-2.696-22.645-17.253-7.548-22.645,7.548H300.35c0,0-8.626-17.253-22.644-15.096   C263.688,355.633,263.149,392.296,263.149,392.296z"></path>		<path style="fill:#263238;stroke:#263238;stroke-linecap:round;stroke-linejoin:round;stroke-miterlimit:10;" d="M285.141,387.81   c0-6.649-1.906-12.64-4.953-16.866v-6.308h-10.791c-8.695,0-15.744,10.375-15.744,23.173c0,12.798,7.049,23.173,15.744,23.173   h10.791v-6.308C283.236,400.45,285.141,394.459,285.141,387.81z"></path>		<g>			<defs>				<ellipse id="XMLID_4_" cx="280.188" cy="387.81" rx="15.744" ry="23.173"></ellipse>			</defs>			<use xlink:href="#XMLID_4_" style="overflow:visible;fill:#263238;"></use>			<clipPath id="XMLID_00000161605804793553881870000000059216898454589622_">				<use xlink:href="#XMLID_4_" style="overflow:visible;"></use>			</clipPath>							<ellipse style="opacity:0.2;clip-path:url(#XMLID_00000161605804793553881870000000059216898454589622_);fill:#FFFFFF;stroke:#263238;stroke-linecap:round;stroke-linejoin:round;stroke-miterlimit:10;" cx="280.188" cy="387.81" rx="15.744" ry="23.173"></ellipse>							<use xlink:href="#XMLID_4_" style="overflow:visible;fill:none;stroke:#263238;stroke-linecap:round;stroke-linejoin:round;stroke-miterlimit:10;"></use>		</g>		<path style="fill:#263238;stroke:#263238;stroke-linecap:round;stroke-linejoin:round;stroke-miterlimit:10;" d="M187.884,364.637   h-10.198c-8.218,0-14.879,10.375-14.879,23.173c0,12.798,6.662,23.173,14.879,23.173h10.198c8.218,0,14.879-10.375,14.879-23.173   C202.763,375.012,196.102,364.637,187.884,364.637z"></path>					<ellipse style="fill:#FFFFFF;stroke:#263238;stroke-linecap:round;stroke-linejoin:round;stroke-miterlimit:10;" cx="280.188" cy="387.81" rx="12.56" ry="18.487"></ellipse>		<path style="fill:#263238;stroke:#263238;stroke-linecap:round;stroke-linejoin:round;stroke-miterlimit:10;" d="M358.867,387.81   c0-6.649-1.213-12.64-3.152-16.866v-6.308h-9.527c-5.534,0-10.02,10.375-10.02,23.173c0,12.798,4.486,23.173,10.02,23.173h9.527   v-6.308C357.655,400.45,358.867,394.459,358.867,387.81z"></path>		<g>			<defs>				<ellipse id="XMLID_3_" cx="355.715" cy="387.81" rx="10.02" ry="23.173"></ellipse>			</defs>			<use xlink:href="#XMLID_3_" style="overflow:visible;fill:#263238;"></use>			<clipPath id="XMLID_00000119077493679680658340000014155629334198373794_">				<use xlink:href="#XMLID_3_" style="overflow:visible;"></use>			</clipPath>							<ellipse style="opacity:0.2;clip-path:url(#XMLID_00000119077493679680658340000014155629334198373794_);fill:#FFFFFF;stroke:#263238;stroke-linecap:round;stroke-linejoin:round;stroke-miterlimit:10;" cx="355.715" cy="387.81" rx="10.02" ry="23.173"></ellipse>							<use xlink:href="#XMLID_3_" style="overflow:visible;fill:none;stroke:#263238;stroke-linecap:round;stroke-linejoin:round;stroke-miterlimit:10;"></use>		</g>		<path style="fill:#FFFFFF;stroke:#263238;stroke-linecap:round;stroke-linejoin:round;stroke-miterlimit:10;" d="M363.708,387.81   c0,10.21-3.579,18.487-7.993,18.487c-4.415,0-7.993-8.277-7.993-18.487s3.579-18.487,7.993-18.487   C360.129,369.323,363.708,377.6,363.708,387.81z"></path>		<path id="XMLID_2_" style="fill:#FFFFFF;stroke:#263238;stroke-linecap:round;stroke-linejoin:round;stroke-miterlimit:10;" d="   M266.921,393.471c0-18.465,6.415-33.433,14.329-33.433c7.913,0,14.328,14.969,14.328,33.433c0,1.014-0.023,2.016-0.061,3.007   h51.051c-0.028-0.991-0.044-1.993-0.044-3.007c0-18.465,4.673-33.433,10.437-33.433c3.851,0,7.213,6.688,9.022,16.631V349.4   c0-2.567-1.826-4.762-4.35-5.234c-0.082-0.015-0.165-0.031-0.25-0.048c-3.538-0.708-9.906-7.43-19.812-15.921   c-9.906-8.491-18.751-9.199-18.751-9.199h-21.935h-67.446c-1.689,0-3.33,0.56-4.667,1.591l-30.487,23.528   c0,0-27.242,5.307-33.256,11.321c-6.015,6.014-5.307,41.04-5.307,41.04h107.259C266.944,395.487,266.921,394.485,266.921,393.471z   "></path>		<path style="fill:#FFFFFF;stroke:#263238;stroke-linecap:round;stroke-linejoin:round;stroke-miterlimit:10;" d="M300.885,318.998   h-67.446c-1.689,0-3.33,0.56-4.667,1.591l-30.487,23.528h86.325L300.885,318.998z"></path>		<g>			<path style="fill:#263238;stroke:#263238;stroke-linecap:round;stroke-linejoin:round;stroke-miterlimit:10;" d="    M265.559,353.581c-4.856,0.06-13.351,0.384-17.035,1.857c-5.307,2.123-8.845,4.245-8.845,4.245h17.336L265.559,353.581z"></path>			<path style="fill:#263238;stroke:#263238;stroke-linecap:round;stroke-linejoin:round;stroke-miterlimit:10;" d="    M258.076,364.991v-3.184h-18.397l3.332,3.076c-0.057,0.034-0.109,0.069-0.148,0.108H258.076z"></path>			<path style="fill:#263238;stroke:#263238;stroke-linecap:round;stroke-linejoin:round;stroke-miterlimit:10;" d="    M259.845,360.391v4.627c1.146-0.14,2.593-0.639,3.538-2.151c1.769-2.83,5.752-9.289,5.752-9.289L259.845,360.391z"></path>		</g>		<g>			<path style="fill:#263238;stroke:#263238;stroke-linecap:round;stroke-linejoin:round;stroke-miterlimit:10;" d="    M166.741,364.882l3.332-3.076h-7.853c-0.245,0.995-0.467,2.061-0.667,3.184h5.336    C166.85,364.951,166.798,364.916,166.741,364.882z"></path>			<path style="fill:#263238;stroke:#263238;stroke-linecap:round;stroke-linejoin:round;stroke-miterlimit:10;" d="    M164.112,356.662c-0.482,0.813-0.912,1.835-1.295,3.021h7.256C170.073,359.684,167.777,358.307,164.112,356.662z"></path>		</g>		<g>			<defs>				<path id="XMLID_1_" d="M284.611,344.117h52.361c0,0,7.43-2.477,5.307-11.675c-0.72-3.122-15.567-10.26-17.69-10.26     c-2.123,0-25.473,0-25.473,0L284.611,344.117z"></path>			</defs>			<use xlink:href="#XMLID_1_" style="overflow:visible;fill:#263238;"></use>			<clipPath id="XMLID_00000050627037357997477910000010488535828273454720_">				<use xlink:href="#XMLID_1_" style="overflow:visible;"></use>			</clipPath>							<path style="opacity:0.2;clip-path:url(#XMLID_00000050627037357997477910000010488535828273454720_);fill:#FFFFFF;stroke:#263238;stroke-linecap:round;stroke-linejoin:round;stroke-miterlimit:10;" d="    M284.611,344.117h52.361c0,0,7.43-2.477,5.307-11.675c-0.72-3.122-15.567-10.26-17.69-10.26c-2.123,0-25.473,0-25.473,0    L284.611,344.117z"></path>							<use xlink:href="#XMLID_1_" style="overflow:visible;fill:none;stroke:#263238;stroke-linecap:round;stroke-linejoin:round;stroke-miterlimit:10;"></use>		</g>		<polygon style="fill:#263238;stroke:#263238;stroke-linecap:round;stroke-linejoin:round;stroke-miterlimit:10;" points="   226.708,322.182 198.285,344.117 284.611,344.117 298.822,322.182   "></polygon>		<polygon style="fill:#263238;stroke:#263238;stroke-linecap:round;stroke-linejoin:round;stroke-miterlimit:10;" points="   171.397,360.391 171.397,367.821 176.704,371.712 219.513,371.712 229.419,367.467 229.419,360.391   "></polygon>		<g>							<rect x="171.397" y="360.391" style="opacity:0.3;fill:#FFFFFF;stroke:#263238;stroke-linecap:round;stroke-linejoin:round;stroke-miterlimit:10;" width="1.978" height="1.978"></rect>							<rect x="173.585" y="362.578" style="opacity:0.3;fill:#FFFFFF;stroke:#263238;stroke-linecap:round;stroke-linejoin:round;stroke-miterlimit:10;" width="1.978" height="1.978"></rect>							<rect x="175.772" y="364.766" style="opacity:0.3;fill:#FFFFFF;stroke:#263238;stroke-linecap:round;stroke-linejoin:round;stroke-miterlimit:10;" width="1.978" height="1.978"></rect>							<rect x="177.959" y="366.953" style="opacity:0.3;fill:#FFFFFF;stroke:#263238;stroke-linecap:round;stroke-linejoin:round;stroke-miterlimit:10;" width="1.978" height="1.978"></rect>							<rect x="227.047" y="360.391" style="opacity:0.3;fill:#FFFFFF;stroke:#263238;stroke-linecap:round;stroke-linejoin:round;stroke-miterlimit:10;" width="1.978" height="1.978"></rect>							<rect x="224.86" y="362.578" style="opacity:0.3;fill:#FFFFFF;stroke:#263238;stroke-linecap:round;stroke-linejoin:round;stroke-miterlimit:10;" width="1.978" height="1.978"></rect>							<rect x="222.673" y="364.766" style="opacity:0.3;fill:#FFFFFF;stroke:#263238;stroke-linecap:round;stroke-linejoin:round;stroke-miterlimit:10;" width="1.978" height="1.978"></rect>							<rect x="220.485" y="366.953" style="opacity:0.3;fill:#FFFFFF;stroke:#263238;stroke-linecap:round;stroke-linejoin:round;stroke-miterlimit:10;" width="1.978" height="1.978"></rect>							<rect x="180.997" y="366.953" style="opacity:0.3;fill:#FFFFFF;stroke:#263238;stroke-linecap:round;stroke-linejoin:round;stroke-miterlimit:10;" width="1.978" height="1.978"></rect>							<rect x="184.034" y="366.953" style="opacity:0.3;fill:#FFFFFF;stroke:#263238;stroke-linecap:round;stroke-linejoin:round;stroke-miterlimit:10;" width="1.978" height="1.978"></rect>							<rect x="187.072" y="366.953" style="opacity:0.3;fill:#FFFFFF;stroke:#263238;stroke-linecap:round;stroke-linejoin:round;stroke-miterlimit:10;" width="1.978" height="1.978"></rect>							<rect x="190.109" y="366.953" style="opacity:0.3;fill:#FFFFFF;stroke:#263238;stroke-linecap:round;stroke-linejoin:round;stroke-miterlimit:10;" width="1.978" height="1.978"></rect>							<rect x="193.147" y="366.953" style="opacity:0.3;fill:#FFFFFF;stroke:#263238;stroke-linecap:round;stroke-linejoin:round;stroke-miterlimit:10;" width="1.978" height="1.978"></rect>							<rect x="196.185" y="366.953" style="opacity:0.3;fill:#FFFFFF;stroke:#263238;stroke-linecap:round;stroke-linejoin:round;stroke-miterlimit:10;" width="1.978" height="1.978"></rect>							<rect x="199.222" y="366.953" style="opacity:0.3;fill:#FFFFFF;stroke:#263238;stroke-linecap:round;stroke-linejoin:round;stroke-miterlimit:10;" width="1.978" height="1.978"></rect>							<rect x="202.26" y="366.953" style="opacity:0.3;fill:#FFFFFF;stroke:#263238;stroke-linecap:round;stroke-linejoin:round;stroke-miterlimit:10;" width="1.978" height="1.978"></rect>							<rect x="205.298" y="366.953" style="opacity:0.3;fill:#FFFFFF;stroke:#263238;stroke-linecap:round;stroke-linejoin:round;stroke-miterlimit:10;" width="1.978" height="1.978"></rect>							<rect x="208.335" y="366.953" style="opacity:0.3;fill:#FFFFFF;stroke:#263238;stroke-linecap:round;stroke-linejoin:round;stroke-miterlimit:10;" width="1.978" height="1.978"></rect>							<rect x="211.373" y="366.953" style="opacity:0.3;fill:#FFFFFF;stroke:#263238;stroke-linecap:round;stroke-linejoin:round;stroke-miterlimit:10;" width="1.978" height="1.978"></rect>							<rect x="214.41" y="366.953" style="opacity:0.3;fill:#FFFFFF;stroke:#263238;stroke-linecap:round;stroke-linejoin:round;stroke-miterlimit:10;" width="1.978" height="1.978"></rect>							<rect x="217.448" y="366.953" style="opacity:0.3;fill:#FFFFFF;stroke:#263238;stroke-linecap:round;stroke-linejoin:round;stroke-miterlimit:10;" width="1.978" height="1.978"></rect>		</g>		<path style="fill:#263238;stroke:#263238;stroke-linecap:round;stroke-linejoin:round;stroke-miterlimit:10;" d="M249.939,380.911   h-88.094l-1.18-9.44c-0.54,5.187-0.787,10.717-0.893,15.256l0.304,1.26l1.769-3.538h7.556l-4.726,3.892h70.051l-2.502-3.892   h17.715l4.953,2.83h3.538v-18.043L249.939,380.911z"></path>		<path style="fill:#263238;stroke:#263238;stroke-linecap:round;stroke-linejoin:round;stroke-miterlimit:10;" d="M319.126,344.117   h2.953c-0.313-4.338-1.55-13.9-6.411-21.935c-0.965,0-1.96,0-2.962,0C314.416,325.88,318.462,335.414,319.126,344.117z"></path>		<path style="fill:#525252;stroke:#263238;stroke-linecap:round;stroke-linejoin:round;stroke-miterlimit:10;" d="M255.331,328.136   l1.078,2.965c0,0-2.156,1.887-2.156,4.852c0,2.149,0,6.13,0,8.163h-6.637l5.559-15.981H255.331z M224.329,332.18   c-4.554,2.772-11.429,8.884-14.762,11.937h22.167l11.465-17.598l-7.548,0.539C235.652,327.058,230.53,328.406,224.329,332.18z    M270.158,330.023l-2.696-0.539h-3.774l-1.078,1.078c0,0,2.696,0.27,2.965,1.887c0.27,1.617,0.27,4.852,0.27,4.852h1.887   c0,0,0-2.965,1.348-4.313s2.426-2.157,2.426-2.157L270.158,330.023z"></path>		<g>			<path style="fill:#FFFFFF;stroke:#263238;stroke-linecap:round;stroke-linejoin:round;stroke-miterlimit:10;" d="    M303.046,342.154h-0.436c-1.872,0-3.185-1.828-2.61-3.61c0.547-1.697,1.481-3.408,3.046-3.669    c3.235-0.539,12.131,2.157,12.131,4.044c0,1.887,0,2.696-1.078,2.696s-6.739,0-6.739,0l-5.392,5.931l-0.115-0.094    c-1.203-0.984-1.171-2.78-0.007-3.811C302.288,343.249,302.709,342.761,303.046,342.154z"></path>			<path style="fill:#263238;stroke:#263238;stroke-linecap:round;stroke-linejoin:round;stroke-miterlimit:10;" d="    M301.853,347.452l0.115,0.094l5.392-5.931c0,0,5.661,0,6.739,0c0.891,0,1.044-0.564,1.07-1.821h-15.27    c0.188,1.295,1.283,2.36,2.711,2.36h0.436c-0.337,0.606-0.758,1.095-1.2,1.487C300.682,344.671,300.65,346.467,301.853,347.452z"></path>		</g>					<rect x="312.426" y="350.63" style="fill:#263238;stroke:#263238;stroke-linecap:round;stroke-linejoin:round;stroke-miterlimit:10;" width="6.068" height="1.3"></rect>					<rect x="339.733" y="350.63" style="fill:#263238;stroke:#263238;stroke-linecap:round;stroke-linejoin:round;stroke-miterlimit:10;" width="6.068" height="1.3"></rect>		<path style="fill:none;stroke:#263238;stroke-linecap:round;stroke-linejoin:round;stroke-miterlimit:10;" d="M346.235,345.429   c0,0,4.39,2.979,6.935,13.437c0,0-10.836,1.3-10.836,31.208"></path>		<g>			<path style="fill:#263238;stroke:#263238;stroke-linecap:round;stroke-linejoin:round;stroke-miterlimit:10;" d="    M341.033,391.375h-43.779h-1.708c0.018,0.694,0.031,1.391,0.031,2.096c0,1.014-0.023,2.016-0.061,3.007h51.051    c-0.028-0.991-0.044-1.993-0.044-3.007c0-0.07,0.001-0.138,0.002-0.208L341.033,391.375z"></path>			<path style="fill:#263238;stroke:#263238;stroke-linecap:round;stroke-linejoin:round;stroke-miterlimit:10;" d="    M266.921,393.471c0-0.705,0.013-1.402,0.031-2.096h-107.25c-0.02,3.112,0.02,5.103,0.02,5.103h107.259    C266.944,395.487,266.921,394.485,266.921,393.471z"></path>		</g>		<path style="fill:#263238;stroke:#263238;stroke-linecap:round;stroke-linejoin:round;stroke-miterlimit:10;" d="M364.081,348.03   c-1.717,0-3.109,1.392-3.109,3.108c0,0.52,0.131,1.032,0.38,1.488l4.631,8.49V349.4c0-0.474-0.081-0.927-0.198-1.367l-0.044-0.003   H364.081z"></path>		<path style="fill:none;stroke:#263238;stroke-linecap:round;stroke-linejoin:round;stroke-miterlimit:10;" d="M322.456,348.624   c0,0,9.705,14.018,0,37.741"></path>	</g></g><g id="Board">	<g>		<rect x="592.656" y="148.635" style="fill:#666666;stroke:#263238;stroke-miterlimit:10;" width="75.852" height="262.349"></rect>		<rect x="587.089" y="148.635" style="fill:#919191;stroke:#263238;stroke-miterlimit:10;" width="75.852" height="262.349"></rect>					<rect x="587.089" y="148.635" style="fill:#FFFFFF;stroke:#263238;stroke-linecap:round;stroke-linejoin:round;stroke-miterlimit:10;" width="75.852" height="190.123"></rect>		<rect x="587.089" y="221.328" style="fill:#263238;stroke:#263238;stroke-miterlimit:10;" width="75.852" height="44.613"></rect>					<rect x="595.44" y="274.59" style="fill:#FFFFFF;stroke:#263238;stroke-linecap:round;stroke-linejoin:round;stroke-miterlimit:10;" width="57.063" height="9.047"></rect>					<rect x="595.44" y="296.51" style="fill:#FFFFFF;stroke:#263238;stroke-linecap:round;stroke-linejoin:round;stroke-miterlimit:10;" width="57.063" height="9.047"></rect>					<rect x="595.44" y="231.793" style="fill:#8F8F8F;stroke:#263238;stroke-linecap:round;stroke-linejoin:round;stroke-miterlimit:10;" width="57.063" height="9.047"></rect>					<rect x="595.44" y="247.798" style="fill:#8F8F8F;stroke:#263238;stroke-linecap:round;stroke-linejoin:round;stroke-miterlimit:10;" width="57.063" height="9.047"></rect>	</g></g><g id="Plants">	<g>		<g>			<path style="fill:#263238;" d="M666.607,365.8c1.557,0.68,5.367,0.594,5.37,0.594c0.039-0.001-0.819-2.494-0.891-2.645    c-0.836-1.748-3.479-4.635-5.63-4.345c-1.549,0.21-2.411,1.76-2.061,3.219C663.753,364.114,665.281,365.22,666.607,365.8z"></path>			<path style="fill:#263238;" d="M667.922,376.834c1.616,0.236,5.015-0.75,5.286-0.83c0.537,1.903,1.242,3.812,2.062,5.705    c0.468,1.083,0.972,2.159,1.492,3.231c-0.31-0.454-0.591-0.858-0.636-0.911c-1.268-1.466-4.58-3.552-6.577-2.704    c-1.44,0.611-1.861,2.334-1.138,3.649c0.738,1.342,2.505,2.007,3.937,2.215c1.453,0.212,4.369-0.57,5.138-0.788    c0.204,0.409,0.402,0.82,0.608,1.229c0.984,1.96,1.975,3.912,2.888,5.856c0.322,0.685,0.614,1.371,0.909,2.057    c-0.276-0.403-0.512-0.741-0.553-0.788c-1.268-1.465-4.579-3.552-6.577-2.704c-1.439,0.611-1.861,2.334-1.138,3.649    c0.738,1.343,2.505,2.007,3.937,2.215c1.387,0.203,4.084-0.496,4.999-0.749c0.281,0.711,0.563,1.423,0.803,2.125    c0.153,0.483,0.334,0.937,0.46,1.431c0.136,0.486,0.27,0.968,0.403,1.444c0.222,0.927,0.458,1.883,0.652,2.793    c0.14,0.632,0.262,1.237,0.386,1.846c-0.313-0.686-0.953-2.015-1.02-2.12c-1.031-1.641-3.988-4.204-6.092-3.669    c-1.515,0.386-2.193,2.025-1.677,3.434c0.526,1.439,2.171,2.363,3.556,2.786c1.524,0.466,4.898,0.04,5.319-0.016    c0.202,1.008,0.389,1.991,0.551,2.921c0.051,0.288,0.096,0.562,0.143,0.841h1.328c-0.068-0.355-0.134-0.708-0.207-1.077    c-0.201-1.025-0.436-2.115-0.689-3.233c0.254-0.101,1.693-0.683,2.968-1.396c1.111,1.203,3.957,2.611,4.325,2.79    c-0.387,0.953-0.773,1.875-1.152,2.74c-0.026,0.061-0.052,0.116-0.078,0.176h1.393c0.356-0.875,0.717-1.797,1.079-2.753    c0.408,0.085,3.748,0.764,5.305,0.412c1.412-0.319,3.122-1.118,3.754-2.514c0.619-1.366,0.065-3.052-1.418-3.549    c-2.057-0.691-5.197,1.645-6.348,3.205c-0.068,0.092-0.693,1.172-1.076,1.86c0.164-0.439,0.327-0.863,0.49-1.316    c0.329-0.895,0.63-1.798,0.957-2.768c0.142-0.474,0.285-0.953,0.43-1.436c0.153-0.477,0.255-1,0.387-1.503    c0.28-1.175,0.506-2.379,0.707-3.597c0.784,0.285,3.584,1.259,5.035,1.157c1.444-0.102,3.255-0.632,4.091-1.916    c0.819-1.257,0.527-3.007-0.863-3.724c-1.929-0.995-5.387,0.839-6.761,2.206c-0.086,0.085-0.961,1.177-1.43,1.786    c0.115-0.733,0.234-1.464,0.326-2.21c0.267-2.152,0.47-4.338,0.683-6.518c0.065-0.668,0.137-1.333,0.207-1.998    c0.278,0.105,3.581,1.335,5.206,1.22c1.444-0.101,3.255-0.632,4.091-1.916c0.819-1.257,0.527-3.007-0.863-3.723    c-1.929-0.995-5.386,0.839-6.76,2.206c-0.103,0.103-1.361,1.676-1.661,2.091c0.155-1.466,0.323-2.926,0.547-4.358    c0.306-1.976,0.716-3.898,1.251-5.731c0.129,0.049,3.571,1.348,5.235,1.231c1.444-0.102,3.255-0.632,4.091-1.916    c0.819-1.257,0.527-3.007-0.863-3.723c-1.929-0.995-5.386,0.839-6.76,2.206c-0.108,0.107-1.46,1.8-1.683,2.124    c0.032-0.109,0.053-0.225,0.087-0.333c0.596-1.95,1.418-3.763,2.27-5.424c0.494-0.966,1.02-1.861,1.55-2.721    c0.616,0.308,3.448,1.683,4.957,1.743c1.447,0.058,3.305-0.271,4.277-1.455c0.952-1.16,0.854-2.931-0.449-3.796    c-1.808-1.201-5.446,0.242-6.962,1.45c-0.082,0.066-0.846,0.826-1.394,1.388c0.245-0.385,0.492-0.786,0.734-1.149    c0.908-1.367,1.823-2.563,2.643-3.616c0.471-0.595,0.908-1.123,1.323-1.613c0.762-0.013,3.833-0.107,5.175-0.737    c1.31-0.615,2.809-1.763,3.125-3.262c0.31-1.468-0.593-2.995-2.148-3.162c-2.158-0.233-4.722,2.724-5.51,4.495    c-0.068,0.153-0.859,2.668-0.819,2.668c0,0,0.037,0,0.046-0.001c-0.409,0.464-0.841,0.966-1.302,1.524    c-0.844,1.037-1.788,2.216-2.729,3.569c-0.944,1.349-1.932,2.842-2.83,4.508c-0.903,1.669-1.767,3.471-2.417,5.442    c-0.008,0.022-0.012,0.046-0.02,0.069c0.011-0.636-0.017-2.414-0.035-2.55c-0.249-1.922-1.86-5.489-3.994-5.884    c-1.537-0.284-2.84,0.92-2.962,2.416c-0.125,1.527,0.982,3.055,2.062,4.02c1.217,1.087,4.597,2.141,4.866,2.224    c-0.602,1.883-1.067,3.865-1.428,5.895c-0.207,1.161-0.38,2.337-0.538,3.518c-0.008-0.55-0.019-1.042-0.028-1.11    c-0.249-1.922-1.86-5.489-3.994-5.884c-1.538-0.284-2.84,0.921-2.962,2.415c-0.125,1.527,0.982,3.055,2.061,4.02    c1.096,0.978,3.959,1.934,4.719,2.177c-0.056,0.454-0.117,0.906-0.171,1.36c-0.26,2.178-0.51,4.353-0.822,6.478    c-0.109,0.749-0.244,1.483-0.377,2.217c-0.008-0.488-0.018-0.9-0.026-0.962c-0.249-1.922-1.86-5.489-3.994-5.884    c-1.538-0.284-2.84,0.92-2.963,2.416c-0.125,1.526,0.982,3.055,2.062,4.019c1.045,0.934,3.68,1.84,4.583,2.133    c-0.158,0.748-0.316,1.498-0.503,2.216c-0.139,0.487-0.239,0.966-0.406,1.448c-0.155,0.48-0.308,0.956-0.46,1.427    c-0.326,0.896-0.657,1.823-0.997,2.689c-0.232,0.604-0.465,1.176-0.696,1.752c0.117-0.744,0.316-2.206,0.319-2.33    c0.03-1.287-0.427-3.38-1.337-4.851c0.006-0.19-0.005-0.38-0.035-0.568c-0.238-1.481-1.63-2.581-3.141-2.179    c-2.097,0.558-3.427,4.24-3.526,6.175c-0.006,0.114,0.069,1.36,0.129,2.145c-0.106-0.456-0.203-0.9-0.317-1.368    c-0.22-0.927-0.467-1.847-0.728-2.837c-0.143-0.474-0.288-0.952-0.434-1.435c-0.135-0.482-0.338-0.974-0.507-1.467    c-0.415-1.134-0.89-2.263-1.394-3.39c0.812-0.195,3.684-0.927,4.838-1.812c1.148-0.881,2.366-2.323,2.355-3.854    c-0.011-1.5-1.219-2.798-2.774-2.63c-2.157,0.234-4.03,3.671-4.422,5.569c-0.024,0.118-0.152,1.512-0.208,2.279    c-0.308-0.675-0.613-1.35-0.947-2.023c-0.964-1.942-2-3.878-3.026-5.814c-0.315-0.593-0.621-1.187-0.93-1.781    c0.29-0.066,3.723-0.863,5.015-1.854c1.148-0.881,2.366-2.323,2.355-3.855c-0.011-1.5-1.219-2.798-2.774-2.629    c-2.158,0.234-4.03,3.671-4.422,5.569c-0.03,0.143-0.211,2.148-0.232,2.66c-0.68-1.308-1.345-2.618-1.948-3.936    c-0.835-1.818-1.553-3.647-2.118-5.47c0.135-0.031,3.722-0.846,5.046-1.861c1.148-0.881,2.366-2.322,2.355-3.855    c-0.011-1.5-1.219-2.798-2.774-2.629c-2.158,0.234-4.03,3.671-4.421,5.569c-0.031,0.149-0.224,2.307-0.232,2.7    c-0.034-0.108-0.08-0.217-0.112-0.326c-0.578-1.955-0.893-3.921-1.098-5.776c-0.121-1.077-0.176-2.115-0.208-3.125    c0.684-0.083,3.804-0.499,5.096-1.281c1.238-0.75,2.607-2.049,2.765-3.573c0.154-1.492-0.905-2.915-2.468-2.918    c-2.17-0.004-4.409,3.207-5.007,5.05c-0.033,0.1-0.25,1.156-0.398,1.927c-0.007-0.456-0.023-0.927-0.021-1.364    c0.003-1.641,0.107-3.144,0.209-4.474c0.064-0.756,0.138-1.438,0.214-2.076c0.628-0.432,3.138-2.204,3.91-3.47    c0.753-1.236,1.37-3.02,0.807-4.445c-0.551-1.395-2.146-2.17-3.535-1.453c-1.928,0.997-2.435,4.878-2.117,6.789    c0.028,0.165,0.756,2.699,0.789,2.677c0,0,0.031-0.021,0.038-0.026c-0.085,0.612-0.168,1.269-0.245,1.989    c-0.132,1.331-0.269,2.835-0.307,4.483c-0.043,1.646-0.043,3.436,0.127,5.322c0.168,1.89,0.441,3.869,0.986,5.872    c0.006,0.023,0.016,0.045,0.022,0.068c-0.342-0.536-1.347-2.004-1.437-2.108c-1.268-1.466-4.579-3.552-6.577-2.704    c-1.439,0.612-1.861,2.335-1.138,3.649C664.724,375.962,666.49,376.625,667.922,376.834z"></path>			<path style="fill:#263238;" d="M705.138,366.638c0.034,0.021,0.693-2.532,0.716-2.697c0.267-1.919-0.345-5.786-2.299-6.73    c-1.408-0.68-2.982,0.138-3.494,1.548c-0.524,1.439,0.14,3.206,0.927,4.421C701.911,364.607,705.136,366.636,705.138,366.638z"></path>		</g>	</g>	<g>		<g>			<path style="fill:#263238;" d="M619.732,382.152c0.994,0.434,3.424,0.379,3.426,0.379c0.025-0.001-0.522-1.591-0.568-1.688    c-0.533-1.116-2.22-2.958-3.592-2.772c-0.988,0.134-1.538,1.123-1.315,2.054C617.911,381.076,618.886,381.782,619.732,382.152z"></path>			<path style="fill:#263238;" d="M620.571,389.193c1.031,0.15,3.2-0.479,3.373-0.53c0.342,1.214,0.792,2.433,1.316,3.64    c0.298,0.691,0.621,1.377,0.952,2.062c-0.198-0.29-0.377-0.547-0.406-0.581c-0.809-0.935-2.922-2.267-4.197-1.725    c-0.919,0.39-1.187,1.489-0.726,2.328c0.471,0.857,1.598,1.281,2.512,1.414c0.927,0.135,2.788-0.364,3.278-0.503    c0.13,0.261,0.257,0.523,0.388,0.784c0.628,1.251,1.26,2.496,1.843,3.737c0.206,0.437,0.392,0.875,0.58,1.313    c-0.176-0.257-0.326-0.473-0.353-0.503c-0.809-0.935-2.922-2.266-4.197-1.725c-0.919,0.39-1.187,1.49-0.726,2.328    c0.471,0.857,1.598,1.281,2.512,1.414c0.885,0.129,2.606-0.316,3.19-0.478c0.179,0.454,0.359,0.908,0.512,1.356    c0.098,0.308,0.213,0.598,0.294,0.913c0.087,0.31,0.172,0.617,0.257,0.921c0.142,0.592,0.292,1.201,0.416,1.782    c0.089,0.403,0.167,0.789,0.246,1.178c-0.2-0.438-0.608-1.286-0.65-1.353c-0.658-1.047-2.545-2.683-3.887-2.341    c-0.967,0.247-1.399,1.292-1.07,2.191c0.336,0.918,1.385,1.508,2.269,1.778c0.973,0.297,3.126,0.026,3.394-0.01    c0.129,0.643,0.249,1.27,0.352,1.864c0.032,0.184,0.061,0.358,0.091,0.537h0.847c-0.043-0.227-0.086-0.452-0.132-0.687    c-0.128-0.654-0.279-1.35-0.44-2.063c0.162-0.064,1.08-0.436,1.894-0.891c0.709,0.767,2.525,1.666,2.76,1.78    c-0.247,0.608-0.494,1.197-0.735,1.748c-0.017,0.039-0.033,0.074-0.05,0.112h0.889c0.227-0.558,0.458-1.147,0.689-1.756    c0.26,0.054,2.392,0.487,3.385,0.263c0.901-0.204,1.992-0.713,2.396-1.604c0.395-0.872,0.041-1.947-0.905-2.265    c-1.313-0.441-3.316,1.05-4.05,2.045c-0.043,0.059-0.442,0.748-0.687,1.187c0.104-0.28,0.209-0.551,0.313-0.84    c0.21-0.571,0.402-1.147,0.611-1.766c0.091-0.302,0.182-0.608,0.274-0.916c0.098-0.304,0.163-0.638,0.247-0.959    c0.179-0.75,0.323-1.518,0.451-2.295c0.5,0.182,2.287,0.804,3.213,0.739c0.921-0.065,2.077-0.403,2.61-1.222    c0.523-0.802,0.336-1.919-0.55-2.376c-1.231-0.635-3.438,0.536-4.314,1.408c-0.055,0.054-0.613,0.751-0.913,1.139    c0.074-0.468,0.149-0.934,0.208-1.41c0.17-1.373,0.3-2.768,0.436-4.159c0.041-0.426,0.088-0.851,0.132-1.275    c0.177,0.067,2.285,0.852,3.322,0.779c0.921-0.064,2.077-0.403,2.61-1.222c0.522-0.802,0.336-1.919-0.551-2.376    c-1.231-0.635-3.437,0.535-4.314,1.408c-0.066,0.066-0.868,1.069-1.06,1.335c0.099-0.936,0.206-1.867,0.349-2.781    c0.195-1.261,0.457-2.488,0.798-3.657c0.083,0.031,2.279,0.86,3.34,0.786c0.922-0.065,2.077-0.403,2.611-1.223    c0.522-0.802,0.336-1.918-0.551-2.376c-1.231-0.635-3.437,0.535-4.314,1.408c-0.069,0.068-0.931,1.149-1.074,1.356    c0.021-0.069,0.034-0.144,0.055-0.213c0.38-1.244,0.905-2.401,1.449-3.461c0.315-0.616,0.651-1.188,0.989-1.736    c0.393,0.196,2.2,1.074,3.163,1.112c0.923,0.037,2.109-0.173,2.729-0.928c0.607-0.74,0.545-1.87-0.286-2.422    c-1.154-0.766-3.475,0.155-4.442,0.925c-0.053,0.042-0.54,0.527-0.89,0.886c0.157-0.245,0.314-0.501,0.469-0.733    c0.579-0.872,1.164-1.636,1.686-2.307c0.3-0.379,0.579-0.717,0.844-1.03c0.486-0.008,2.446-0.068,3.302-0.47    c0.836-0.393,1.792-1.125,1.994-2.082c0.198-0.937-0.379-1.911-1.37-2.018c-1.377-0.148-3.013,1.738-3.516,2.868    c-0.043,0.098-0.548,1.703-0.523,1.702c0,0,0.024,0,0.029,0c-0.261,0.296-0.537,0.616-0.831,0.972    c-0.539,0.662-1.141,1.414-1.741,2.277c-0.602,0.861-1.233,1.814-1.806,2.877c-0.576,1.065-1.128,2.215-1.542,3.473    c-0.005,0.014-0.008,0.03-0.013,0.044c0.007-0.406-0.011-1.541-0.022-1.627c-0.159-1.226-1.187-3.503-2.549-3.754    c-0.981-0.181-1.812,0.587-1.89,1.541c-0.08,0.974,0.627,1.95,1.316,2.565c0.777,0.694,2.933,1.366,3.105,1.419    c-0.384,1.202-0.681,2.466-0.911,3.762c-0.132,0.741-0.242,1.491-0.343,2.245c-0.005-0.351-0.012-0.665-0.018-0.708    c-0.159-1.226-1.187-3.502-2.549-3.754c-0.981-0.181-1.812,0.587-1.89,1.541c-0.08,0.974,0.627,1.95,1.315,2.565    c0.699,0.624,2.526,1.234,3.011,1.389c-0.036,0.289-0.074,0.578-0.109,0.868c-0.166,1.39-0.326,2.777-0.524,4.133    c-0.07,0.478-0.156,0.946-0.24,1.415c-0.005-0.311-0.012-0.574-0.017-0.614c-0.159-1.227-1.187-3.503-2.548-3.754    c-0.981-0.181-1.812,0.587-1.89,1.542c-0.08,0.974,0.627,1.949,1.316,2.565c0.667,0.596,2.348,1.174,2.924,1.361    c-0.101,0.477-0.201,0.956-0.321,1.414c-0.089,0.311-0.153,0.616-0.259,0.924c-0.099,0.306-0.197,0.61-0.294,0.91    c-0.208,0.572-0.419,1.163-0.636,1.716c-0.148,0.386-0.296,0.75-0.444,1.118c0.075-0.475,0.202-1.408,0.204-1.487    c0.019-0.822-0.273-2.157-0.853-3.096c0.004-0.121-0.003-0.242-0.023-0.362c-0.152-0.945-1.04-1.647-2.004-1.39    c-1.338,0.356-2.187,2.705-2.25,3.94c-0.004,0.073,0.044,0.868,0.082,1.369c-0.067-0.291-0.129-0.575-0.202-0.873    c-0.14-0.592-0.298-1.178-0.465-1.81c-0.091-0.302-0.184-0.607-0.277-0.916c-0.086-0.307-0.216-0.622-0.323-0.936    c-0.265-0.723-0.568-1.444-0.89-2.163c0.518-0.124,2.351-0.591,3.087-1.156c0.733-0.562,1.51-1.482,1.503-2.46    c-0.007-0.957-0.778-1.786-1.77-1.678c-1.377,0.15-2.572,2.343-2.822,3.554c-0.016,0.076-0.097,0.965-0.133,1.454    c-0.197-0.431-0.391-0.862-0.604-1.291c-0.615-1.239-1.276-2.475-1.931-3.71c-0.201-0.378-0.396-0.757-0.593-1.136    c0.185-0.042,2.376-0.551,3.2-1.183c0.733-0.562,1.51-1.482,1.503-2.46c-0.007-0.957-0.778-1.786-1.77-1.678    c-1.377,0.15-2.572,2.342-2.821,3.554c-0.019,0.091-0.134,1.371-0.148,1.697c-0.433-0.835-0.858-1.671-1.243-2.512    c-0.533-1.16-0.991-2.327-1.352-3.491c0.086-0.02,2.375-0.54,3.219-1.188c0.733-0.562,1.51-1.482,1.503-2.46    c-0.007-0.957-0.778-1.786-1.77-1.678c-1.377,0.149-2.571,2.343-2.821,3.554c-0.02,0.095-0.143,1.472-0.148,1.723    c-0.021-0.069-0.051-0.138-0.072-0.208c-0.369-1.248-0.57-2.502-0.701-3.686c-0.077-0.688-0.112-1.349-0.132-1.994    c0.436-0.053,2.427-0.318,3.252-0.817c0.79-0.479,1.664-1.307,1.764-2.28c0.098-0.952-0.577-1.86-1.575-1.862    c-1.385-0.003-2.813,2.046-3.195,3.222c-0.021,0.064-0.16,0.738-0.254,1.23c-0.005-0.291-0.015-0.591-0.014-0.87    c0.002-1.047,0.068-2.006,0.134-2.855c0.041-0.482,0.088-0.918,0.136-1.324c0.401-0.276,2.002-1.406,2.495-2.214    c0.481-0.789,0.874-1.927,0.515-2.836c-0.352-0.89-1.37-1.385-2.256-0.927c-1.23,0.636-1.554,3.112-1.351,4.332    c0.018,0.105,0.483,1.722,0.504,1.708c0,0,0.02-0.014,0.024-0.017c-0.054,0.391-0.108,0.81-0.157,1.269    c-0.084,0.849-0.172,1.809-0.196,2.86c-0.027,1.05-0.028,2.193,0.081,3.396c0.107,1.206,0.281,2.469,0.629,3.747    c0.004,0.014,0.01,0.029,0.014,0.043c-0.218-0.342-0.859-1.279-0.917-1.345c-0.809-0.935-2.922-2.267-4.197-1.725    c-0.918,0.39-1.187,1.49-0.726,2.328C618.53,388.636,619.657,389.06,620.571,389.193z"></path>			<path style="fill:#263238;" d="M644.318,382.687c0.021,0.013,0.442-1.616,0.457-1.721c0.17-1.225-0.22-3.692-1.467-4.294    c-0.898-0.434-1.903,0.088-2.23,0.988c-0.334,0.919,0.089,2.046,0.591,2.821C642.259,381.391,644.317,382.686,644.318,382.687z"></path>		</g>	</g></g><g id="Floor">	<line style="fill:none;stroke:#263238;stroke-miterlimit:10;" x1="21.65" y1="410.983" x2="722.318" y2="410.983"></line></g></svg>